{
DisplayStrings = (
/uniE1B0
);
date = "2013-02-05 02:09:05 +0000";
familyName = "RedLabel";
featurePrefixes = (
{
automatic = 1;
code = "languagesystem DFLT dflt;\012languagesystem latn dflt;\012";
name = Languagesystems;
}
);
fontMaster = (
{
ascender = 2560;
capHeight = 2048;
descender = "-512";
id = "1371701D-5D17-46B8-86D4-7A7B37AF85DD";
xHeight = 2048;
}
);
glyphs = (
{
glyphname = uniE001;
lastChange = "2013-02-06 09:19:22 +0000";
layers = (
{
layerId = "1371701D-5D17-46B8-86D4-7A7B37AF85DD";
name = Regular;
paths = (
{
closed = 1;
nodes = (
"202 2048 LINE SMOOTH",
"89 2048 OFFCURVE",
"-3 1957 OFFCURVE",
"-3 1844 CURVE SMOOTH",
"-3 207 LINE SMOOTH",
"-3 94 OFFCURVE",
"89 2 OFFCURVE",
"202 2 CURVE SMOOTH",
"2864 2 LINE SMOOTH",
"2978 2 OFFCURVE",
"3069 94 OFFCURVE",
"3069 207 CURVE SMOOTH",
"3069 1844 LINE SMOOTH",
"3069 1957 OFFCURVE",
"2978 2048 OFFCURVE",
"2864 2048 CURVE SMOOTH"
);
},
{
closed = 1;
nodes = (
"61 256 LINE",
"61 1504 LINE",
"3005 1504 LINE",
"3005 256 LINE"
);
},
{
closed = 1;
nodes = (
"2410 385 OFFCURVE",
"2408 386 OFFCURVE",
"2403 383 CURVE SMOOTH",
"2399 381 OFFCURVE",
"2395 380 OFFCURVE",
"2394 382 CURVE SMOOTH",
"2393 384 OFFCURVE",
"2390 386 OFFCURVE",
"2387 387 CURVE SMOOTH",
"2384 388 OFFCURVE",
"2382 392 OFFCURVE",
"2382 397 CURVE SMOOTH",
"2382 402 OFFCURVE",
"2380 412 OFFCURVE",
"2377 420 CURVE SMOOTH",
"2374 431 OFFCURVE",
"2374 435 OFFCURVE",
"2376 435 CURVE SMOOTH",
"2378 435 OFFCURVE",
"2378 437 OFFCURVE",
"2375 438 CURVE SMOOTH",
"2370 441 OFFCURVE",
"2367 432 OFFCURVE",
"2364 454 CURVE SMOOTH",
"2364 458 OFFCURVE",
"2361 480 OFFCURVE",
"2357 505 CURVE SMOOTH",
"2354 529 OFFCURVE",
"2350 564 OFFCURVE",
"2349 581 CURVE SMOOTH",
"2346 652 OFFCURVE",
"2345 654 OFFCURVE",
"2334 661 CURVE SMOOTH",
"2328 664 OFFCURVE",
"2320 671 OFFCURVE",
"2316 677 CURVE SMOOTH",
"2309 685 OFFCURVE",
"2308 688 OFFCURVE",
"2309 700 CURVE SMOOTH",
"2310 708 OFFCURVE",
"2311 715 OFFCURVE",
"2311 716 CURVE SMOOTH",
"2311 721 OFFCURVE",
"2328 727 OFFCURVE",
"2336 726 CURVE SMOOTH",
"2345 724 OFFCURVE",
"2345 724 OFFCURVE",
"2349 748 CURVE SMOOTH",
"2350 753 OFFCURVE",
"2352 771 OFFCURVE",
"2354 789 CURVE SMOOTH",
"2355 807 OFFCURVE",
"2360 835 OFFCURVE",
"2363 852 CURVE SMOOTH",
"2367 869 OFFCURVE",
"2370 886 OFFCURVE",
"2371 891 CURVE SMOOTH",
"2372 906 OFFCURVE",
"2382 942 OFFCURVE",
"2385 944 CURVE SMOOTH",
"2386 945 OFFCURVE",
"2388 949 OFFCURVE",
"2388 952 CURVE SMOOTH",
"2388 970 OFFCURVE",
"2420 1038 OFFCURVE",
"2443 1068 CURVE SMOOTH",
"2452 1080 OFFCURVE",
"2464 1094 OFFCURVE",
"2472 1099 CURVE SMOOTH",
"2479 1105 OFFCURVE",
"2488 1113 OFFCURVE",
"2493 1118 CURVE SMOOTH",
"2497 1123 OFFCURVE",
"2507 1131 OFFCURVE",
"2515 1135 CURVE SMOOTH",
"2523 1139 OFFCURVE",
"2530 1143 OFFCURVE",
"2531 1144 CURVE",
"2532 1146 OFFCURVE",
"2541 1148 OFFCURVE",
"2552 1150 CURVE SMOOTH",
"2566 1153 OFFCURVE",
"2573 1153 OFFCURVE",
"2583 1151 CURVE SMOOTH",
"2589 1149 OFFCURVE",
"2598 1147 OFFCURVE",
"2601 1147 CURVE SMOOTH",
"2604 1147 OFFCURVE",
"2608 1146 OFFCURVE",
"2608 1144 CURVE SMOOTH",
"2609 1142 OFFCURVE",
"2620 1137 OFFCURVE",
"2632 1133 CURVE SMOOTH",
"2645 1129 OFFCURVE",
"2659 1124 OFFCURVE",
"2664 1121 CURVE SMOOTH",
"2669 1119 OFFCURVE",
"2677 1116 OFFCURVE",
"2681 1115 CURVE SMOOTH",
"2704 1110 OFFCURVE",
"2724 1082 OFFCURVE",
"2736 1039 CURVE SMOOTH",
"2745 1009 OFFCURVE",
"2745 941 OFFCURVE",
"2736 903 CURVE SMOOTH",
"2723 845 OFFCURVE",
"2708 820 OFFCURVE",
"2651 761 CURVE SMOOTH",
"2585 694 OFFCURVE",
"2523 651 OFFCURVE",
"2482 646 CURVE SMOOTH",
"2474 645 OFFCURVE",
"2466 643 OFFCURVE",
"2465 642 CURVE SMOOTH",
"2462 637 OFFCURVE",
"2463 527 OFFCURVE",
"2467 497 CURVE SMOOTH",
"2471 458 OFFCURVE",
"2480 428 OFFCURVE",
"2482 426 CURVE SMOOTH",
"2486 423 OFFCURVE",
"2497 388 OFFCURVE",
"2496 386 CURVE SMOOTH",
"2493 382 OFFCURVE",
"2463 383 OFFCURVE",
"2458 387 CURVE SMOOTH",
"2455 390 OFFCURVE",
"2454 390 OFFCURVE",
"2450 385 CURVE SMOOTH",
"2447 380 OFFCURVE",
"2446 380 OFFCURVE",
"2445 385 CURVE SMOOTH",
"2443 388 OFFCURVE",
"2441 389 OFFCURVE",
"2437 386 CURVE SMOOTH",
"2434 385 OFFCURVE",
"2430 384 OFFCURVE",
"2429 385 CURVE SMOOTH",
"2428 386 OFFCURVE",
"2425 385 OFFCURVE",
"2423 382 CURVE SMOOTH",
"2420 377 OFFCURVE",
"2419 377 OFFCURVE",
"2414 381 CURVE SMOOTH"
);
},
{
closed = 1;
nodes = (
"2486 756 OFFCURVE",
"2493 761 OFFCURVE",
"2500 766 CURVE SMOOTH",
"2517 778 OFFCURVE",
"2574 837 OFFCURVE",
"2583 852 CURVE SMOOTH",
"2606 893 OFFCURVE",
"2615 921 OFFCURVE",
"2619 964 CURVE SMOOTH",
"2621 996 OFFCURVE",
"2612 1061 OFFCURVE",
"2605 1061 CURVE SMOOTH",
"2600 1061 OFFCURVE",
"2567 1025 OFFCURVE",
"2555 1007 CURVE SMOOTH",
"2526 964 OFFCURVE",
"2504 908 OFFCURVE",
"2491 846 CURVE SMOOTH",
"2487 827 OFFCURVE",
"2483 811 OFFCURVE",
"2482 811 CURVE SMOOTH",
"2481 810 OFFCURVE",
"2479 799 OFFCURVE",
"2477 786 CURVE SMOOTH",
"2475 773 OFFCURVE",
"2472 759 OFFCURVE",
"2471 754 CURVE SMOOTH",
"2469 746 OFFCURVE",
"2470 746 OFFCURVE",
"2477 750 CURVE SMOOTH",
"2481 752 OFFCURVE",
"2485 755 OFFCURVE",
"2485 756 CURVE SMOOTH"
);
},
{
closed = 1;
nodes = (
"1744 587 OFFCURVE",
"1742 607 OFFCURVE",
"1741 634 CURVE SMOOTH",
"1740 659 OFFCURVE",
"1738 681 OFFCURVE",
"1738 682 CURVE SMOOTH",
"1737 683 OFFCURVE",
"1736 708 OFFCURVE",
"1735 739 CURVE SMOOTH",
"1733 769 OFFCURVE",
"1731 794 OFFCURVE",
"1730 795 CURVE SMOOTH",
"1728 795 OFFCURVE",
"1727 803 OFFCURVE",
"1727 812 CURVE",
"1727 820 OFFCURVE",
"1726 829 OFFCURVE",
"1725 831 CURVE SMOOTH",
"1723 833 OFFCURVE",
"1704 835 OFFCURVE",
"1673 836 CURVE SMOOTH",
"1626 838 OFFCURVE",
"1624 838 OFFCURVE",
"1618 846 CURVE SMOOTH",
"1608 856 OFFCURVE",
"1606 865 OFFCURVE",
"1610 880 CURVE SMOOTH",
"1614 893 OFFCURVE",
"1627 900 OFFCURVE",
"1639 900 CURVE SMOOTH",
"1643 900 OFFCURVE",
"1662 899 OFFCURVE",
"1682 898 CURVE",
"1718 901 LINE",
"1718 912 LINE",
"1718 918 OFFCURVE",
"1716 934 OFFCURVE",
"1715 948 CURVE SMOOTH",
"1713 963 OFFCURVE",
"1711 983 OFFCURVE",
"1710 994 CURVE SMOOTH",
"1709 1005 OFFCURVE",
"1706 1028 OFFCURVE",
"1704 1045 CURVE SMOOTH",
"1701 1061 OFFCURVE",
"1698 1091 OFFCURVE",
"1696 1110 CURVE SMOOTH",
"1695 1130 OFFCURVE",
"1697 1164 OFFCURVE",
"1695 1186 CURVE SMOOTH",
"1691 1237 OFFCURVE",
"1688 1339 OFFCURVE",
"1694 1357 CURVE SMOOTH",
"1700 1378 OFFCURVE",
"1705 1381 OFFCURVE",
"1730 1380 CURVE SMOOTH",
"1748 1380 OFFCURVE",
"1755 1378 OFFCURVE",
"1774 1370 CURVE SMOOTH",
"1828 1344 OFFCURVE",
"1831 1338 OFFCURVE",
"1823 1288 CURVE SMOOTH",
"1819 1255 OFFCURVE",
"1818 1184 OFFCURVE",
"1822 1135 CURVE SMOOTH",
"1823 1119 OFFCURVE",
"1822 1089 OFFCURVE",
"1823 1069 CURVE SMOOTH",
"1827 1002 OFFCURVE",
"1822 993 OFFCURVE",
"1823 979 CURVE SMOOTH",
"1824 971 OFFCURVE",
"1824 962 OFFCURVE",
"1822 957 CURVE",
"1821 948 LINE SMOOTH",
"1821 940 LINE",
"1819 935 OFFCURVE",
"1821 933 OFFCURVE",
"1821 931 CURVE",
"1821 930 OFFCURVE",
"1820 924 OFFCURVE",
"1820 921 CURVE SMOOTH",
"1827 915 LINE",
"1851 913 LINE",
"1858 918 OFFCURVE",
"1861 921 OFFCURVE",
"1865 925 CURVE",
"1875 929 OFFCURVE",
"1882 927 OFFCURVE",
"1888 919 CURVE SMOOTH",
"1890 915 OFFCURVE",
"1887 925 OFFCURVE",
"1889 925 CURVE SMOOTH",
"1890 926 OFFCURVE",
"1894 924 OFFCURVE",
"1898 919 CURVE SMOOTH",
"1902 915 OFFCURVE",
"1907 912 OFFCURVE",
"1909 912 CURVE SMOOTH",
"1912 912 OFFCURVE",
"1913 911 OFFCURVE",
"1913 910 CURVE SMOOTH",
"1913 906 OFFCURVE",
"1943 887 OFFCURVE",
"1952 881 CURVE SMOOTH",
"1957 877 OFFCURVE",
"1959 875 OFFCURVE",
"1957 875 CURVE SMOOTH",
"1954 875 OFFCURVE",
"1954 873 OFFCURVE",
"1958 870 CURVE SMOOTH",
"1964 863 OFFCURVE",
"1959 860 OFFCURVE",
"1945 860 CURVE SMOOTH",
"1940 860 OFFCURVE",
"1934 858 OFFCURVE",
"1933 856 CURVE SMOOTH",
"1932 855 OFFCURVE",
"1929 853 OFFCURVE",
"1925 853 CURVE SMOOTH",
"1922 853 OFFCURVE",
"1916 851 OFFCURVE",
"1913 847 CURVE SMOOTH",
"1910 843 OFFCURVE",
"1907 842 OFFCURVE",
"1906 844 CURVE SMOOTH",
"1905 846 OFFCURVE",
"1903 847 OFFCURVE",
"1902 846 CURVE SMOOTH",
"1901 845 OFFCURVE",
"1883 844 OFFCURVE",
"1863 843 CURVE SMOOTH",
"1843 842 OFFCURVE",
"1825 839 OFFCURVE",
"1823 838 CURVE SMOOTH",
"1818 834 OFFCURVE",
"1817 826 OFFCURVE",
"1822 826 CURVE SMOOTH",
"1823 826 OFFCURVE",
"1824 820 OFFCURVE",
"1824 813 CURVE SMOOTH",
"1823 807 OFFCURVE",
"1824 800 OFFCURVE",
"1825 799 CURVE SMOOTH",
"1827 799 OFFCURVE",
"1828 794 OFFCURVE",
"1828 788 CURVE SMOOTH",
"1827 780 OFFCURVE",
"1827 779 OFFCURVE",
"1824 785 CURVE SMOOTH",
"1823 789 OFFCURVE",
"1822 776 OFFCURVE",
"1824 749 CURVE SMOOTH",
"1825 727 OFFCURVE",
"1826 687 OFFCURVE",
"1827 661 CURVE SMOOTH",
"1827 635 OFFCURVE",
"1828 600 OFFCURVE",
"1829 596 CURVE SMOOTH",
"1831 591 OFFCURVE",
"1830 589 OFFCURVE",
"1826 590 CURVE SMOOTH",
"1823 590 OFFCURVE",
"1818 590 OFFCURVE",
"1816 589 CURVE SMOOTH",
"1806 584 OFFCURVE",
"1792 582 OFFCURVE",
"1777 583 CURVE SMOOTH",
"1764 583 OFFCURVE",
"1761 582 OFFCURVE",
"1761 578 CURVE SMOOTH",
"1761 575 OFFCURVE",
"1759 574 OFFCURVE",
"1756 575 CURVE SMOOTH",
"1754 576 OFFCURVE",
"1751 575 OFFCURVE",
"1751 574 CURVE SMOOTH",
"1750 572 OFFCURVE",
"1748 582 OFFCURVE",
"1746 585 CURVE SMOOTH"
);
},
{
closed = 1;
nodes = (
"818 599 OFFCURVE",
"812 614 OFFCURVE",
"808 631 CURVE SMOOTH",
"800 659 OFFCURVE",
"792 682 OFFCURVE",
"787 685 CURVE SMOOTH",
"785 687 OFFCURVE",
"763 752 OFFCURVE",
"763 757 CURVE SMOOTH",
"763 759 OFFCURVE",
"758 777 OFFCURVE",
"751 798 CURVE SMOOTH",
"744 819 OFFCURVE",
"737 843 OFFCURVE",
"736 850 CURVE SMOOTH",
"733 863 OFFCURVE",
"730 879 OFFCURVE",
"714 940 CURVE SMOOTH",
"703 987 OFFCURVE",
"701 973 OFFCURVE",
"693 791 CURVE SMOOTH",
"689 697 OFFCURVE",
"688 686 OFFCURVE",
"676 657 CURVE SMOOTH",
"671 646 OFFCURVE",
"670 645 OFFCURVE",
"657 645 CURVE SMOOTH",
"639 645 OFFCURVE",
"627 643 OFFCURVE",
"595 639 CURVE SMOOTH",
"563 635 OFFCURVE",
"556 635 OFFCURVE",
"548 641 CURVE SMOOTH",
"539 646 OFFCURVE",
"506 697 OFFCURVE",
"445 797 CURVE SMOOTH",
"437 809 OFFCURVE",
"437 805 OFFCURVE",
"447 741 CURVE SMOOTH",
"458 666 OFFCURVE",
"457 664 OFFCURVE",
"438 652 CURVE SMOOTH",
"421 642 OFFCURVE",
"363 627 OFFCURVE",
"349 629 CURVE SMOOTH",
"328 632 OFFCURVE",
"319 645 OFFCURVE",
"316 674 CURVE SMOOTH",
"314 693 OFFCURVE",
"310 782 OFFCURVE",
"307 795 CURVE SMOOTH",
"306 802 OFFCURVE",
"306 966 OFFCURVE",
"308 1046 CURVE SMOOTH",
"308 1073 LINE",
"320 1076 LINE SMOOTH",
"327 1078 OFFCURVE",
"339 1081 OFFCURVE",
"346 1084 CURVE SMOOTH",
"356 1087 OFFCURVE",
"364 1089 OFFCURVE",
"390 1089 CURVE SMOOTH",
"427 1089 OFFCURVE",
"428 1089 OFFCURVE",
"434 1081 CURVE SMOOTH",
"443 1071 OFFCURVE",
"474 1029 OFFCURVE",
"513 951 CURVE SMOOTH",
"563 855 OFFCURVE",
"561 857 OFFCURVE",
"562 864 CURVE SMOOTH",
"562 867 OFFCURVE",
"563 873 OFFCURVE",
"563 876 CURVE SMOOTH",
"565 905 OFFCURVE",
"569 935 OFFCURVE",
"574 957 CURVE SMOOTH",
"589 1031 OFFCURVE",
"599 1068 OFFCURVE",
"603 1073 CURVE SMOOTH",
"605 1075 OFFCURVE",
"607 1079 OFFCURVE",
"607 1081 CURVE SMOOTH",
"608 1084 OFFCURVE",
"632 1131 OFFCURVE",
"645 1163 CURVE SMOOTH",
"653 1184 OFFCURVE",
"656 1185 OFFCURVE",
"701 1182 CURVE SMOOTH",
"772 1179 OFFCURVE",
"770 1179 OFFCURVE",
"788 1157 CURVE SMOOTH",
"796 1147 OFFCURVE",
"812 1110 OFFCURVE",
"812 1094 CURVE SMOOTH",
"812 1090 OFFCURVE",
"816 1075 OFFCURVE",
"821 1060 CURVE SMOOTH",
"830 1033 OFFCURVE",
"840 991 OFFCURVE",
"848 951 CURVE SMOOTH",
"850 940 OFFCURVE",
"854 918 OFFCURVE",
"858 902 CURVE SMOOTH",
"862 886 OFFCURVE",
"866 864 OFFCURVE",
"867 853 CURVE SMOOTH",
"871 831 OFFCURVE",
"872 825 OFFCURVE",
"885 782 CURVE SMOOTH",
"898 741 OFFCURVE",
"902 723 OFFCURVE",
"899 715 CURVE SMOOTH",
"898 711 OFFCURVE",
"898 710 OFFCURVE",
"901 711 CURVE SMOOTH",
"903 712 OFFCURVE",
"904 711 OFFCURVE",
"904 709 CURVE SMOOTH",
"905 695 OFFCURVE",
"907 690 OFFCURVE",
"910 689 CURVE SMOOTH",
"912 688 OFFCURVE",
"912 686 OFFCURVE",
"911 685 CURVE SMOOTH",
"910 683 OFFCURVE",
"912 677 OFFCURVE",
"914 670 CURVE SMOOTH",
"919 658 OFFCURVE",
"932 620 OFFCURVE",
"932 617 CURVE SMOOTH",
"932 614 OFFCURVE",
"919 621 OFFCURVE",
"915 627 CURVE SMOOTH",
"912 630 OFFCURVE",
"912 628 OFFCURVE",
"912 620 CURVE SMOOTH",
"912 608 OFFCURVE",
"911 606 OFFCURVE",
"905 612 CURVE SMOOTH",
"902 615 OFFCURVE",
"901 615 OFFCURVE",
"901 613 CURVE SMOOTH",
"901 611 OFFCURVE",
"898 608 OFFCURVE",
"893 606 CURVE SMOOTH",
"888 604 OFFCURVE",
"886 604 OFFCURVE",
"886 606 CURVE SMOOTH",
"886 608 OFFCURVE",
"884 608 OFFCURVE",
"882 607 CURVE SMOOTH",
"880 605 OFFCURVE",
"874 604 OFFCURVE",
"869 604 CURVE SMOOTH",
"865 604 OFFCURVE",
"860 602 OFFCURVE",
"859 601 CURVE SMOOTH",
"858 599 OFFCURVE",
"852 598 OFFCURVE",
"846 597 CURVE SMOOTH",
"840 597 OFFCURVE",
"833 596 OFFCURVE",
"831 595 CURVE SMOOTH",
"828 594 OFFCURVE",
"824 595 OFFCURVE",
"821 597 CURVE SMOOTH"
);
},
{
closed = 1;
nodes = (
"1048 609 OFFCURVE",
"1011 623 OFFCURVE",
"1007 635 CURVE SMOOTH",
"1006 638 OFFCURVE",
"1003 639 OFFCURVE",
"1000 638 CURVE SMOOTH",
"998 637 OFFCURVE",
"996 638 OFFCURVE",
"997 639 CURVE SMOOTH",
"999 642 OFFCURVE",
"984 653 OFFCURVE",
"977 653 CURVE SMOOTH",
"972 654 OFFCURVE",
"949 678 OFFCURVE",
"940 692 CURVE SMOOTH",
"925 716 OFFCURVE",
"923 732 OFFCURVE",
"922 819 CURVE SMOOTH",
"922 872 OFFCURVE",
"922 903 OFFCURVE",
"924 907 CURVE SMOOTH",
"926 910 OFFCURVE",
"929 927 OFFCURVE",
"930 945 CURVE SMOOTH",
"931 963 OFFCURVE",
"934 981 OFFCURVE",
"936 986 CURVE SMOOTH",
"939 991 OFFCURVE",
"941 997 OFFCURVE",
"941 999 CURVE SMOOTH",
"941 1007 OFFCURVE",
"956 1044 OFFCURVE",
"963 1053 CURVE SMOOTH",
"967 1058 OFFCURVE",
"973 1065 OFFCURVE",
"976 1069 CURVE SMOOTH",
"980 1072 OFFCURVE",
"986 1080 OFFCURVE",
"991 1087 CURVE SMOOTH",
"1000 1099 OFFCURVE",
"1021 1116 OFFCURVE",
"1047 1132 CURVE SMOOTH",
"1054 1137 OFFCURVE",
"1060 1142 OFFCURVE",
"1060 1144 CURVE SMOOTH",
"1060 1146 OFFCURVE",
"1064 1149 OFFCURVE",
"1070 1152 CURVE SMOOTH",
"1079 1157 OFFCURVE",
"1090 1157 OFFCURVE",
"1129 1152 CURVE SMOOTH",
"1137 1150 OFFCURVE",
"1149 1149 OFFCURVE",
"1156 1149 CURVE SMOOTH",
"1163 1149 OFFCURVE",
"1166 1148 OFFCURVE",
"1163 1147 CURVE SMOOTH",
"1157 1143 OFFCURVE",
"1162 1141 OFFCURVE",
"1182 1138 CURVE SMOOTH",
"1196 1136 OFFCURVE",
"1203 1133 OFFCURVE",
"1208 1129 CURVE SMOOTH",
"1221 1114 OFFCURVE",
"1228 1077 OFFCURVE",
"1234 979 CURVE SMOOTH",
"1238 920 OFFCURVE",
"1238 898 OFFCURVE",
"1235 884 CURVE SMOOTH",
"1233 879 OFFCURVE",
"1231 866 OFFCURVE",
"1230 855 CURVE SMOOTH",
"1227 829 OFFCURVE",
"1226 827 OFFCURVE",
"1203 825 CURVE SMOOTH",
"1177 823 OFFCURVE",
"1104 827 OFFCURVE",
"1075 833 CURVE SMOOTH",
"1063 836 OFFCURVE",
"1052 837 OFFCURVE",
"1051 836 CURVE",
"1051 836 OFFCURVE",
"1049 822 OFFCURVE",
"1048 807 CURVE SMOOTH",
"1042 747 OFFCURVE",
"1057 702 OFFCURVE",
"1089 673 CURVE SMOOTH",
"1106 658 OFFCURVE",
"1117 654 OFFCURVE",
"1131 656 CURVE SMOOTH",
"1156 660 OFFCURVE",
"1176 667 OFFCURVE",
"1190 675 CURVE SMOOTH",
"1204 683 LINE",
"1225 678 LINE SMOOTH",
"1237 675 OFFCURVE",
"1248 673 OFFCURVE",
"1251 673 CURVE SMOOTH",
"1254 673 OFFCURVE",
"1256 672 OFFCURVE",
"1256 670 CURVE SMOOTH",
"1256 668 OFFCURVE",
"1258 667 OFFCURVE",
"1262 667 CURVE SMOOTH",
"1271 667 OFFCURVE",
"1277 664 OFFCURVE",
"1277 659 CURVE SMOOTH",
"1277 656 OFFCURVE",
"1279 655 OFFCURVE",
"1282 655 CURVE SMOOTH",
"1284 655 OFFCURVE",
"1289 651 OFFCURVE",
"1294 647 CURVE SMOOTH",
"1301 640 LINE",
"1275 630 LINE SMOOTH",
"1260 625 OFFCURVE",
"1247 619 OFFCURVE",
"1245 618 CURVE SMOOTH",
"1243 616 OFFCURVE",
"1231 614 OFFCURVE",
"1217 612 CURVE SMOOTH",
"1204 610 OFFCURVE",
"1186 607 OFFCURVE",
"1178 606 CURVE SMOOTH",
"1158 601 OFFCURVE",
"1112 600 OFFCURVE",
"1090 603 CURVE SMOOTH"
);
},
{
closed = 1;
nodes = (
"1114 994 OFFCURVE",
"1113 1021 OFFCURVE",
"1112 1025 CURVE SMOOTH",
"1110 1032 OFFCURVE",
"1110 1032 OFFCURVE",
"1103 1020 CURVE SMOOTH",
"1089 999 OFFCURVE",
"1063 967 OFFCURVE",
"1055 933 CURVE SMOOTH",
"1049 905 OFFCURVE",
"1060 906 OFFCURVE",
"1103 899 CURVE SMOOTH",
"1115 897 OFFCURVE",
"1117 909 OFFCURVE",
"1115 965 CURVE SMOOTH"
);
},
{
closed = 1;
nodes = (
"1492 617 OFFCURVE",
"1487 618 OFFCURVE",
"1473 618 CURVE SMOOTH",
"1462 618 OFFCURVE",
"1441 621 OFFCURVE",
"1426 624 CURVE SMOOTH",
"1410 628 OFFCURVE",
"1395 631 OFFCURVE",
"1390 632 CURVE SMOOTH",
"1378 633 OFFCURVE",
"1378 633 OFFCURVE",
"1380 637 CURVE SMOOTH",
"1381 639 OFFCURVE",
"1381 639 OFFCURVE",
"1379 638 CURVE SMOOTH",
"1377 637 OFFCURVE",
"1366 641 OFFCURVE",
"1355 647 CURVE SMOOTH",
"1334 658 OFFCURVE",
"1317 677 OFFCURVE",
"1305 700 CURVE SMOOTH",
"1303 705 OFFCURVE",
"1296 714 OFFCURVE",
"1290 722 CURVE SMOOTH",
"1273 742 OFFCURVE",
"1271 751 OFFCURVE",
"1271 799 CURVE SMOOTH",
"1271 822 OFFCURVE",
"1270 842 OFFCURVE",
"1268 842 CURVE SMOOTH",
"1264 845 OFFCURVE",
"1268 882 OFFCURVE",
"1272 886 CURVE SMOOTH",
"1276 889 OFFCURVE",
"1282 911 OFFCURVE",
"1291 957 CURVE SMOOTH",
"1294 971 OFFCURVE",
"1301 994 OFFCURVE",
"1307 1009 CURVE SMOOTH",
"1312 1023 OFFCURVE",
"1317 1037 OFFCURVE",
"1317 1039 CURVE SMOOTH",
"1317 1043 OFFCURVE",
"1347 1092 OFFCURVE",
"1351 1097 CURVE SMOOTH",
"1354 1098 OFFCURVE",
"1359 1104 OFFCURVE",
"1363 1110 CURVE SMOOTH",
"1376 1127 OFFCURVE",
"1383 1135 OFFCURVE",
"1386 1135 CURVE SMOOTH",
"1390 1135 OFFCURVE",
"1421 1169 OFFCURVE",
"1421 1173 CURVE SMOOTH",
"1421 1184 OFFCURVE",
"1469 1189 OFFCURVE",
"1484 1179 CURVE SMOOTH",
"1488 1177 OFFCURVE",
"1494 1175 OFFCURVE",
"1498 1174 CURVE SMOOTH",
"1502 1174 OFFCURVE",
"1513 1170 OFFCURVE",
"1522 1165 CURVE SMOOTH",
"1531 1160 OFFCURVE",
"1541 1156 OFFCURVE",
"1544 1156 CURVE SMOOTH",
"1553 1156 OFFCURVE",
"1568 1146 OFFCURVE",
"1572 1136 CURVE SMOOTH",
"1577 1125 OFFCURVE",
"1578 1103 OFFCURVE",
"1575 1062 CURVE SMOOTH",
"1574 1047 OFFCURVE",
"1572 1038 OFFCURVE",
"1570 1041 CURVE SMOOTH",
"1569 1043 OFFCURVE",
"1568 1033 OFFCURVE",
"1568 1018 CURVE SMOOTH",
"1568 1000 OFFCURVE",
"1567 991 OFFCURVE",
"1565 993 CURVE SMOOTH",
"1563 994 OFFCURVE",
"1561 991 OFFCURVE",
"1561 987 CURVE SMOOTH",
"1561 984 OFFCURVE",
"1561 977 OFFCURVE",
"1560 973 CURVE SMOOTH",
"1560 968 OFFCURVE",
"1559 963 OFFCURVE",
"1558 960 CURVE SMOOTH",
"1553 949 OFFCURVE",
"1548 823 OFFCURVE",
"1553 823 CURVE SMOOTH",
"1554 823 OFFCURVE",
"1556 821 OFFCURVE",
"1556 818 CURVE SMOOTH",
"1556 816 OFFCURVE",
"1553 814 OFFCURVE",
"1550 814 CURVE SMOOTH",
"1546 814 OFFCURVE",
"1540 812 OFFCURVE",
"1535 810 CURVE SMOOTH",
"1530 808 OFFCURVE",
"1525 807 OFFCURVE",
"1524 807 CURVE SMOOTH",
"1522 808 OFFCURVE",
"1516 806 OFFCURVE",
"1509 803 CURVE SMOOTH",
"1496 798 OFFCURVE",
"1468 797 OFFCURVE",
"1452 801 CURVE SMOOTH",
"1446 803 OFFCURVE",
"1435 805 OFFCURVE",
"1429 806 CURVE SMOOTH",
"1422 807 OFFCURVE",
"1410 809 OFFCURVE",
"1402 810 CURVE SMOOTH",
"1394 811 OFFCURVE",
"1387 812 OFFCURVE",
"1386 811 CURVE SMOOTH",
"1385 809 OFFCURVE",
"1384 800 OFFCURVE",
"1383 789 CURVE SMOOTH",
"1379 754 OFFCURVE",
"1397 715 OFFCURVE",
"1431 682 CURVE SMOOTH",
"1455 658 OFFCURVE",
"1483 654 OFFCURVE",
"1528 668 CURVE SMOOTH",
"1559 677 OFFCURVE",
"1568 681 OFFCURVE",
"1568 686 CURVE SMOOTH",
"1568 694 OFFCURVE",
"1582 706 OFFCURVE",
"1589 705 CURVE SMOOTH",
"1615 700 OFFCURVE",
"1639 684 OFFCURVE",
"1637 673 CURVE SMOOTH",
"1636 669 OFFCURVE",
"1638 666 OFFCURVE",
"1641 664 CURVE SMOOTH",
"1645 661 OFFCURVE",
"1645 660 OFFCURVE",
"1638 655 CURVE SMOOTH",
"1623 644 OFFCURVE",
"1606 636 OFFCURVE",
"1586 629 CURVE SMOOTH",
"1575 626 OFFCURVE",
"1566 622 OFFCURVE",
"1565 621 CURVE SMOOTH",
"1563 618 OFFCURVE",
"1515 612 OFFCURVE",
"1496 612 CURVE SMOOTH",
"1487 612 OFFCURVE",
"1485 613 OFFCURVE",
"1488 615 CURVE SMOOTH"
);
},
{
closed = 1;
nodes = (
"1467 889 OFFCURVE",
"1471 952 OFFCURVE",
"1469 995 CURVE SMOOTH",
"1467 1038 LINE",
"1455 1014 LINE SMOOTH",
"1441 985 OFFCURVE",
"1394 896 OFFCURVE",
"1394 884 CURVE SMOOTH",
"1394 874 OFFCURVE",
"1397 873 OFFCURVE",
"1420 871 CURVE SMOOTH",
"1427 870 OFFCURVE",
"1451 869 OFFCURVE",
"1454 869 CURVE SMOOTH",
"1457 869 OFFCURVE",
"1460 872 OFFCURVE",
"1462 876 CURVE SMOOTH"
);
},
{
closed = 1;
nodes = (
"2039 627 OFFCURVE",
"2026 643 OFFCURVE",
"2009 687 CURVE SMOOTH",
"1989 738 OFFCURVE",
"1972 857 OFFCURVE",
"1971 956 CURVE SMOOTH",
"1970 1005 OFFCURVE",
"1989 1014 OFFCURVE",
"2043 988 CURVE SMOOTH",
"2057 981 OFFCURVE",
"2070 976 OFFCURVE",
"2072 976 CURVE SMOOTH",
"2073 976 OFFCURVE",
"2077 973 OFFCURVE",
"2080 970 CURVE SMOOTH",
"2083 966 OFFCURVE",
"2087 964 OFFCURVE",
"2090 964 CURVE SMOOTH",
"2100 964 OFFCURVE",
"2102 951 OFFCURVE",
"2102 873 CURVE SMOOTH",
"2103 829 OFFCURVE",
"2105 796 OFFCURVE",
"2106 796 CURVE SMOOTH",
"2108 795 OFFCURVE",
"2109 784 OFFCURVE",
"2109 770 CURVE SMOOTH",
"2109 756 OFFCURVE",
"2110 740 OFFCURVE",
"2112 735 CURVE SMOOTH",
"2114 729 OFFCURVE",
"2114 726 OFFCURVE",
"2112 726 CURVE SMOOTH",
"2111 727 OFFCURVE",
"2110 723 OFFCURVE",
"2111 717 CURVE SMOOTH",
"2112 705 OFFCURVE",
"2113 700 OFFCURVE",
"2119 685 CURVE SMOOTH",
"2122 678 LINE",
"2136 692 LINE SMOOTH",
"2153 709 OFFCURVE",
"2182 751 OFFCURVE",
"2191 774 CURVE SMOOTH",
"2202 802 OFFCURVE",
"2207 833 OFFCURVE",
"2209 885 CURVE SMOOTH",
"2211 926 OFFCURVE",
"2210 934 OFFCURVE",
"2206 944 CURVE SMOOTH",
"2201 954 OFFCURVE",
"2201 955 OFFCURVE",
"2206 970 CURVE SMOOTH",
"2212 986 OFFCURVE",
"2223 997 OFFCURVE",
"2234 997 CURVE SMOOTH",
"2237 997 OFFCURVE",
"2252 992 OFFCURVE",
"2266 985 CURVE SMOOTH",
"2280 978 OFFCURVE",
"2294 973 OFFCURVE",
"2295 973 CURVE SMOOTH",
"2297 973 OFFCURVE",
"2299 970 OFFCURVE",
"2300 967 CURVE SMOOTH",
"2302 962 OFFCURVE",
"2304 961 OFFCURVE",
"2310 962 CURVE SMOOTH",
"2315 963 OFFCURVE",
"2318 961 OFFCURVE",
"2320 957 CURVE SMOOTH",
"2322 954 OFFCURVE",
"2325 951 OFFCURVE",
"2328 951 CURVE SMOOTH",
"2339 951 OFFCURVE",
"2338 906 OFFCURVE",
"2326 835 CURVE SMOOTH",
"2322 809 OFFCURVE",
"2320 804 OFFCURVE",
"2317 806 CURVE SMOOTH",
"2315 807 OFFCURVE",
"2314 805 OFFCURVE",
"2314 802 CURVE SMOOTH",
"2314 795 OFFCURVE",
"2305 773 OFFCURVE",
"2305 780 CURVE SMOOTH",
"2305 783 OFFCURVE",
"2304 783 OFFCURVE",
"2301 778 CURVE SMOOTH",
"2299 775 OFFCURVE",
"2296 770 OFFCURVE",
"2293 768 CURVE SMOOTH",
"2289 764 OFFCURVE",
"2289 764 OFFCURVE",
"2291 770 CURVE SMOOTH",
"2292 774 OFFCURVE",
"2292 777 OFFCURVE",
"2291 777 CURVE SMOOTH",
"2289 777 OFFCURVE",
"2284 767 OFFCURVE",
"2280 755 CURVE SMOOTH",
"2273 735 OFFCURVE",
"2248 693 OFFCURVE",
"2241 688 CURVE SMOOTH",
"2240 687 OFFCURVE",
"2236 682 OFFCURVE",
"2232 675 CURVE SMOOTH",
"2224 662 OFFCURVE",
"2221 660 OFFCURVE",
"2225 671 CURVE SMOOTH",
"2228 677 OFFCURVE",
"2227 678 OFFCURVE",
"2223 678 CURVE SMOOTH",
"2220 677 OFFCURVE",
"2218 675 OFFCURVE",
"2219 673 CURVE SMOOTH",
"2219 671 OFFCURVE",
"2217 668 OFFCURVE",
"2215 666 CURVE SMOOTH",
"2212 664 OFFCURVE",
"2209 660 OFFCURVE",
"2209 657 CURVE SMOOTH",
"2209 654 OFFCURVE",
"2207 650 OFFCURVE",
"2204 647 CURVE SMOOTH",
"2202 645 OFFCURVE",
"2201 642 OFFCURVE",
"2203 642 CURVE",
"2204 642 OFFCURVE",
"2201 640 OFFCURVE",
"2196 636 CURVE SMOOTH",
"2182 627 OFFCURVE",
"2160 621 OFFCURVE",
"2128 619 CURVE SMOOTH",
"2112 618 OFFCURVE",
"2094 617 OFFCURVE",
"2088 616 CURVE SMOOTH",
"2082 616 OFFCURVE",
"2072 617 OFFCURVE",
"2065 619 CURVE SMOOTH"
);
},
{
closed = 1;
nodes = (
"1394 629 OFFCURVE",
"1395 629 OFFCURVE",
"1398 628 CURVE SMOOTH",
"1403 626 OFFCURVE",
"1404 624 OFFCURVE",
"1400 624 CURVE SMOOTH",
"1398 624 OFFCURVE",
"1396 625 OFFCURVE",
"1395 627 CURVE SMOOTH"
);
},
{
closed = 1;
nodes = (
"1559 954 OFFCURVE",
"1560 954 OFFCURVE",
"1561 952 CURVE SMOOTH",
"1562 950 OFFCURVE",
"1562 947 OFFCURVE",
"1560 946 CURVE SMOOTH",
"1559 945 OFFCURVE",
"1559 947 OFFCURVE",
"1559 950 CURVE SMOOTH"
);
}
);
width = 3072;
}
);
unicode = E001;
},
{
glyphname = uniE002;
lastChange = "2013-02-06 07:33:29 +0000";
layers = (
{
layerId = "1371701D-5D17-46B8-86D4-7A7B37AF85DD";
name = Regular;
paths = (
{
closed = 1;
nodes = (
"224 2048 LINE",
"96 2048 OFFCURVE",
"0 1952 OFFCURVE",
"0 1856 CURVE",
"0 192 LINE",
"0 96 OFFCURVE",
"96 0 OFFCURVE",
"224 0 CURVE",
"2880 0 LINE",
"2976 0 OFFCURVE",
"3072 96 OFFCURVE",
"3072 192 CURVE",
"3072 1856 LINE",
"3072 1952 OFFCURVE",
"2976 2048 OFFCURVE",
"2880 2048 CURVE"
);
},
{
closed = 1;
nodes = (
"128 256 LINE SMOOTH",
"128 1408 LINE SMOOTH",
"2944 1408 LINE SMOOTH",
"2944 256 LINE SMOOTH"
);
}
);
width = 3072;
}
);
unicode = E002;
},
{
glyphname = uniE003;
lastChange = "2013-02-06 08:20:28 +0000";
layers = (
{
layerId = "1371701D-5D17-46B8-86D4-7A7B37AF85DD";
name = Regular;
paths = (
{
closed = 1;
nodes = (
"3072 1952 OFFCURVE",
"2976 2048 OFFCURVE",
"2848 2048 CURVE SMOOTH",
"192 2048 LINE SMOOTH",
"64 2048 OFFCURVE",
"0 1952 OFFCURVE",
"0 1856 CURVE SMOOTH",
"0 192 LINE SMOOTH",
"0 96 OFFCURVE",
"64 0 OFFCURVE",
"192 0 CURVE SMOOTH",
"2848 0 LINE SMOOTH",
"2976 0 OFFCURVE",
"3072 96 OFFCURVE",
"3072 192 CURVE SMOOTH",
"3072 1856 LINE SMOOTH"
);
},
{
closed = 1;
nodes = (
"64 256 LINE",
"64 1472 LINE",
"3008 1472 LINE",
"3008 256 LINE"
);
}
);
width = 3072;
}
);
unicode = E003;
},
{
glyphname = uniE006;
lastChange = "2013-02-09 04:14:10 +0000";
layers = (
{
layerId = "1371701D-5D17-46B8-86D4-7A7B37AF85DD";
name = Regular;
paths = (
{
closed = 1;
nodes = (
"2405 375 OFFCURVE",
"2403 375 OFFCURVE",
"2397 373 CURVE SMOOTH",
"2394 370 OFFCURVE",
"2390 370 OFFCURVE",
"2389 372 CURVE",
"2388 373 OFFCURVE",
"2385 376 OFFCURVE",
"2382 377 CURVE SMOOTH",
"2379 378 OFFCURVE",
"2377 382 OFFCURVE",
"2377 387 CURVE SMOOTH",
"2377 392 OFFCURVE",
"2379 378 OFFCURVE",
"2376 386 CURVE SMOOTH",
"2373 397 OFFCURVE",
"2373 401 OFFCURVE",
"2375 401 CURVE SMOOTH",
"2377 401 OFFCURVE",
"2377 402 OFFCURVE",
"2374 404 CURVE SMOOTH",
"2369 407 OFFCURVE",
"2366 417 OFFCURVE",
"2363 439 CURVE SMOOTH",
"2363 442 OFFCURVE",
"2360 465 OFFCURVE",
"2356 490 CURVE SMOOTH",
"2353 514 OFFCURVE",
"2349 549 OFFCURVE",
"2348 566 CURVE SMOOTH",
"2344 637 OFFCURVE",
"2344 639 OFFCURVE",
"2333 646 CURVE SMOOTH",
"2327 649 OFFCURVE",
"2319 657 OFFCURVE",
"2314 662 CURVE SMOOTH",
"2308 670 OFFCURVE",
"2307 673 OFFCURVE",
"2308 685 CURVE SMOOTH",
"2309 693 OFFCURVE",
"2310 700 OFFCURVE",
"2310 702 CURVE SMOOTH",
"2310 706 OFFCURVE",
"2327 713 OFFCURVE",
"2335 711 CURVE SMOOTH",
"2344 709 OFFCURVE",
"2344 709 OFFCURVE",
"2348 733 CURVE SMOOTH",
"2349 738 OFFCURVE",
"2351 757 OFFCURVE",
"2353 774 CURVE SMOOTH",
"2354 792 OFFCURVE",
"2359 820 OFFCURVE",
"2362 837 CURVE SMOOTH",
"2366 854 OFFCURVE",
"2369 872 OFFCURVE",
"2370 876 CURVE SMOOTH",
"2371 891 OFFCURVE",
"2381 928 OFFCURVE",
"2384 929 CURVE SMOOTH",
"2385 930 OFFCURVE",
"2386 934 OFFCURVE",
"2386 938 CURVE SMOOTH",
"2386 955 OFFCURVE",
"2419 1024 OFFCURVE",
"2442 1054 CURVE SMOOTH",
"2451 1065 OFFCURVE",
"2464 1079 OFFCURVE",
"2471 1085 CURVE SMOOTH",
"2478 1090 OFFCURVE",
"2487 1099 OFFCURVE",
"2492 1104 CURVE SMOOTH",
"2496 1109 OFFCURVE",
"2506 1117 OFFCURVE",
"2514 1121 CURVE SMOOTH",
"2522 1125 OFFCURVE",
"2530 1129 OFFCURVE",
"2530 1130 CURVE",
"2531 1131 OFFCURVE",
"2540 1134 OFFCURVE",
"2551 1136 CURVE SMOOTH",
"2566 1139 OFFCURVE",
"2572 1139 OFFCURVE",
"2582 1136 CURVE SMOOTH",
"2588 1134 OFFCURVE",
"2597 1133 OFFCURVE",
"2600 1133 CURVE SMOOTH",
"2604 1133 OFFCURVE",
"2607 1131 OFFCURVE",
"2608 1130 CURVE SMOOTH",
"2608 1128 OFFCURVE",
"2619 1123 OFFCURVE",
"2632 1119 CURVE SMOOTH",
"2644 1115 OFFCURVE",
"2659 1109 OFFCURVE",
"2664 1107 CURVE SMOOTH",
"2669 1104 OFFCURVE",
"2676 1102 OFFCURVE",
"2681 1101 CURVE SMOOTH",
"2703 1096 OFFCURVE",
"2724 1068 OFFCURVE",
"2736 1024 CURVE SMOOTH",
"2744 994 OFFCURVE",
"2744 926 OFFCURVE",
"2736 888 CURVE SMOOTH",
"2723 830 OFFCURVE",
"2708 805 OFFCURVE",
"2650 746 CURVE SMOOTH",
"2585 679 OFFCURVE",
"2522 636 OFFCURVE",
"2482 631 CURVE SMOOTH",
"2473 630 OFFCURVE",
"2465 628 OFFCURVE",
"2464 627 CURVE SMOOTH",
"2461 622 OFFCURVE",
"2462 512 OFFCURVE",
"2466 482 CURVE SMOOTH",
"2470 443 OFFCURVE",
"2479 394 OFFCURVE",
"2481 392 CURVE SMOOTH",
"2485 389 OFFCURVE",
"2492 378 OFFCURVE",
"2491 375 CURVE SMOOTH",
"2488 371 OFFCURVE",
"2458 372 OFFCURVE",
"2453 377 CURVE SMOOTH",
"2450 380 OFFCURVE",
"2449 379 OFFCURVE",
"2445 375 CURVE SMOOTH",
"2442 370 OFFCURVE",
"2441 370 OFFCURVE",
"2440 374 CURVE SMOOTH",
"2438 378 OFFCURVE",
"2436 378 OFFCURVE",
"2432 376 CURVE SMOOTH",
"2429 374 OFFCURVE",
"2425 374 OFFCURVE",
"2424 375 CURVE SMOOTH",
"2423 376 OFFCURVE",
"2420 374 OFFCURVE",
"2418 371 CURVE SMOOTH",
"2415 366 OFFCURVE",
"2414 366 OFFCURVE",
"2409 371 CURVE SMOOTH"
);
},
{
closed = 1;
nodes = (
"2485 742 OFFCURVE",
"2492 746 OFFCURVE",
"2499 751 CURVE SMOOTH",
"2516 763 OFFCURVE",
"2574 823 OFFCURVE",
"2582 838 CURVE SMOOTH",
"2605 879 OFFCURVE",
"2614 907 OFFCURVE",
"2618 949 CURVE SMOOTH",
"2621 982 OFFCURVE",
"2611 1047 OFFCURVE",
"2604 1047 CURVE SMOOTH",
"2600 1047 OFFCURVE",
"2566 1011 OFFCURVE",
"2554 993 CURVE SMOOTH",
"2525 949 OFFCURVE",
"2503 893 OFFCURVE",
"2490 831 CURVE SMOOTH",
"2486 813 OFFCURVE",
"2482 797 OFFCURVE",
"2481 796 CURVE",
"2480 795 OFFCURVE",
"2478 784 OFFCURVE",
"2476 771 CURVE SMOOTH",
"2474 759 OFFCURVE",
"2471 745 OFFCURVE",
"2470 740 CURVE SMOOTH",
"2468 731 OFFCURVE",
"2469 731 OFFCURVE",
"2476 735 CURVE SMOOTH",
"2480 737 OFFCURVE",
"2484 740 OFFCURVE",
"2485 741 CURVE"
);
},
{
closed = 1;
nodes = (
"1720 565 OFFCURVE",
"1718 568 OFFCURVE",
"1717 596 CURVE SMOOTH",
"1716 621 OFFCURVE",
"1715 642 OFFCURVE",
"1714 643 CURVE",
"1713 644 OFFCURVE",
"1712 670 OFFCURVE",
"1711 700 CURVE SMOOTH",
"1710 730 OFFCURVE",
"1707 756 OFFCURVE",
"1706 756 CURVE SMOOTH",
"1704 757 OFFCURVE",
"1703 764 OFFCURVE",
"1703 773 CURVE",
"1703 782 OFFCURVE",
"1702 806 OFFCURVE",
"1701 808 CURVE",
"1699 810 OFFCURVE",
"1680 812 OFFCURVE",
"1649 813 CURVE SMOOTH",
"1602 815 OFFCURVE",
"1600 816 OFFCURVE",
"1594 823 CURVE SMOOTH",
"1584 834 OFFCURVE",
"1582 843 OFFCURVE",
"1586 857 CURVE SMOOTH",
"1590 871 OFFCURVE",
"1603 883 OFFCURVE",
"1615 883 CURVE SMOOTH",
"1619 883 OFFCURVE",
"1638 882 OFFCURVE",
"1658 881 CURVE SMOOTH",
"1694 879 LINE",
"1694 889 LINE SMOOTH",
"1694 895 OFFCURVE",
"1692 895 OFFCURVE",
"1691 910 CURVE SMOOTH",
"1689 924 OFFCURVE",
"1687 945 OFFCURVE",
"1686 956 CURVE SMOOTH",
"1685 967 OFFCURVE",
"1682 989 OFFCURVE",
"1680 1006 CURVE SMOOTH",
"1677 1023 OFFCURVE",
"1674 1053 OFFCURVE",
"1673 1072 CURVE SMOOTH",
"1671 1091 OFFCURVE",
"1668 1125 OFFCURVE",
"1666 1148 CURVE SMOOTH",
"1662 1199 OFFCURVE",
"1664 1301 OFFCURVE",
"1670 1319 CURVE SMOOTH",
"1677 1340 OFFCURVE",
"1681 1343 OFFCURVE",
"1706 1342 CURVE SMOOTH",
"1724 1342 OFFCURVE",
"1732 1340 OFFCURVE",
"1750 1332 CURVE SMOOTH",
"1804 1306 OFFCURVE",
"1807 1300 OFFCURVE",
"1800 1250 CURVE SMOOTH",
"1795 1217 OFFCURVE",
"1794 1146 OFFCURVE",
"1798 1097 CURVE SMOOTH",
"1799 1081 OFFCURVE",
"1801 1051 OFFCURVE",
"1802 1031 CURVE SMOOTH",
"1806 963 OFFCURVE",
"1807 954 OFFCURVE",
"1809 940 CURVE SMOOTH",
"1810 933 OFFCURVE",
"1813 921 OFFCURVE",
"1813 917 CURVE",
"1810 915 LINE",
"1810 920 OFFCURVE",
"1808 919 OFFCURVE",
"1807 913 CURVE SMOOTH",
"1805 894 OFFCURVE",
"1806 891 OFFCURVE",
"1811 893 CURVE",
"1822 881 LINE",
"1824 893 LINE SMOOTH",
"1826 903 OFFCURVE",
"1822 882 OFFCURVE",
"1822 883 CURVE SMOOTH",
"1826 895 OFFCURVE",
"1828 884 OFFCURVE",
"1832 886 CURVE SMOOTH",
"1842 890 OFFCURVE",
"1850 888 OFFCURVE",
"1856 880 CURVE SMOOTH",
"1858 877 OFFCURVE",
"1861 875 OFFCURVE",
"1862 876 CURVE SMOOTH",
"1863 877 OFFCURVE",
"1868 874 OFFCURVE",
"1872 870 CURVE SMOOTH",
"1875 866 OFFCURVE",
"1880 862 OFFCURVE",
"1883 862 CURVE SMOOTH",
"1885 862 OFFCURVE",
"1887 861 OFFCURVE",
"1887 860 CURVE",
"1887 856 OFFCURVE",
"1919 836 OFFCURVE",
"1929 830 CURVE SMOOTH",
"1933 827 OFFCURVE",
"1935 824 OFFCURVE",
"1933 824 CURVE SMOOTH",
"1930 824 OFFCURVE",
"1931 823 OFFCURVE",
"1934 819 CURVE SMOOTH",
"1941 813 OFFCURVE",
"1936 809 OFFCURVE",
"1921 809 CURVE SMOOTH",
"1916 809 OFFCURVE",
"1911 808 OFFCURVE",
"1910 806 CURVE SMOOTH",
"1909 804 OFFCURVE",
"1905 803 OFFCURVE",
"1901 803 CURVE SMOOTH",
"1898 803 OFFCURVE",
"1893 800 OFFCURVE",
"1890 796 CURVE SMOOTH",
"1886 793 OFFCURVE",
"1883 791 OFFCURVE",
"1882 793 CURVE SMOOTH",
"1881 795 OFFCURVE",
"1879 796 OFFCURVE",
"1878 796 CURVE SMOOTH",
"1877 795 OFFCURVE",
"1860 793 OFFCURVE",
"1839 792 CURVE SMOOTH",
"1819 791 OFFCURVE",
"1797 801 OFFCURVE",
"1795 799 CURVE SMOOTH",
"1790 795 OFFCURVE",
"1790 787 OFFCURVE",
"1794 787 CURVE SMOOTH",
"1795 787 OFFCURVE",
"1796 782 OFFCURVE",
"1796 775 CURVE SMOOTH",
"1796 768 OFFCURVE",
"1796 762 OFFCURVE",
"1798 761 CURVE SMOOTH",
"1799 760 OFFCURVE",
"1800 755 OFFCURVE",
"1800 750 CURVE SMOOTH",
"1800 741 OFFCURVE",
"1799 741 OFFCURVE",
"1797 746 CURVE SMOOTH",
"1795 750 OFFCURVE",
"1795 737 OFFCURVE",
"1796 711 CURVE SMOOTH",
"1797 688 OFFCURVE",
"1798 648 OFFCURVE",
"1799 622 CURVE SMOOTH",
"1799 596 OFFCURVE",
"1801 587 OFFCURVE",
"1802 583 CURVE SMOOTH",
"1803 578 OFFCURVE",
"1802 576 OFFCURVE",
"1798 577 CURVE SMOOTH",
"1795 577 OFFCURVE",
"1790 577 OFFCURVE",
"1788 576 CURVE SMOOTH",
"1778 571 OFFCURVE",
"1768 569 OFFCURVE",
"1753 570 CURVE SMOOTH",
"1740 570 OFFCURVE",
"1737 569 OFFCURVE",
"1737 565 CURVE SMOOTH",
"1737 562 OFFCURVE",
"1735 561 OFFCURVE",
"1732 562 CURVE SMOOTH",
"1730 563 OFFCURVE",
"1727 563 OFFCURVE",
"1727 561 CURVE",
"1726 559 OFFCURVE",
"1724 559 OFFCURVE",
"1722 562 CURVE SMOOTH"
);
},
{
closed = 1;
nodes = (
"815 600 OFFCURVE",
"809 615 OFFCURVE",
"805 632 CURVE SMOOTH",
"797 660 OFFCURVE",
"789 683 OFFCURVE",
"784 686 CURVE SMOOTH",
"782 688 OFFCURVE",
"760 753 OFFCURVE",
"760 758 CURVE SMOOTH",
"760 760 OFFCURVE",
"755 779 OFFCURVE",
"748 800 CURVE SMOOTH",
"741 821 OFFCURVE",
"734 844 OFFCURVE",
"733 852 CURVE SMOOTH",
"730 865 OFFCURVE",
"727 880 OFFCURVE",
"711 942 CURVE SMOOTH",
"699 989 OFFCURVE",
"698 975 OFFCURVE",
"690 792 CURVE SMOOTH",
"686 698 OFFCURVE",
"685 689 OFFCURVE",
"672 660 CURVE SMOOTH",
"668 649 OFFCURVE",
"667 649 OFFCURVE",
"653 648 CURVE SMOOTH",
"635 648 OFFCURVE",
"624 647 OFFCURVE",
"592 642 CURVE SMOOTH",
"560 638 OFFCURVE",
"553 638 OFFCURVE",
"544 644 CURVE SMOOTH",
"536 649 OFFCURVE",
"502 698 OFFCURVE",
"441 798 CURVE SMOOTH",
"434 811 OFFCURVE",
"434 807 OFFCURVE",
"443 742 CURVE SMOOTH",
"454 667 OFFCURVE",
"454 665 OFFCURVE",
"434 653 CURVE SMOOTH",
"418 643 OFFCURVE",
"360 628 OFFCURVE",
"345 630 CURVE SMOOTH",
"324 633 OFFCURVE",
"315 646 OFFCURVE",
"312 676 CURVE SMOOTH",
"310 695 OFFCURVE",
"306 781 OFFCURVE",
"302 793 CURVE SMOOTH",
"300 799 OFFCURVE",
"302 977 OFFCURVE",
"302 1057 CURVE",
"302 1064 LINE",
"309 1071 LINE",
"315 1073 OFFCURVE",
"327 1076 OFFCURVE",
"335 1079 CURVE SMOOTH",
"344 1082 OFFCURVE",
"360 1084 OFFCURVE",
"386 1084 CURVE SMOOTH",
"423 1084 OFFCURVE",
"424 1084 OFFCURVE",
"431 1076 CURVE SMOOTH",
"440 1066 OFFCURVE",
"470 1031 OFFCURVE",
"510 953 CURVE SMOOTH",
"559 856 OFFCURVE",
"558 859 OFFCURVE",
"559 866 CURVE SMOOTH",
"559 869 OFFCURVE",
"559 874 OFFCURVE",
"560 878 CURVE SMOOTH",
"562 906 OFFCURVE",
"566 936 OFFCURVE",
"570 959 CURVE SMOOTH",
"586 1032 OFFCURVE",
"595 1070 OFFCURVE",
"600 1074 CURVE SMOOTH",
"602 1077 OFFCURVE",
"604 1080 OFFCURVE",
"604 1082 CURVE SMOOTH",
"604 1086 OFFCURVE",
"628 1152 OFFCURVE",
"641 1183 CURVE SMOOTH",
"650 1204 OFFCURVE",
"653 1205 OFFCURVE",
"698 1203 CURVE SMOOTH",
"769 1199 OFFCURVE",
"767 1200 OFFCURVE",
"784 1178 CURVE SMOOTH",
"792 1168 OFFCURVE",
"809 1112 OFFCURVE",
"809 1095 CURVE SMOOTH",
"809 1092 OFFCURVE",
"813 1077 OFFCURVE",
"818 1062 CURVE SMOOTH",
"827 1035 OFFCURVE",
"837 993 OFFCURVE",
"845 953 CURVE SMOOTH",
"847 942 OFFCURVE",
"852 920 OFFCURVE",
"855 904 CURVE SMOOTH",
"859 888 OFFCURVE",
"863 866 OFFCURVE",
"865 855 CURVE SMOOTH",
"868 833 OFFCURVE",
"869 827 OFFCURVE",
"883 783 CURVE SMOOTH",
"895 743 OFFCURVE",
"899 724 OFFCURVE",
"896 716 CURVE SMOOTH",
"895 712 OFFCURVE",
"896 711 OFFCURVE",
"898 712 CURVE SMOOTH",
"900 713 OFFCURVE",
"901 712 OFFCURVE",
"901 710 CURVE SMOOTH",
"902 696 OFFCURVE",
"904 691 OFFCURVE",
"907 690 CURVE SMOOTH",
"909 689 OFFCURVE",
"910 688 OFFCURVE",
"908 686 CURVE SMOOTH",
"907 684 OFFCURVE",
"909 678 OFFCURVE",
"911 672 CURVE SMOOTH",
"916 659 OFFCURVE",
"929 621 OFFCURVE",
"929 618 CURVE SMOOTH",
"929 615 OFFCURVE",
"916 622 OFFCURVE",
"912 628 CURVE SMOOTH",
"909 631 OFFCURVE",
"909 629 OFFCURVE",
"909 621 CURVE SMOOTH",
"909 609 OFFCURVE",
"908 608 OFFCURVE",
"902 613 CURVE SMOOTH",
"900 616 OFFCURVE",
"898 616 OFFCURVE",
"898 614 CURVE SMOOTH",
"898 612 OFFCURVE",
"895 609 OFFCURVE",
"890 607 CURVE SMOOTH",
"885 605 OFFCURVE",
"883 605 OFFCURVE",
"883 607 CURVE SMOOTH",
"883 609 OFFCURVE",
"881 609 OFFCURVE",
"879 608 CURVE SMOOTH",
"877 606 OFFCURVE",
"871 605 OFFCURVE",
"866 605 CURVE SMOOTH",
"862 605 OFFCURVE",
"857 603 OFFCURVE",
"856 602 CURVE SMOOTH",
"855 600 OFFCURVE",
"849 599 OFFCURVE",
"843 599 CURVE SMOOTH",
"837 598 OFFCURVE",
"830 597 OFFCURVE",
"828 596 CURVE SMOOTH",
"825 595 OFFCURVE",
"821 596 OFFCURVE",
"818 598 CURVE SMOOTH"
);
},
{
closed = 1;
nodes = (
"1045 588 OFFCURVE",
"1009 602 OFFCURVE",
"1004 614 CURVE SMOOTH",
"1003 617 OFFCURVE",
"1000 618 OFFCURVE",
"997 617 CURVE SMOOTH",
"995 616 OFFCURVE",
"993 617 OFFCURVE",
"994 618 CURVE SMOOTH",
"996 621 OFFCURVE",
"982 632 OFFCURVE",
"974 632 CURVE SMOOTH",
"969 633 OFFCURVE",
"946 663 OFFCURVE",
"937 678 CURVE SMOOTH",
"922 701 OFFCURVE",
"920 717 OFFCURVE",
"919 804 CURVE SMOOTH",
"919 857 OFFCURVE",
"920 888 OFFCURVE",
"922 892 CURVE SMOOTH",
"923 896 OFFCURVE",
"926 913 OFFCURVE",
"927 930 CURVE SMOOTH",
"928 949 OFFCURVE",
"931 966 OFFCURVE",
"933 971 CURVE SMOOTH",
"936 977 OFFCURVE",
"938 983 OFFCURVE",
"938 985 CURVE SMOOTH",
"938 992 OFFCURVE",
"954 1030 OFFCURVE",
"961 1039 CURVE SMOOTH",
"964 1044 OFFCURVE",
"970 1051 OFFCURVE",
"973 1054 CURVE SMOOTH",
"977 1058 OFFCURVE",
"984 1066 OFFCURVE",
"989 1073 CURVE SMOOTH",
"997 1084 OFFCURVE",
"1018 1101 OFFCURVE",
"1044 1118 CURVE SMOOTH",
"1051 1123 OFFCURVE",
"1057 1128 OFFCURVE",
"1057 1130 CURVE SMOOTH",
"1057 1131 OFFCURVE",
"1062 1135 OFFCURVE",
"1067 1138 CURVE SMOOTH",
"1076 1143 OFFCURVE",
"1087 1142 OFFCURVE",
"1126 1137 CURVE SMOOTH",
"1135 1136 OFFCURVE",
"1147 1135 OFFCURVE",
"1153 1135 CURVE SMOOTH",
"1160 1135 OFFCURVE",
"1163 1134 OFFCURVE",
"1161 1132 CURVE SMOOTH",
"1155 1129 OFFCURVE",
"1159 1127 OFFCURVE",
"1180 1124 CURVE SMOOTH",
"1193 1122 OFFCURVE",
"1201 1119 OFFCURVE",
"1205 1114 CURVE SMOOTH",
"1219 1100 OFFCURVE",
"1225 1063 OFFCURVE",
"1232 964 CURVE SMOOTH",
"1236 905 OFFCURVE",
"1236 883 OFFCURVE",
"1232 870 CURVE SMOOTH",
"1230 864 OFFCURVE",
"1228 851 OFFCURVE",
"1227 841 CURVE SMOOTH",
"1224 814 OFFCURVE",
"1223 812 OFFCURVE",
"1201 810 CURVE SMOOTH",
"1175 808 OFFCURVE",
"1101 813 OFFCURVE",
"1073 818 CURVE SMOOTH",
"1060 821 OFFCURVE",
"1049 822 OFFCURVE",
"1048 822 CURVE SMOOTH",
"1048 821 OFFCURVE",
"1046 808 OFFCURVE",
"1045 792 CURVE SMOOTH",
"1040 732 OFFCURVE",
"1054 681 OFFCURVE",
"1086 653 CURVE SMOOTH",
"1104 637 OFFCURVE",
"1114 633 OFFCURVE",
"1129 635 CURVE SMOOTH",
"1154 639 OFFCURVE",
"1174 646 OFFCURVE",
"1188 654 CURVE SMOOTH",
"1202 662 LINE",
"1223 657 LINE SMOOTH",
"1234 654 OFFCURVE",
"1246 652 OFFCURVE",
"1248 652 CURVE SMOOTH",
"1251 652 OFFCURVE",
"1253 651 OFFCURVE",
"1253 649 CURVE SMOOTH",
"1253 647 OFFCURVE",
"1256 646 OFFCURVE",
"1259 646 CURVE SMOOTH",
"1268 646 OFFCURVE",
"1275 643 OFFCURVE",
"1275 638 CURVE SMOOTH",
"1275 636 OFFCURVE",
"1277 634 OFFCURVE",
"1279 634 CURVE SMOOTH",
"1282 634 OFFCURVE",
"1287 630 OFFCURVE",
"1291 626 CURVE SMOOTH",
"1299 619 LINE",
"1272 609 LINE SMOOTH",
"1258 604 OFFCURVE",
"1244 598 OFFCURVE",
"1243 597 CURVE SMOOTH",
"1241 595 OFFCURVE",
"1228 593 OFFCURVE",
"1215 591 CURVE SMOOTH",
"1202 590 OFFCURVE",
"1184 587 OFFCURVE",
"1175 585 CURVE SMOOTH",
"1155 580 OFFCURVE",
"1110 579 OFFCURVE",
"1087 582 CURVE SMOOTH"
);
},
{
closed = 1;
nodes = (
"1142 982 OFFCURVE",
"1140 1009 OFFCURVE",
"1139 1013 CURVE SMOOTH",
"1137 1020 OFFCURVE",
"1117 1016 OFFCURVE",
"1110 1004 CURVE SMOOTH",
"1096 983 OFFCURVE",
"1084 951 OFFCURVE",
"1076 917 CURVE SMOOTH",
"1069 889 OFFCURVE",
"1068 891 OFFCURVE",
"1111 883 CURVE SMOOTH",
"1122 881 OFFCURVE",
"1144 897 OFFCURVE",
"1143 954 CURVE SMOOTH"
);
},
{
closed = 1;
nodes = (
"1489 562 OFFCURVE",
"1485 563 OFFCURVE",
"1471 563 CURVE SMOOTH",
"1460 563 OFFCURVE",
"1438 566 OFFCURVE",
"1423 569 CURVE SMOOTH",
"1408 573 OFFCURVE",
"1392 586 OFFCURVE",
"1388 587 CURVE SMOOTH",
"1376 588 OFFCURVE",
"1375 588 OFFCURVE",
"1378 592 CURVE SMOOTH",
"1379 594 OFFCURVE",
"1379 595 OFFCURVE",
"1377 593 CURVE SMOOTH",
"1375 592 OFFCURVE",
"1364 596 OFFCURVE",
"1352 602 CURVE SMOOTH",
"1332 613 OFFCURVE",
"1314 662 OFFCURVE",
"1302 686 CURVE SMOOTH",
"1300 690 OFFCURVE",
"1293 700 OFFCURVE",
"1287 707 CURVE SMOOTH",
"1271 727 OFFCURVE",
"1269 736 OFFCURVE",
"1269 784 CURVE SMOOTH",
"1269 807 OFFCURVE",
"1267 827 OFFCURVE",
"1266 828 CURVE SMOOTH",
"1262 830 OFFCURVE",
"1265 867 OFFCURVE",
"1270 871 CURVE SMOOTH",
"1274 874 OFFCURVE",
"1280 897 OFFCURVE",
"1289 943 CURVE SMOOTH",
"1292 957 OFFCURVE",
"1299 980 OFFCURVE",
"1304 995 CURVE SMOOTH",
"1310 1009 OFFCURVE",
"1315 1022 OFFCURVE",
"1315 1024 CURVE SMOOTH",
"1315 1029 OFFCURVE",
"1344 1102 OFFCURVE",
"1349 1106 CURVE SMOOTH",
"1351 1108 OFFCURVE",
"1354 1111 OFFCURVE",
"1358 1117 CURVE SMOOTH",
"1370 1133 OFFCURVE",
"1387 1137 OFFCURVE",
"1390 1137 CURVE SMOOTH",
"1393 1137 OFFCURVE",
"1414 1145 OFFCURVE",
"1421 1145 CURVE SMOOTH",
"1432 1146 OFFCURVE",
"1467 1149 OFFCURVE",
"1482 1139 CURVE SMOOTH",
"1486 1136 OFFCURVE",
"1492 1134 OFFCURVE",
"1496 1134 CURVE SMOOTH",
"1500 1134 OFFCURVE",
"1511 1130 OFFCURVE",
"1520 1125 CURVE SMOOTH",
"1529 1120 OFFCURVE",
"1539 1116 OFFCURVE",
"1542 1116 CURVE SMOOTH",
"1551 1116 OFFCURVE",
"1566 1106 OFFCURVE",
"1570 1096 CURVE SMOOTH",
"1575 1085 OFFCURVE",
"1576 1088 OFFCURVE",
"1573 1048 CURVE SMOOTH",
"1572 1032 OFFCURVE",
"1570 1024 OFFCURVE",
"1568 1026 CURVE SMOOTH",
"1567 1029 OFFCURVE",
"1566 1019 OFFCURVE",
"1566 1003 CURVE SMOOTH",
"1566 986 OFFCURVE",
"1565 977 OFFCURVE",
"1563 978 CURVE SMOOTH",
"1561 979 OFFCURVE",
"1559 977 OFFCURVE",
"1559 973 CURVE SMOOTH",
"1559 969 OFFCURVE",
"1558 962 OFFCURVE",
"1558 958 CURVE SMOOTH",
"1558 954 OFFCURVE",
"1557 948 OFFCURVE",
"1556 946 CURVE SMOOTH",
"1551 935 OFFCURVE",
"1546 790 OFFCURVE",
"1550 790 CURVE SMOOTH",
"1552 790 OFFCURVE",
"1553 788 OFFCURVE",
"1553 786 CURVE SMOOTH",
"1553 783 OFFCURVE",
"1551 781 OFFCURVE",
"1548 781 CURVE SMOOTH",
"1544 781 OFFCURVE",
"1538 779 OFFCURVE",
"1533 777 CURVE SMOOTH",
"1528 775 OFFCURVE",
"1523 774 OFFCURVE",
"1522 775 CURVE SMOOTH",
"1520 775 OFFCURVE",
"1514 773 OFFCURVE",
"1507 770 CURVE SMOOTH",
"1494 765 OFFCURVE",
"1466 782 OFFCURVE",
"1449 786 CURVE SMOOTH",
"1443 788 OFFCURVE",
"1433 790 OFFCURVE",
"1426 791 CURVE SMOOTH",
"1420 792 OFFCURVE",
"1408 794 OFFCURVE",
"1399 795 CURVE SMOOTH",
"1391 797 OFFCURVE",
"1384 797 OFFCURVE",
"1383 796 CURVE SMOOTH",
"1383 795 OFFCURVE",
"1381 785 OFFCURVE",
"1380 774 CURVE SMOOTH",
"1377 740 OFFCURVE",
"1395 671 OFFCURVE",
"1428 637 CURVE SMOOTH",
"1453 614 OFFCURVE",
"1480 609 OFFCURVE",
"1526 623 CURVE SMOOTH",
"1557 632 OFFCURVE",
"1566 636 OFFCURVE",
"1566 642 CURVE SMOOTH",
"1566 649 OFFCURVE",
"1580 662 OFFCURVE",
"1587 660 CURVE SMOOTH",
"1613 655 OFFCURVE",
"1619 639 OFFCURVE",
"1617 628 CURVE SMOOTH",
"1616 625 OFFCURVE",
"1618 621 OFFCURVE",
"1621 619 CURVE SMOOTH",
"1625 616 OFFCURVE",
"1625 616 OFFCURVE",
"1618 611 CURVE SMOOTH",
"1603 599 OFFCURVE",
"1604 591 OFFCURVE",
"1584 585 CURVE SMOOTH",
"1573 581 OFFCURVE",
"1563 577 OFFCURVE",
"1563 576 CURVE SMOOTH",
"1561 573 OFFCURVE",
"1513 557 OFFCURVE",
"1494 557 CURVE SMOOTH",
"1485 557 OFFCURVE",
"1483 558 OFFCURVE",
"1486 560 CURVE SMOOTH"
);
},
{
closed = 1;
nodes = (
"1464 901 OFFCURVE",
"1468 964 OFFCURVE",
"1466 1007 CURVE",
"1454 1020 LINE",
"1442 1023 LINE",
"1428 994 OFFCURVE",
"1395 894 OFFCURVE",
"1395 881 CURVE SMOOTH",
"1395 872 OFFCURVE",
"1408 872 OFFCURVE",
"1431 870 CURVE SMOOTH",
"1438 870 OFFCURVE",
"1448 881 OFFCURVE",
"1451 881 CURVE SMOOTH",
"1454 880 OFFCURVE",
"1458 883 OFFCURVE",
"1459 887 CURVE SMOOTH"
);
},
{
closed = 1;
nodes = (
"2033 596 OFFCURVE",
"2020 612 OFFCURVE",
"2003 656 CURVE SMOOTH",
"1983 707 OFFCURVE",
"1966 827 OFFCURVE",
"1965 925 CURVE SMOOTH",
"1965 975 OFFCURVE",
"1983 983 OFFCURVE",
"2038 958 CURVE SMOOTH",
"2052 951 OFFCURVE",
"2065 945 OFFCURVE",
"2066 945 CURVE SMOOTH",
"2068 945 OFFCURVE",
"2072 943 OFFCURVE",
"2075 939 CURVE SMOOTH",
"2078 936 OFFCURVE",
"2082 933 OFFCURVE",
"2084 933 CURVE SMOOTH",
"2094 933 OFFCURVE",
"2096 920 OFFCURVE",
"2097 843 CURVE SMOOTH",
"2098 798 OFFCURVE",
"2099 766 OFFCURVE",
"2101 765 CURVE SMOOTH",
"2102 765 OFFCURVE",
"2104 753 OFFCURVE",
"2104 739 CURVE SMOOTH",
"2104 725 OFFCURVE",
"2105 710 OFFCURVE",
"2107 704 CURVE SMOOTH",
"2108 699 OFFCURVE",
"2108 695 OFFCURVE",
"2107 696 CURVE SMOOTH",
"2105 697 OFFCURVE",
"2105 692 OFFCURVE",
"2105 686 CURVE SMOOTH",
"2106 674 OFFCURVE",
"2108 669 OFFCURVE",
"2113 655 CURVE SMOOTH",
"2116 647 LINE",
"2130 661 LINE SMOOTH",
"2148 678 OFFCURVE",
"2176 721 OFFCURVE",
"2186 743 CURVE SMOOTH",
"2197 771 OFFCURVE",
"2202 802 OFFCURVE",
"2204 854 CURVE SMOOTH",
"2206 896 OFFCURVE",
"2205 903 OFFCURVE",
"2200 913 CURVE SMOOTH",
"2195 924 OFFCURVE",
"2195 925 OFFCURVE",
"2201 940 CURVE SMOOTH",
"2206 956 OFFCURVE",
"2218 967 OFFCURVE",
"2229 967 CURVE SMOOTH",
"2232 967 OFFCURVE",
"2246 961 OFFCURVE",
"2261 954 CURVE SMOOTH",
"2275 948 OFFCURVE",
"2288 942 OFFCURVE",
"2290 942 CURVE SMOOTH",
"2292 942 OFFCURVE",
"2294 939 OFFCURVE",
"2295 936 CURVE SMOOTH",
"2297 932 OFFCURVE",
"2299 930 OFFCURVE",
"2305 931 CURVE SMOOTH",
"2310 932 OFFCURVE",
"2313 931 OFFCURVE",
"2315 927 CURVE SMOOTH",
"2317 923 OFFCURVE",
"2320 921 OFFCURVE",
"2323 921 CURVE SMOOTH",
"2334 921 OFFCURVE",
"2333 875 OFFCURVE",
"2321 804 CURVE SMOOTH",
"2317 778 OFFCURVE",
"2315 773 OFFCURVE",
"2312 775 CURVE SMOOTH",
"2310 776 OFFCURVE",
"2309 775 OFFCURVE",
"2309 771 CURVE SMOOTH",
"2309 764 OFFCURVE",
"2300 743 OFFCURVE",
"2300 749 CURVE SMOOTH",
"2300 753 OFFCURVE",
"2299 752 OFFCURVE",
"2296 748 CURVE SMOOTH",
"2294 744 OFFCURVE",
"2291 740 OFFCURVE",
"2288 737 CURVE SMOOTH",
"2284 733 OFFCURVE",
"2284 734 OFFCURVE",
"2286 739 CURVE SMOOTH",
"2287 743 OFFCURVE",
"2287 746 OFFCURVE",
"2285 746 CURVE",
"2284 746 OFFCURVE",
"2279 736 OFFCURVE",
"2275 724 CURVE SMOOTH",
"2267 705 OFFCURVE",
"2243 662 OFFCURVE",
"2236 658 CURVE SMOOTH",
"2235 657 OFFCURVE",
"2230 651 OFFCURVE",
"2227 644 CURVE SMOOTH",
"2219 631 OFFCURVE",
"2216 630 OFFCURVE",
"2220 640 CURVE SMOOTH",
"2222 646 OFFCURVE",
"2222 647 OFFCURVE",
"2218 647 CURVE SMOOTH",
"2215 646 OFFCURVE",
"2213 644 OFFCURVE",
"2213 642 CURVE SMOOTH",
"2214 640 OFFCURVE",
"2212 637 OFFCURVE",
"2209 635 CURVE SMOOTH",
"2207 633 OFFCURVE",
"2204 629 OFFCURVE",
"2204 626 CURVE SMOOTH",
"2203 624 OFFCURVE",
"2201 619 OFFCURVE",
"2199 616 CURVE",
"2197 614 OFFCURVE",
"2196 611 OFFCURVE",
"2198 611 CURVE",
"2199 611 OFFCURVE",
"2196 609 OFFCURVE",
"2191 605 CURVE SMOOTH",
"2177 596 OFFCURVE",
"2154 591 OFFCURVE",
"2122 589 CURVE SMOOTH",
"2106 588 OFFCURVE",
"2088 586 OFFCURVE",
"2082 586 CURVE SMOOTH",
"2076 585 OFFCURVE",
"2066 586 OFFCURVE",
"2059 588 CURVE SMOOTH"
);
},
{
closed = 1;
nodes = (
"2201 622 OFFCURVE",
"2200 623 OFFCURVE",
"2197 622 CURVE SMOOTH",
"2192 620 OFFCURVE",
"2191 618 OFFCURVE",
"2195 618 CURVE SMOOTH",
"2197 618 OFFCURVE",
"2199 619 OFFCURVE",
"2200 621 CURVE SMOOTH"
);
},
{
closed = 1;
nodes = (
"1392 574 OFFCURVE",
"1393 574 OFFCURVE",
"1396 573 CURVE SMOOTH",
"1401 571 OFFCURVE",
"1402 569 OFFCURVE",
"1397 569 CURVE SMOOTH",
"1396 569 OFFCURVE",
"1394 570 OFFCURVE",
"1393 572 CURVE SMOOTH"
);
},
{
closed = 1;
nodes = (
"1557 939 OFFCURVE",
"1558 940 OFFCURVE",
"1559 937 CURVE SMOOTH",
"1560 935 OFFCURVE",
"1559 933 OFFCURVE",
"1558 931 CURVE",
"1557 930 OFFCURVE",
"1557 932 OFFCURVE",
"1557 936 CURVE SMOOTH"
);
}
);
width = 3072;
}
);
unicode = E006;
},
{
glyphname = uniE021;
lastChange = "2013-02-07 06:30:11 +0000";
layers = (
{
layerId = "1371701D-5D17-46B8-86D4-7A7B37AF85DD";
name = Regular;
paths = (
{
closed = 1;
nodes = (
"1664 1729 LINE",
"1664 1793 LINE SMOOTH",
"1664 1864 OFFCURVE",
"1607 1921 OFFCURVE",
"1536 1921 CURVE SMOOTH",
"1465 1921 OFFCURVE",
"1408 1864 OFFCURVE",
"1408 1793 CURVE SMOOTH",
"1408 1729 LINE",
"640 1729 LINE",
"640 1793 LINE SMOOTH",
"640 1864 OFFCURVE",
"583 1921 OFFCURVE",
"512 1921 CURVE SMOOTH",
"441 1921 OFFCURVE",
"384 1864 OFFCURVE",
"384 1793 CURVE SMOOTH",
"384 1729 LINE",
"256 1729 LINE SMOOTH",
"185 1729 OFFCURVE",
"128 1672 OFFCURVE",
"128 1601 CURVE SMOOTH",
"128 1471 LINE",
"256 1471 OFFCURVE",
"185 1471 OFFCURVE",
"256 1471 CURVE SMOOTH",
"1792 1471 LINE SMOOTH",
"1863 1471 OFFCURVE",
"1856 1471 OFFCURVE",
"1920 1471 CURVE",
"1920 1601 LINE SMOOTH",
"1920 1672 OFFCURVE",
"1863 1729 OFFCURVE",
"1792 1729 CURVE SMOOTH"
);
},
{
closed = 1;
nodes = (
"256 1407 LINE SMOOTH",
"185 1407 OFFCURVE",
"192 1407 OFFCURVE",
"128 1407 CURVE",
"128 255 LINE SMOOTH",
"128 184 OFFCURVE",
"185 127 OFFCURVE",
"256 127 CURVE SMOOTH",
"1792 127 LINE SMOOTH",
"1863 127 OFFCURVE",
"1920 184 OFFCURVE",
"1920 255 CURVE SMOOTH",
"1920 1407 LINE",
"1856 1407 OFFCURVE",
"1863 1407 OFFCURVE",
"1792 1407 CURVE SMOOTH"
);
},
{
closed = 1;
nodes = (
"256 255 LINE",
"256 511 LINE",
"512 511 LINE",
"512 255 LINE"
);
},
{
closed = 1;
nodes = (
"256 575 LINE",
"256 831 LINE",
"512 831 LINE",
"512 575 LINE"
);
},
{
closed = 1;
nodes = (
"256 895 LINE",
"256 1151 LINE",
"512 1151 LINE",
"512 895 LINE"
);
},
{
closed = 1;
nodes = (
"576 255 LINE",
"576 511 LINE",
"832 511 LINE",
"832 255 LINE"
);
},
{
closed = 1;
nodes = (
"576 575 LINE",
"576 831 LINE",
"832 831 LINE",
"832 575 LINE"
);
},
{
closed = 1;
nodes = (
"576 895 LINE",
"576 1151 LINE",
"832 1151 LINE",
"832 895 LINE"
);
},
{
closed = 1;
nodes = (
"896 255 LINE",
"896 511 LINE",
"1152 511 LINE",
"1152 255 LINE"
);
},
{
closed = 1;
nodes = (
"896 575 LINE",
"896 831 LINE",
"1152 831 LINE",
"1152 575 LINE"
);
},
{
closed = 1;
nodes = (
"896 895 LINE",
"896 1151 LINE",
"1152 1151 LINE",
"1152 895 LINE"
);
},
{
closed = 1;
nodes = (
"1216 255 LINE",
"1216 511 LINE",
"1472 511 LINE",
"1472 255 LINE"
);
},
{
closed = 1;
nodes = (
"1216 575 LINE",
"1216 831 LINE",
"1472 831 LINE",
"1472 575 LINE"
);
},
{
closed = 1;
nodes = (
"1216 895 LINE",
"1216 1151 LINE",
"1472 1151 LINE",
"1472 895 LINE"
);
},
{
closed = 1;
nodes = (
"1536 255 LINE",
"1536 511 LINE",
"1792 511 LINE",
"1792 255 LINE"
);
},
{
closed = 1;
nodes = (
"1536 575 LINE",
"1536 831 LINE",
"1792 831 LINE",
"1792 575 LINE"
);
},
{
closed = 1;
nodes = (
"1536 895 LINE",
"1536 1151 LINE",
"1792 1151 LINE",
"1792 895 LINE"
);
}
);
width = 2048;
}
);
unicode = E021;
},
{
glyphname = uniE025;
lastChange = "2013-02-13 09:23:50 +0000";
layers = (
{
layerId = "1371701D-5D17-46B8-86D4-7A7B37AF85DD";
name = Regular;
paths = (
{
closed = 1;
nodes = (
"457 2050 OFFCURVE",
"-2 1591 OFFCURVE",
"-2 1024 CURVE SMOOTH",
"-2 457 OFFCURVE",
"457 -2 OFFCURVE",
"1024 -2 CURVE SMOOTH",
"1591 -2 OFFCURVE",
"2050 457 OFFCURVE",
"2050 1024 CURVE SMOOTH",
"2050 1591 OFFCURVE",
"1591 2050 OFFCURVE",
"1024 2050 CURVE SMOOTH"
);
},
{
closed = 1;
nodes = (
"579 218 OFFCURVE",
"218 579 OFFCURVE",
"218 1024 CURVE SMOOTH",
"218 1469 OFFCURVE",
"579 1830 OFFCURVE",
"1024 1830 CURVE SMOOTH",
"1469 1830 OFFCURVE",
"1830 1469 OFFCURVE",
"1830 1024 CURVE SMOOTH",
"1830 579 OFFCURVE",
"1469 218 OFFCURVE",
"1024 218 CURVE SMOOTH"
);
},
{
closed = 1;
nodes = (
"1032 1537 LINE SMOOTH",
"992 1537 OFFCURVE",
"959 1504 OFFCURVE",
"959 1464 CURVE SMOOTH",
"959 1024 LINE",
"648 1024 LINE SMOOTH",
"608 1024 OFFCURVE",
"574 991 OFFCURVE",
"574 951 CURVE SMOOTH",
"574 844 LINE SMOOTH",
"574 803 OFFCURVE",
"608 770 OFFCURVE",
"648 770 CURVE SMOOTH",
"1032 770 LINE",
"1141 770 LINE SMOOTH",
"1181 770 OFFCURVE",
"1214 803 OFFCURVE",
"1214 844 CURVE SMOOTH",
"1214 951 LINE",
"1214 1464 LINE SMOOTH",
"1214 1504 OFFCURVE",
"1181 1537 OFFCURVE",
"1141 1537 CURVE SMOOTH"
);
}
);
width = 2048;
}
);
unicode = E025;
},
{
glyphname = uniE026;
lastChange = "2015-04-17 22:23:59 +0000";
layers = (
{
layerId = "1371701D-5D17-46B8-86D4-7A7B37AF85DD";
name = Regular;
paths = (
{
closed = 1;
nodes = (
"182 801 OFFCURVE",
"187 1277 OFFCURVE",
"480 1572 CURVE SMOOTH",
"600 1693 OFFCURVE",
"750 1765 OFFCURVE",
"906 1789 CURVE",
"898 2048 LINE",
"679 2022 OFFCURVE",
"467 1924 OFFCURVE",
"299 1755 CURVE SMOOTH",
"-95 1359 OFFCURVE",
"-99 720 OFFCURVE",
"283 315 CURVE",
"66 96 LINE",
"754 59 LINE",
"752 787 LINE",
"464 497 LINE"
);
},
{
closed = 1;
nodes = (
"1296 1262 LINE",
"1584 1552 LINE",
"1866 1248 OFFCURVE",
"1861 772 OFFCURVE",
"1568 477 CURVE SMOOTH",
"1448 356 OFFCURVE",
"1298 283 OFFCURVE",
"1142 260 CURVE",
"1150 1 LINE",
"1369 27 OFFCURVE",
"1581 125 OFFCURVE",
"1749 294 CURVE SMOOTH",
"2143 690 OFFCURVE",
"2147 1329 OFFCURVE",
"1765 1734 CURVE",
"1982 1953 LINE",
"1294 1990 LINE"
);
}
);
width = 2048;
}
);
unicode = E026;
},
{
glyphname = uniE041;
lastChange = "2013-02-13 07:39:04 +0000";
layers = (
{
layerId = "1371701D-5D17-46B8-86D4-7A7B37AF85DD";
name = Regular;
paths = (
{
closed = 1;
nodes = (
"569 2112 OFFCURVE",
"256 1742 OFFCURVE",
"256 1280 CURVE SMOOTH",
"256 867 OFFCURVE",
"973 -64 OFFCURVE",
"1024 -64 CURVE SMOOTH",
"1075 -64 OFFCURVE",
"1792 867 OFFCURVE",
"1792 1280 CURVE SMOOTH",
"1792 1752 OFFCURVE",
"1477 2112 OFFCURVE",
"1024 2112 CURVE SMOOTH"
);
},
{
closed = 1;
nodes = (
"882 1079 OFFCURVE",
"767 1194 OFFCURVE",
"767 1337 CURVE SMOOTH",
"767 1480 OFFCURVE",
"882 1595 OFFCURVE",
"1023 1595 CURVE SMOOTH",
"1164 1595 OFFCURVE",
"1279 1480 OFFCURVE",
"1279 1337 CURVE SMOOTH",
"1279 1194 OFFCURVE",
"1164 1079 OFFCURVE",
"1023 1079 CURVE SMOOTH"
);
}
);
width = 2048;
}
);
unicode = E041;
},
{
glyphname = uniE045;
lastChange = "2013-02-09 05:16:01 +0000";
layers = (
{
layerId = "1371701D-5D17-46B8-86D4-7A7B37AF85DD";
name = Regular;
paths = (
{
closed = 1;
nodes = (
"1857 1856 LINE",
"63 1024 LINE",
"1024 1024 LINE",
"1024 64 LINE"
);
}
);
width = 2048;
}
);
unicode = E045;
},
{
glyphname = uniE046;
lastChange = "2013-02-09 05:16:31 +0000";
layers = (
{
layerId = "1371701D-5D17-46B8-86D4-7A7B37AF85DD";
name = Regular;
paths = (
{
closed = 1;
nodes = (
"1088 353 LINE",
"1088 1024 LINE",
"1088 1088 LINE",
"1024 1088 LINE",
"353 1088 LINE",
"1724 1724 LINE"
);
},
{
closed = 1;
nodes = (
"64 1024 LINE",
"1024 1024 LINE",
"1024 64 LINE",
"1856 1856 LINE"
);
}
);
width = 2048;
}
);
unicode = E046;
},
{
glyphname = uniE047;
lastChange = "2013-02-06 10:07:53 +0000";
layers = (
{
layerId = "1371701D-5D17-46B8-86D4-7A7B37AF85DD";
name = Regular;
paths = (
{
closed = 1;
nodes = (
"797 1428 OFFCURVE",
"615 1246 OFFCURVE",
"615 1022 CURVE SMOOTH",
"616 798 OFFCURVE",
"798 616 OFFCURVE",
"1023 617 CURVE SMOOTH",
"1247 617 OFFCURVE",
"1429 799 OFFCURVE",
"1429 1023 CURVE SMOOTH",
"1428 1247 OFFCURVE",
"1246 1429 OFFCURVE",
"1021 1428 CURVE SMOOTH"
);
},
{
closed = 1;
nodes = (
"1804 1082 LINE",
"1775 1468 OFFCURVE",
"1465 1775 OFFCURVE",
"1078 1803 CURVE",
"1078 2046 LINE",
"962 2045 LINE",
"962 1803 LINE",
"576 1774 OFFCURVE",
"268 1465 OFFCURVE",
"240 1079 CURVE",
"-3 1078 LINE",
"-2 963 LINE",
"240 963 LINE",
"270 577 OFFCURVE",
"579 270 OFFCURVE",
"966 242 CURVE",
"966 -1 LINE",
"1082 0 LINE",
"1081 242 LINE",
"1468 271 OFFCURVE",
"1776 580 OFFCURVE",
"1804 966 CURVE",
"2047 967 LINE",
"2046 1082 LINE"
);
},
{
closed = 1;
nodes = (
"654 354 OFFCURVE",
"354 653 OFFCURVE",
"353 1021 CURVE SMOOTH",
"352 1389 OFFCURVE",
"652 1690 OFFCURVE",
"1021 1690 CURVE SMOOTH",
"1390 1691 OFFCURVE",
"1690 1392 OFFCURVE",
"1691 1024 CURVE SMOOTH",
"1692 656 OFFCURVE",
"1392 356 OFFCURVE",
"1023 355 CURVE SMOOTH"
);
}
);
width = 2048;
}
);
unicode = E047;
},
{
glyphname = uniE048;
lastChange = "2013-02-06 10:10:39 +0000";
layers = (
{
layerId = "1371701D-5D17-46B8-86D4-7A7B37AF85DD";
name = Regular;
paths = (
{
closed = 1;
nodes = (
"1804 1082 LINE",
"1775 1468 OFFCURVE",
"1465 1775 OFFCURVE",
"1079 1803 CURVE",
"1078 2045 LINE",
"962 2045 LINE",
"963 1803 LINE",
"576 1774 OFFCURVE",
"268 1465 OFFCURVE",
"240 1079 CURVE",
"-2 1078 LINE",
"-2 963 LINE",
"241 963 LINE",
"270 577 OFFCURVE",
"579 270 OFFCURVE",
"966 242 CURVE",
"966 -1 LINE",
"1082 0 LINE",
"1082 242 LINE",
"1468 271 OFFCURVE",
"1776 580 OFFCURVE",
"1804 966 CURVE",
"2047 967 LINE",
"2047 1082 LINE"
);
},
{
closed = 1;
nodes = (
"655 354 OFFCURVE",
"354 653 OFFCURVE",
"353 1021 CURVE SMOOTH",
"353 1389 OFFCURVE",
"652 1690 OFFCURVE",
"1021 1690 CURVE SMOOTH",
"1390 1691 OFFCURVE",
"1690 1392 OFFCURVE",
"1691 1024 CURVE SMOOTH",
"1692 656 OFFCURVE",
"1392 355 OFFCURVE",
"1023 355 CURVE SMOOTH"
);
}
);
width = 2048;
}
);
unicode = E048;
},
{
glyphname = uniE060;
lastChange = "2014-03-13 01:36:44 +0000";
layers = (
{
layerId = "1371701D-5D17-46B8-86D4-7A7B37AF85DD";
name = Regular;
paths = (
{
closed = 1;
nodes = (
"340.64 2048 LINE",
"340.647 683.533 LINE",
"0 682.667 LINE",
"512 0 LINE",
"1024 682.667 LINE",
"682.667 682.667 LINE",
"682.667 2048 LINE"
);
},
{
closed = 1;
nodes = (
"852.102 1793.01 LINE",
"852.102 1452.13 LINE",
"1900.17 1452.13 LINE SMOOTH",
"1974.8 1452.13 OFFCURVE",
"2048 1525.93 OFFCURVE",
"2048 1622.57 CURVE SMOOTH",
"2048 1719.34 OFFCURVE",
"1974.8 1793.01 OFFCURVE",
"1900.17 1793.01 CURVE SMOOTH"
);
},
{
closed = 1;
nodes = (
"1194.67 597.333 LINE",
"939.945 254.977 LINE",
"1876.33 254.986 LINE SMOOTH",
"1962.99 254.986 OFFCURVE",
"2048 328.738 OFFCURVE",
"2048 425.426 CURVE SMOOTH",
"2048 522.193 OFFCURVE",
"1963.99 597.333 OFFCURVE",
"1877.33 597.333 CURVE SMOOTH"
);
},
{
closed = 1;
nodes = (
"852.102 1195.68 LINE",
"852.102 854.8 LINE",
"1900.17 854.8 LINE SMOOTH",
"1974.8 854.8 OFFCURVE",
"2048 928.594 OFFCURVE",
"2048 1025.24 CURVE SMOOTH",
"2048 1122.01 OFFCURVE",
"1974.8 1195.68 OFFCURVE",
"1900.17 1195.68 CURVE SMOOTH"
);
}
);
width = 2048;
}
);
unicode = E060;
},
{
glyphname = uniE061;
lastChange = "2014-03-13 02:24:35 +0000";
layers = (
{
layerId = "1371701D-5D17-46B8-86D4-7A7B37AF85DD";
name = Regular;
paths = (
{
closed = 1;
nodes = (
"2134 1792 LINE SMOOTH",
"2228 1792 OFFCURVE",
"2304 1706 OFFCURVE",
"2304 1600 CURVE SMOOTH",
"2304 1494 OFFCURVE",
"2228 1408 OFFCURVE",
"2134 1408 CURVE SMOOTH",
"320 1408 LINE SMOOTH",
"214 1408 OFFCURVE",
"128 1494 OFFCURVE",
"128 1600 CURVE SMOOTH",
"128 1706 OFFCURVE",
"214 1792 OFFCURVE",
"320 1792 CURVE SMOOTH"
);
},
{
closed = 1;
nodes = (
"2134 1792 LINE SMOOTH",
"2228 1792 OFFCURVE",
"2304 1706 OFFCURVE",
"2304 1600 CURVE SMOOTH",
"2304 1494 OFFCURVE",
"2228 1408 OFFCURVE",
"2134 1408 CURVE SMOOTH",
"320 1408 LINE SMOOTH",
"214 1408 OFFCURVE",
"128 1494 OFFCURVE",
"128 1600 CURVE SMOOTH",
"128 1706 OFFCURVE",
"214 1792 OFFCURVE",
"320 1792 CURVE SMOOTH"
);
},
{
closed = 1;
nodes = (
"2134 512 LINE SMOOTH",
"2228 512 OFFCURVE",
"2304 426 OFFCURVE",
"2304 320 CURVE SMOOTH",
"2304 214 OFFCURVE",
"2228 128 OFFCURVE",
"2134 128 CURVE SMOOTH",
"320 128 LINE SMOOTH",
"214 128 OFFCURVE",
"128 214 OFFCURVE",
"128 320 CURVE SMOOTH",
"128 426 OFFCURVE",
"214 512 OFFCURVE",
"320 512 CURVE SMOOTH"
);
},
{
closed = 1;
nodes = (
"2134 512 LINE SMOOTH",
"2228 512 OFFCURVE",
"2304 426 OFFCURVE",
"2304 320 CURVE SMOOTH",
"2304 214 OFFCURVE",
"2228 128 OFFCURVE",
"2134 128 CURVE SMOOTH",
"320 128 LINE SMOOTH",
"214 128 OFFCURVE",
"128 214 OFFCURVE",
"128 320 CURVE SMOOTH",
"128 426 OFFCURVE",
"214 512 OFFCURVE",
"320 512 CURVE SMOOTH"
);
},
{
closed = 1;
nodes = (
"2134 1152 LINE SMOOTH",
"2228 1152 OFFCURVE",
"2304 1066 OFFCURVE",
"2304 960 CURVE SMOOTH",
"2304 854 OFFCURVE",
"2228 768 OFFCURVE",
"2134 768 CURVE SMOOTH",
"320 768 LINE SMOOTH",
"214 768 OFFCURVE",
"128 854 OFFCURVE",
"128 960 CURVE SMOOTH",
"128 1066 OFFCURVE",
"214 1152 OFFCURVE",
"320 1152 CURVE SMOOTH"
);
},
{
closed = 1;
nodes = (
"2134 1152 LINE SMOOTH",
"2228 1152 OFFCURVE",
"2304 1066 OFFCURVE",
"2304 960 CURVE SMOOTH",
"2304 854 OFFCURVE",
"2228 768 OFFCURVE",
"2134 768 CURVE SMOOTH",
"320 768 LINE SMOOTH",
"214 768 OFFCURVE",
"128 854 OFFCURVE",
"128 960 CURVE SMOOTH",
"128 1066 OFFCURVE",
"214 1152 OFFCURVE",
"320 1152 CURVE SMOOTH"
);
}
);
width = 2432;
}
);
unicode = E061;
},
{
glyphname = uniE063;
lastChange = "2013-02-13 05:45:09 +0000";
layers = (
{
layerId = "1371701D-5D17-46B8-86D4-7A7B37AF85DD";
name = Regular;
paths = (
{
closed = 1;
nodes = (
"1640 708 OFFCURVE",
"1639 709 OFFCURVE",
"1639 709 CURVE SMOOTH",
"1732 837 OFFCURVE",
"1790 994 OFFCURVE",
"1790 1164 CURVE",
"1790 1588 OFFCURVE",
"1445 1932 OFFCURVE",
"1021 1932 CURVE",
"597 1932 OFFCURVE",
"253 1588 OFFCURVE",
"253 1164 CURVE",
"253 740 OFFCURVE",
"597 396 OFFCURVE",
"1021 396 CURVE",
"1182 396 OFFCURVE",
"1331 445 OFFCURVE",
"1455 531 CURVE SMOOTH",
"1455 531 OFFCURVE",
"1560 427 OFFCURVE",
"1822 165 CURVE",
"1846 141 OFFCURVE",
"1878 128 OFFCURVE",
"1911 128 CURVE SMOOTH",
"1944 128 OFFCURVE",
"1977 140 OFFCURVE",
"2002 165 CURVE",
"2026 188 OFFCURVE",
"2038 219 OFFCURVE",
"2039 250 CURVE SMOOTH",
"2040 285 OFFCURVE",
"2028 320 OFFCURVE",
"2002 346 CURVE"
);
},
{
closed = 1;
nodes = (
"738 652 OFFCURVE",
"509 881 OFFCURVE",
"509 1164 CURVE",
"509 1447 OFFCURVE",
"738 1676 OFFCURVE",
"1021 1676 CURVE",
"1303 1676 OFFCURVE",
"1533 1447 OFFCURVE",
"1533 1164 CURVE",
"1533 881 OFFCURVE",
"1303 652 OFFCURVE",
"1021 652 CURVE"
);
}
);
width = 2048;
}
);
unicode = E063;
},
{
glyphname = uniE064;
lastChange = "2013-09-28 00:07:38 +0000";
layers = (
{
layerId = "1371701D-5D17-46B8-86D4-7A7B37AF85DD";
name = Regular;
paths = (
{
closed = 1;
nodes = (
"1875 1182 LINE SMOOTH",
"1832 1182 OFFCURVE",
"1786 1215 OFFCURVE",
"1773 1257 CURVE",
"1718 1389 LINE",
"1698 1427 OFFCURVE",
"1706 1483 OFFCURVE",
"1737 1514 CURVE SMOOTH",
"1804 1581 LINE SMOOTH",
"1835 1612 OFFCURVE",
"1835 1662 OFFCURVE",
"1804 1692 CURVE SMOOTH",
"1692 1804 LINE SMOOTH",
"1662 1834 OFFCURVE",
"1612 1834 OFFCURVE",
"1581 1804 CURVE SMOOTH",
"1514 1737 LINE SMOOTH",
"1483 1706 OFFCURVE",
"1427 1698 OFFCURVE",
"1389 1718 CURVE",
"1257 1773 LINE",
"1216 1785 OFFCURVE",
"1182 1831 OFFCURVE",
"1182 1875 CURVE SMOOTH",
"1182 1969 LINE SMOOTH",
"1182 2013 OFFCURVE",
"1146 2048 OFFCURVE",
"1103 2048 CURVE SMOOTH",
"945 2048 LINE SMOOTH",
"902 2048 OFFCURVE",
"866 2013 OFFCURVE",
"866 1969 CURVE SMOOTH",
"866 1875 LINE SMOOTH",
"866 1831 OFFCURVE",
"833 1785 OFFCURVE",
"791 1773 CURVE",
"659 1718 LINE",
"621 1698 OFFCURVE",
"565 1706 OFFCURVE",
"534 1737 CURVE SMOOTH",
"467 1804 LINE SMOOTH",
"436 1834 OFFCURVE",
"386 1834 OFFCURVE",
"356 1804 CURVE SMOOTH",
"244 1692 LINE SMOOTH",
"214 1662 OFFCURVE",
"214 1612 OFFCURVE",
"244 1581 CURVE SMOOTH",
"311 1514 LINE SMOOTH",
"342 1483 OFFCURVE",
"350 1427 OFFCURVE",
"330 1389 CURVE",
"276 1257 LINE",
"263 1215 OFFCURVE",
"217 1182 OFFCURVE",
"173 1182 CURVE SMOOTH",
"79 1182 LINE SMOOTH",
"35 1182 OFFCURVE",
"0 1146 OFFCURVE",
"0 1103 CURVE SMOOTH",
"0 945 LINE SMOOTH",
"0 902 OFFCURVE",
"35 867 OFFCURVE",
"79 867 CURVE SMOOTH",
"173 867 LINE SMOOTH",
"217 866 OFFCURVE",
"263 833 OFFCURVE",
"275 791 CURVE",
"330 659 LINE",
"350 621 OFFCURVE",
"342 565 OFFCURVE",
"311 534 CURVE SMOOTH",
"244 467 LINE SMOOTH",
"214 436 OFFCURVE",
"214 386 OFFCURVE",
"244 356 CURVE SMOOTH",
"356 244 LINE SMOOTH",
"386 214 OFFCURVE",
"436 214 OFFCURVE",
"467 244 CURVE SMOOTH",
"534 311 LINE SMOOTH",
"565 342 OFFCURVE",
"621 350 OFFCURVE",
"659 330 CURVE",
"791 275 LINE",
"833 262 OFFCURVE",
"866 216 OFFCURVE",
"866 173 CURVE SMOOTH",
"866 79 LINE SMOOTH",
"866 36 OFFCURVE",
"902 0 OFFCURVE",
"945 0 CURVE SMOOTH",
"1103 0 LINE SMOOTH",
"1146 0 OFFCURVE",
"1182 36 OFFCURVE",
"1182 79 CURVE SMOOTH",
"1182 173 LINE SMOOTH",
"1182 216 OFFCURVE",
"1216 262 OFFCURVE",
"1257 275 CURVE",
"1389 330 LINE",
"1427 350 OFFCURVE",
"1484 342 OFFCURVE",
"1514 311 CURVE SMOOTH",
"1581 244 LINE SMOOTH",
"1612 214 OFFCURVE",
"1662 214 OFFCURVE",
"1692 244 CURVE SMOOTH",
"1804 356 LINE SMOOTH",
"1835 386 OFFCURVE",
"1835 436 OFFCURVE",
"1804 467 CURVE SMOOTH",
"1737 534 LINE SMOOTH",
"1706 565 OFFCURVE",
"1698 621 OFFCURVE",
"1718 659 CURVE",
"1773 791 LINE",
"1786 833 OFFCURVE",
"1832 866 OFFCURVE",
"1875 866 CURVE SMOOTH",
"1969 866 LINE SMOOTH",
"2013 866 OFFCURVE",
"2048 902 OFFCURVE",
"2048 945 CURVE SMOOTH",
"2048 1103 LINE SMOOTH",
"2048 1146 OFFCURVE",
"2013 1182 OFFCURVE",
"1969 1182 CURVE SMOOTH"
);
},
{
closed = 1;
nodes = (
"1418 807 OFFCURVE",
"1242 630 OFFCURVE",
"1024 630 CURVE SMOOTH",
"807 630 OFFCURVE",
"630 807 OFFCURVE",
"630 1024 CURVE SMOOTH",
"630 1242 OFFCURVE",
"807 1418 OFFCURVE",
"1024 1418 CURVE SMOOTH",
"1242 1418 OFFCURVE",
"1418 1242 OFFCURVE",
"1418 1024 CURVE SMOOTH"
);
}
);
width = 2048;
}
);
unicode = E064;
},
{
glyphname = uniE065;
lastChange = "2013-02-13 06:27:34 +0000";
layers = (
{
layerId = "1371701D-5D17-46B8-86D4-7A7B37AF85DD";
name = Regular;
paths = (
{
closed = 1;
nodes = (
"1280 1482 LINE",
"1506 1384 OFFCURVE",
"1664 1158 OFFCURVE",
"1664 896 CURVE SMOOTH",
"1664 543 OFFCURVE",
"1378 256 OFFCURVE",
"1024 256 CURVE SMOOTH",
"671 256 OFFCURVE",
"384 543 OFFCURVE",
"384 896 CURVE SMOOTH",
"384 1158 OFFCURVE",
"542 1384 OFFCURVE",
"768 1482 CURVE",
"768 1754 LINE",
"398 1644 OFFCURVE",
"128 1302 OFFCURVE",
"128 896 CURVE SMOOTH",
"128 401 OFFCURVE",
"529 0 OFFCURVE",
"1024 0 CURVE SMOOTH",
"1519 0 OFFCURVE",
"1920 401 OFFCURVE",
"1920 896 CURVE SMOOTH",
"1920 1302 OFFCURVE",
"1650 1644 OFFCURVE",
"1280 1754 CURVE"
);
},
{
closed = 1;
nodes = (
"1150 1081 OFFCURVE",
"1093 1024 OFFCURVE",
"1022 1024 CURVE SMOOTH",
"1022 1024 LINE SMOOTH",
"951 1024 OFFCURVE",
"894 1081 OFFCURVE",
"894 1152 CURVE SMOOTH",
"894 1920 LINE SMOOTH",
"894 1991 OFFCURVE",
"951 2048 OFFCURVE",
"1022 2048 CURVE",
"1022 2048 LINE",
"1093 2048 OFFCURVE",
"1150 1991 OFFCURVE",
"1150 1920 CURVE SMOOTH",
"1150 1152 LINE SMOOTH"
);
}
);
width = 2048;
}
);
unicode = E065;
},
{
glyphname = uniE066;
lastChange = "2013-02-13 05:56:05 +0000";
layers = (
{
layerId = "1371701D-5D17-46B8-86D4-7A7B37AF85DD";
name = Regular;
paths = (
{
closed = 1;
nodes = (
"1216 1920 LINE SMOOTH",
"1251 1920 OFFCURVE",
"1280 1891 OFFCURVE",
"1280 1856 CURVE SMOOTH",
"1280 1472 LINE SMOOTH",
"1280 1437 OFFCURVE",
"1251 1408 OFFCURVE",
"1216 1408 CURVE SMOOTH",
"832 1408 LINE SMOOTH",
"797 1408 OFFCURVE",
"768 1437 OFFCURVE",
"768 1472 CURVE SMOOTH",
"768 1856 LINE SMOOTH",
"768 1891 OFFCURVE",
"797 1920 OFFCURVE",
"832 1920 CURVE SMOOTH"
);
},
{
closed = 1;
nodes = (
"1216 512 LINE SMOOTH",
"1251 512 OFFCURVE",
"1280 483 OFFCURVE",
"1280 448 CURVE SMOOTH",
"1280 64 LINE SMOOTH",
"1280 29 OFFCURVE",
"1251 0 OFFCURVE",
"1216 0 CURVE SMOOTH",
"832 0 LINE SMOOTH",
"797 0 OFFCURVE",
"768 29 OFFCURVE",
"768 64 CURVE SMOOTH",
"768 448 LINE SMOOTH",
"768 483 OFFCURVE",
"797 512 OFFCURVE",
"832 512 CURVE SMOOTH"
);
},
{
closed = 1;
nodes = (
"1216 1216 LINE SMOOTH",
"1251 1216 OFFCURVE",
"1280 1187 OFFCURVE",
"1280 1152 CURVE SMOOTH",
"1280 768 LINE SMOOTH",
"1280 733 OFFCURVE",
"1251 704 OFFCURVE",
"1216 704 CURVE SMOOTH",
"832 704 LINE SMOOTH",
"797 704 OFFCURVE",
"768 733 OFFCURVE",
"768 768 CURVE SMOOTH",
"768 1152 LINE SMOOTH",
"768 1187 OFFCURVE",
"797 1216 OFFCURVE",
"832 1216 CURVE SMOOTH"
);
}
);
width = 2048;
}
);
unicode = E066;
},
{
glyphname = uniE067;
lastChange = "2013-02-13 05:58:39 +0000";
layers = (
{
layerId = "1371701D-5D17-46B8-86D4-7A7B37AF85DD";
name = Regular;
paths = (
{
closed = 1;
nodes = (
"1165 1920 OFFCURVE",
"1280 1805 OFFCURVE",
"1280 1664 CURVE SMOOTH",
"1280 1523 OFFCURVE",
"1165 1408 OFFCURVE",
"1024 1408 CURVE SMOOTH",
"883 1408 OFFCURVE",
"768 1523 OFFCURVE",
"768 1664 CURVE SMOOTH",
"768 1805 OFFCURVE",
"883 1920 OFFCURVE",
"1024 1920 CURVE SMOOTH"
);
},
{
closed = 1;
nodes = (
"1165 512 OFFCURVE",
"1280 397 OFFCURVE",
"1280 256 CURVE SMOOTH",
"1280 115 OFFCURVE",
"1165 0 OFFCURVE",
"1024 0 CURVE SMOOTH",
"883 0 OFFCURVE",
"768 115 OFFCURVE",
"768 256 CURVE SMOOTH",
"768 397 OFFCURVE",
"883 512 OFFCURVE",
"1024 512 CURVE SMOOTH"
);
},
{
closed = 1;
nodes = (
"1165 1216 OFFCURVE",
"1280 1101 OFFCURVE",
"1280 960 CURVE SMOOTH",
"1280 819 OFFCURVE",
"1165 704 OFFCURVE",
"1024 704 CURVE SMOOTH",
"883 704 OFFCURVE",
"768 819 OFFCURVE",
"768 960 CURVE SMOOTH",
"768 1101 OFFCURVE",
"883 1216 OFFCURVE",
"1024 1216 CURVE SMOOTH"
);
}
);
width = 2048;
}
);
unicode = E067;
},
{
glyphname = uniE068;
lastChange = "2013-02-13 06:55:21 +0000";
layers = (
{
layerId = "1371701D-5D17-46B8-86D4-7A7B37AF85DD";
name = Regular;
paths = (
{
closed = 1;
nodes = (
"64 1101 OFFCURVE",
"179 1216 OFFCURVE",
"320 1216 CURVE SMOOTH",
"461 1216 OFFCURVE",
"576 1101 OFFCURVE",
"576 960 CURVE SMOOTH",
"576 819 OFFCURVE",
"461 704 OFFCURVE",
"320 704 CURVE SMOOTH",
"179 704 OFFCURVE",
"64 819 OFFCURVE",
"64 960 CURVE SMOOTH"
);
},
{
closed = 1;
nodes = (
"1472 1101 OFFCURVE",
"1587 1216 OFFCURVE",
"1728 1216 CURVE SMOOTH",
"1869 1216 OFFCURVE",
"1984 1101 OFFCURVE",
"1984 960 CURVE SMOOTH",
"1984 819 OFFCURVE",
"1869 704 OFFCURVE",
"1728 704 CURVE SMOOTH",
"1587 704 OFFCURVE",
"1472 819 OFFCURVE",
"1472 960 CURVE SMOOTH"
);
},
{
closed = 1;
nodes = (
"768 1101 OFFCURVE",
"883 1216 OFFCURVE",
"1024 1216 CURVE SMOOTH",
"1165 1216 OFFCURVE",
"1280 1101 OFFCURVE",
"1280 960 CURVE SMOOTH",
"1280 819 OFFCURVE",
"1165 704 OFFCURVE",
"1024 704 CURVE SMOOTH",
"883 704 OFFCURVE",
"768 819 OFFCURVE",
"768 960 CURVE SMOOTH"
);
}
);
width = 2048;
}
);
unicode = E068;
},
{
glyphname = uniE069;
lastChange = "2014-02-12 03:44:12 +0000";
layers = (
{
layerId = "1371701D-5D17-46B8-86D4-7A7B37AF85DD";
name = Regular;
paths = (
{
closed = 1;
nodes = (
"617 664 LINE",
"1547 853 LINE",
"1438 1396 LINE",
"508 1207 LINE"
);
},
{
closed = 1;
nodes = (
"1989 976 OFFCURVE",
"1971 989 OFFCURVE",
"1967 1008 CURVE SMOOTH",
"1963 1027 OFFCURVE",
"1975 1046 OFFCURVE",
"1994 1050 CURVE SMOOTH",
"1999 1050 LINE",
"1993 1082 LINE",
"1988 1080 LINE",
"1969 1076 OFFCURVE",
"1950 1089 OFFCURVE",
"1946 1108 CURVE SMOOTH",
"1942 1128 OFFCURVE",
"1955 1147 OFFCURVE",
"1974 1150 CURVE SMOOTH",
"1979 1151 LINE",
"1972 1182 LINE",
"1968 1181 LINE SMOOTH",
"1949 1177 OFFCURVE",
"1930 1189 OFFCURVE",
"1926 1209 CURVE SMOOTH",
"1922 1228 OFFCURVE",
"1934 1247 OFFCURVE",
"1954 1251 CURVE SMOOTH",
"1958 1251 LINE",
"1952 1283 LINE",
"1947 1281 LINE SMOOTH",
"1928 1277 OFFCURVE",
"1910 1290 OFFCURVE",
"1906 1309 CURVE SMOOTH",
"1902 1329 OFFCURVE",
"1914 1348 OFFCURVE",
"1933 1351 CURVE SMOOTH",
"1938 1352 LINE",
"1932 1383 LINE",
"1927 1382 LINE SMOOTH",
"1908 1378 OFFCURVE",
"1889 1390 OFFCURVE",
"1886 1410 CURVE SMOOTH",
"1882 1429 OFFCURVE",
"1894 1448 OFFCURVE",
"1913 1452 CURVE SMOOTH",
"1918 1452 LINE",
"1908 1500 LINE",
"1806 1500 OFFCURVE",
"1706 1553 OFFCURVE",
"1653 1639 CURVE",
"186 1341 LINE",
"172 1246 OFFCURVE",
"112 1163 OFFCURVE",
"25 1121 CURVE",
"36 1070 LINE",
"55 1074 OFFCURVE",
"74 1062 OFFCURVE",
"77 1042 CURVE SMOOTH",
"81 1023 OFFCURVE",
"69 1004 OFFCURVE",
"50 1000 CURVE",
"56 970 LINE",
"75 974 OFFCURVE",
"94 961 OFFCURVE",
"98 942 CURVE SMOOTH",
"102 923 OFFCURVE",
"89 904 OFFCURVE",
"70 900 CURVE",
"76 869 LINE",
"95 873 OFFCURVE",
"114 861 OFFCURVE",
"118 841 CURVE SMOOTH",
"122 822 OFFCURVE",
"109 803 OFFCURVE",
"90 799 CURVE",
"96 769 LINE",
"116 773 OFFCURVE",
"134 760 OFFCURVE",
"138 741 CURVE SMOOTH",
"142 722 OFFCURVE",
"130 703 OFFCURVE",
"111 699 CURVE",
"117 668 LINE",
"136 672 OFFCURVE",
"155 660 OFFCURVE",
"158 640 CURVE SMOOTH",
"162 621 OFFCURVE",
"150 602 OFFCURVE",
"131 598 CURVE",
"141 548 LINE",
"236 543 OFFCURVE",
"323 491 OFFCURVE",
"373 410 CURVE",
"1841 709 LINE",
"1857 807 OFFCURVE",
"1930 894 OFFCURVE",
"2022 934 CURVE",
"2013 981 LINE",
"2008 980 LINE"
);
},
{
closed = 1;
nodes = (
"466 580 LINE SMOOTH",
"423 571 OFFCURVE",
"382 599 OFFCURVE",
"373 642 CURVE SMOOTH",
"275 1131 LINE SMOOTH",
"266 1174 OFFCURVE",
"293 1216 OFFCURVE",
"336 1225 CURVE SMOOTH",
"1574 1476 LINE SMOOTH",
"1617 1485 OFFCURVE",
"1659 1457 OFFCURVE",
"1667 1414 CURVE SMOOTH",
"1766 925 LINE SMOOTH",
"1774 882 OFFCURVE",
"1747 840 OFFCURVE",
"1704 832 CURVE SMOOTH"
);
},
{
closed = 1;
nodes = (
"331 1171 OFFCURVE",
"322 1156 OFFCURVE",
"325 1141 CURVE SMOOTH",
"423 652 LINE SMOOTH",
"426 638 OFFCURVE",
"441 628 OFFCURVE",
"456 631 CURVE SMOOTH",
"567 654 LINE",
"458 1196 LINE",
"346 1174 LINE SMOOTH"
);
},
{
closed = 1;
nodes = (
"1614 1419 OFFCURVE",
"1599 1428 OFFCURVE",
"1585 1425 CURVE SMOOTH",
"1488 1406 LINE",
"1598 863 LINE",
"1694 883 LINE SMOOTH",
"1709 886 OFFCURVE",
"1719 900 OFFCURVE",
"1715 915 CURVE SMOOTH",
"1617 1404 LINE SMOOTH"
);
}
);
width = 2048;
}
);
unicode = E069;
},
{
glyphname = uniE0A1;
lastChange = "2013-10-19 07:22:12 +0000";
layers = (
{
layerId = "1371701D-5D17-46B8-86D4-7A7B37AF85DD";
name = Regular;
paths = (
{
closed = 1;
nodes = (
"1216 1920 LINE SMOOTH",
"1251 1920 OFFCURVE",
"1280 1891 OFFCURVE",
"1280 1856 CURVE SMOOTH",
"1280 192 LINE SMOOTH",
"1280 157.005 OFFCURVE",
"1251 128 OFFCURVE",
"1216 128 CURVE SMOOTH",
"832 128 LINE SMOOTH",
"797 128 OFFCURVE",
"768 157.005 OFFCURVE",
"768 192 CURVE SMOOTH",
"768 1856 LINE SMOOTH",
"768 1891 OFFCURVE",
"797 1920 OFFCURVE",
"832 1920 CURVE SMOOTH"
);
},
{
closed = 1;
nodes = (
"128 1216 LINE SMOOTH",
"128 1251 OFFCURVE",
"157 1280 OFFCURVE",
"192 1280 CURVE SMOOTH",
"1856 1280 LINE SMOOTH",
"1891 1280 OFFCURVE",
"1920 1251 OFFCURVE",
"1920 1216 CURVE SMOOTH",
"1920 832 LINE SMOOTH",
"1920 797 OFFCURVE",
"1891 768 OFFCURVE",
"1856 768 CURVE SMOOTH",
"192 768 LINE SMOOTH",
"157 768 OFFCURVE",
"128 797 OFFCURVE",
"128 832 CURVE SMOOTH"
);
}
);
width = 2048;
}
);
unicode = E0A1;
},
{
glyphname = uniE0A2;
lastChange = "2013-10-19 07:22:20 +0000";
layers = (
{
layerId = "1371701D-5D17-46B8-86D4-7A7B37AF85DD";
name = Regular;
paths = (
{
closed = 1;
nodes = (
"128 1216 LINE SMOOTH",
"128 1251 OFFCURVE",
"157 1280 OFFCURVE",
"192 1280 CURVE SMOOTH",
"1856 1280 LINE SMOOTH",
"1891 1280 OFFCURVE",
"1920 1251 OFFCURVE",
"1920 1216 CURVE SMOOTH",
"1920 832 LINE SMOOTH",
"1920 797 OFFCURVE",
"1891 768 OFFCURVE",
"1856 768 CURVE SMOOTH",
"192 768 LINE SMOOTH",
"157 768 OFFCURVE",
"128 797 OFFCURVE",
"128 832 CURVE SMOOTH"
);
}
);
width = 2048;
}
);
unicode = E0A2;
},
{
glyphname = uniE0A3;
lastChange = "2013-10-19 07:13:48 +0000";
layers = (
{
layerId = "1371701D-5D17-46B8-86D4-7A7B37AF85DD";
name = Regular;
paths = (
{
closed = 1;
nodes = (
"-113 852.661 OFFCURVE",
"-113 914.495 OFFCURVE",
"-75 951.695 CURVE SMOOTH",
"150 1178.12 LINE SMOOTH",
"187.695 1215.94 OFFCURVE",
"249.134 1215.94 OFFCURVE",
"286.828 1178.12 CURVE SMOOTH",
"678.835 785.526 LINE SMOOTH",
"716.467 747.575 OFFCURVE",
"777.968 747.575 OFFCURVE",
"815.6 785.899 CURVE SMOOTH",
"1889.95 1866.45 LINE SMOOTH",
"1927.52 1904.21 OFFCURVE",
"1989.14 1904.64 OFFCURVE",
"2027.33 1867.13 CURVE SMOOTH",
"2250.76 1643.32 LINE SMOOTH",
"2288.95 1605.87 OFFCURVE",
"2288.95 1544.72 OFFCURVE",
"2251.51 1506.65 CURVE SMOOTH",
"964.269 211.746 LINE SMOOTH",
"926.761 174.303 OFFCURVE",
"852.55 143.446 OFFCURVE",
"799.419 143.446 CURVE SMOOTH",
"686.895 143.446 LINE SMOOTH",
"633.639 143.446 OFFCURVE",
"559.553 174.303 OFFCURVE",
"522.107 212.001 CURVE SMOOTH",
"-76 814.715 LINE SMOOTH"
);
}
);
width = 2048;
}
);
unicode = E0A3;
},
{
glyphname = uniE0A4;
lastChange = "2013-10-19 08:13:31 +0000";
layers = (
{
layerId = "1371701D-5D17-46B8-86D4-7A7B37AF85DD";
name = Regular;
paths = (
{
closed = 1;
nodes = (
"1879.41 1528.38 LINE SMOOTH",
"1904.75 1553.79 OFFCURVE",
"1904.75 1595.34 OFFCURVE",
"1879.41 1620.69 CURVE SMOOTH",
"1619.88 1879.48 LINE SMOOTH",
"1594.41 1904.83 OFFCURVE",
"1554.04 1904.83 OFFCURVE",
"1528.7 1879.48 CURVE SMOOTH",
"1023.96 1375.48 LINE",
"535.29 1863.48 LINE SMOOTH",
"509.949 1888.83 OFFCURVE",
"469.388 1888.83 OFFCURVE",
"444.046 1863.48 CURVE SMOOTH",
"184.511 1604.69 LINE SMOOTH",
"159.169 1579.34 OFFCURVE",
"159.169 1537.79 OFFCURVE",
"184.511 1512.38 CURVE SMOOTH",
"672 1024 LINE",
"168.511 519.446 LINE SMOOTH",
"143.169 494.22 OFFCURVE",
"143.169 452.736 OFFCURVE",
"168.511 427.141 CURVE SMOOTH",
"428.046 168.464 LINE SMOOTH",
"453.388 143.251 OFFCURVE",
"493.949 143.251 OFFCURVE",
"519.29 168.464 CURVE SMOOTH",
"1024 672 LINE",
"1528.7 168.464 LINE SMOOTH",
"1554.04 143.251 OFFCURVE",
"1594.41 143.251 OFFCURVE",
"1619.88 168.464 CURVE SMOOTH",
"1879.41 427.141 LINE SMOOTH",
"1904.75 452.736 OFFCURVE",
"1904.75 494.22 OFFCURVE",
"1879.41 519.446 CURVE SMOOTH",
"1376 1040 LINE"
);
}
);
width = 2048;
}
);
unicode = E0A4;
},
{
glyphname = uniE0A5;
lastChange = "2013-02-09 06:29:17 +0000";
layers = (
{
layerId = "1371701D-5D17-46B8-86D4-7A7B37AF85DD";
name = Regular;
paths = (
{
closed = 1;
nodes = (
"458 2048 OFFCURVE",
"0 1589 OFFCURVE",
"0 1024 CURVE SMOOTH",
"0 458 OFFCURVE",
"458 0 OFFCURVE",
"1024 0 CURVE SMOOTH",
"1589 0 OFFCURVE",
"2048 458 OFFCURVE",
"2048 1024 CURVE",
"2048 1589 OFFCURVE",
"1590 2048 OFFCURVE",
"1024 2048 CURVE SMOOTH"
);
},
{
closed = 1;
nodes = (
"1536 925 OFFCURVE",
"1507 896 OFFCURVE",
"1472 896 CURVE SMOOTH",
"1152 896 LINE",
"1152 576 LINE SMOOTH",
"1152 541 OFFCURVE",
"1123 512 OFFCURVE",
"1088 512 CURVE SMOOTH",
"960 512 LINE SMOOTH",
"925 512 OFFCURVE",
"896 541 OFFCURVE",
"896 576 CURVE SMOOTH",
"896 896 LINE",
"576 896 LINE SMOOTH",
"541 896 OFFCURVE",
"512 925 OFFCURVE",
"512 960 CURVE SMOOTH",
"512 1088 LINE SMOOTH",
"512 1123 OFFCURVE",
"541 1152 OFFCURVE",
"576 1152 CURVE SMOOTH",
"896 1152 LINE",
"896 1472 LINE SMOOTH",
"896 1507 OFFCURVE",
"925 1536 OFFCURVE",
"960 1536 CURVE SMOOTH",
"1088 1536 LINE SMOOTH",
"1123 1536 OFFCURVE",
"1152 1507 OFFCURVE",
"1152 1472 CURVE SMOOTH",
"1152 1152 LINE",
"1472 1152 LINE SMOOTH",
"1507 1152 OFFCURVE",
"1536 1123 OFFCURVE",
"1536 1088 CURVE SMOOTH",
"1536 960 LINE SMOOTH"
);
}
);
width = 2048;
}
);
unicode = E0A5;
},
{
glyphname = uniE0A6;
lastChange = "2013-02-09 06:31:24 +0000";
layers = (
{
layerId = "1371701D-5D17-46B8-86D4-7A7B37AF85DD";
name = Regular;
paths = (
{
closed = 1;
nodes = (
"458.438 2048 OFFCURVE",
"0 1589.5 OFFCURVE",
"0 1024 CURVE SMOOTH",
"0 458.5 OFFCURVE",
"458.438 0 OFFCURVE",
"1024 0 CURVE SMOOTH",
"1589.5 0 OFFCURVE",
"2048 458.5 OFFCURVE",
"2048 1024 CURVE SMOOTH",
"2048 1589.5 OFFCURVE",
"1589.5 2048 OFFCURVE",
"1024 2048 CURVE SMOOTH"
);
},
{
closed = 1;
nodes = (
"1536 924.625 OFFCURVE",
"1507.38 896 OFFCURVE",
"1472 896 CURVE SMOOTH",
"576 896 LINE SMOOTH",
"540.688 896 OFFCURVE",
"512 924.625 OFFCURVE",
"512 960 CURVE SMOOTH",
"512 1088 LINE SMOOTH",
"512 1123.25 OFFCURVE",
"540.688 1152 OFFCURVE",
"576 1152 CURVE SMOOTH",
"1472 1152 LINE SMOOTH",
"1507.38 1152 OFFCURVE",
"1536 1123.25 OFFCURVE",
"1536 1088 CURVE SMOOTH",
"1536 960 LINE SMOOTH"
);
}
);
width = 2048;
}
);
unicode = E0A6;
},
{
glyphname = uniE0A7;
lastChange = "2013-10-18 10:47:46 +0000";
layers = (
{
layerId = "1371701D-5D17-46B8-86D4-7A7B37AF85DD";
name = Regular;
paths = (
{
closed = 1;
nodes = (
"458 2048 OFFCURVE",
"0 1589.72 OFFCURVE",
"0 1024.06 CURVE SMOOTH",
"0 458.465 OFFCURVE",
"458.423 0 OFFCURVE",
"1023.91 0 CURVE SMOOTH",
"1589.39 0 OFFCURVE",
"2048 458.465 OFFCURVE",
"2048 1024.06 CURVE SMOOTH",
"2048 1589.72 OFFCURVE",
"1589.39 2048.01 OFFCURVE",
"1023.91 2047.94 CURVE SMOOTH"
);
},
{
closed = 1;
nodes = (
"1623 1273 LINE",
"1018.22 668.579 LINE SMOOTH",
"1001 651 OFFCURVE",
"966.285 638.706 OFFCURVE",
"941.661 638.706 CURVE SMOOTH",
"889.35 638.706 LINE SMOOTH",
"864.726 638.706 OFFCURVE",
"830.351 651.21 OFFCURVE",
"812.851 668.579 CURVE SMOOTH",
"527.984 954.251 LINE SMOOTH",
"510.484 971.625 OFFCURVE",
"510.671 999.812 OFFCURVE",
"527.984 1017.19 CURVE SMOOTH",
"640.168 1129.12 LINE SMOOTH",
"657.668 1146.68 OFFCURVE",
"686.229 1146.62 OFFCURVE",
"703.666 1129.05 CURVE SMOOTH",
"885.662 947.377 LINE SMOOTH",
"903.162 929.94 OFFCURVE",
"931.66 929.877 OFFCURVE",
"949.223 947.377 CURVE SMOOTH",
"1447.9 1447.6 LINE SMOOTH",
"1465.4 1464.91 OFFCURVE",
"1493.89 1464.98 OFFCURVE",
"1511.52 1447.73 CURVE SMOOTH",
"1622.89 1336.86 LINE SMOOTH",
"1640.51 1319.55 OFFCURVE",
"1640.51 1290.98 OFFCURVE",
"1623.14 1273.48 CURVE"
);
}
);
width = 2048;
}
);
unicode = E0A7;
},
{
glyphname = uniE0A8;
lastChange = "2013-02-09 06:27:38 +0000";
layers = (
{
layerId = "1371701D-5D17-46B8-86D4-7A7B37AF85DD";
name = Regular;
paths = (
{
closed = 1;
nodes = (
"-100 1348 OFFCURVE",
"-100 700 OFFCURVE",
"300 300 CURVE SMOOTH",
"700 -100 OFFCURVE",
"1348 -100 OFFCURVE",
"1748 300 CURVE SMOOTH",
"2148 700 OFFCURVE",
"2148 1348 OFFCURVE",
"1748 1748 CURVE SMOOTH",
"1348 2148 OFFCURVE",
"700 2148 OFFCURVE",
"300 1748 CURVE SMOOTH"
);
},
{
closed = 1;
nodes = (
"1456 1316 OFFCURVE",
"1456 1275 OFFCURVE",
"1431 1250 CURVE SMOOTH",
"1205 1024 LINE",
"1431 798 LINE SMOOTH",
"1456 773 OFFCURVE",
"1456 732 OFFCURVE",
"1431 707 CURVE SMOOTH",
"1341 617 LINE SMOOTH",
"1316 592 OFFCURVE",
"1275 592 OFFCURVE",
"1250 617 CURVE SMOOTH",
"1024 843 LINE",
"798 617 LINE SMOOTH",
"773 592 OFFCURVE",
"732 592 OFFCURVE",
"707 617 CURVE SMOOTH",
"617 707 LINE SMOOTH",
"592 732 OFFCURVE",
"592 773 OFFCURVE",
"617 798 CURVE SMOOTH",
"843 1024 LINE",
"617 1250 LINE SMOOTH",
"592 1275 OFFCURVE",
"592 1316 OFFCURVE",
"617 1341 CURVE SMOOTH",
"707 1431 LINE SMOOTH",
"732 1456 OFFCURVE",
"773 1456 OFFCURVE",
"798 1431 CURVE SMOOTH",
"1024 1205 LINE",
"1250 1431 LINE SMOOTH",
"1275 1456 OFFCURVE",
"1316 1456 OFFCURVE",
"1341 1431 CURVE SMOOTH",
"1431 1341 LINE SMOOTH"
);
}
);
width = 2048;
}
);
unicode = E0A8;
},
{
glyphname = uniE0A9;
lastChange = "2014-03-13 02:01:43 +0000";
layers = (
{
layerId = "1371701D-5D17-46B8-86D4-7A7B37AF85DD";
name = Regular;
paths = (
{
closed = 1;
nodes = (
"1453.28 1919.02 OFFCURVE",
"1832.76 1601.7 OFFCURVE",
"1906.54 1178.63 CURVE SMOOTH",
"1980.61 753.846 OFFCURVE",
"1732.23 324.754 OFFCURVE",
"1325.78 179.455 CURVE SMOOTH",
"918.606 33.8991 OFFCURVE",
"453.265 208.954 OFFCURVE",
"241.995 585.698 CURVE SMOOTH",
"30.309 963.184 OFFCURVE",
"126.638 1452.03 OFFCURVE",
"463.769 1722.43 CURVE SMOOTH",
"622.053 1849.38 OFFCURVE",
"821.422 1919.07 OFFCURVE",
"1024.29 1919.02 CURVE SMOOTH"
);
},
{
closed = 1;
nodes = (
"368.339 2046.99 OFFCURVE",
"-128 1412.2 OFFCURVE",
"30.3095 775.391 CURVE SMOOTH",
"189.286 135.901 OFFCURVE",
"935.228 -192 OFFCURVE",
"1514.02 124.069 CURVE SMOOTH",
"1918.66 345.031 OFFCURVE",
"2129 823.634 OFFCURVE",
"2017.7 1271.23 CURVE SMOOTH",
"1905.63 1721.93 OFFCURVE",
"1488.39 2047 OFFCURVE",
"1024.27 2046.99 CURVE SMOOTH"
);
},
{
closed = 1;
nodes = (
"1471.93 1154.07 LINE SMOOTH",
"1506.92 1154.07 OFFCURVE",
"1535.92 1125.07 OFFCURVE",
"1535.92 1090.08 CURVE SMOOTH",
"1535.92 962.102 LINE SMOOTH",
"1535.92 927.108 OFFCURVE",
"1506.92 898.113 OFFCURVE",
"1471.93 898.113 CURVE SMOOTH",
"576.012 898.113 LINE SMOOTH",
"541.015 898.113 OFFCURVE",
"512.018 927.108 OFFCURVE",
"512.018 962.102 CURVE SMOOTH",
"512.018 1090.08 LINE SMOOTH",
"512.018 1125.07 OFFCURVE",
"541.015 1154.07 OFFCURVE",
"576.012 1154.07 CURVE SMOOTH"
);
},
{
closed = 1;
nodes = (
"895.982 1472.55 LINE SMOOTH",
"895.982 1507.55 OFFCURVE",
"924.979 1536.54 OFFCURVE",
"959.976 1536.54 CURVE SMOOTH",
"1087.96 1536.54 LINE SMOOTH",
"1122.96 1536.54 OFFCURVE",
"1151.96 1507.55 OFFCURVE",
"1151.96 1472.55 CURVE SMOOTH",
"1151.96 576.709 LINE SMOOTH",
"1151.96 541.716 OFFCURVE",
"1122.96 512.721 OFFCURVE",
"1087.96 512.721 CURVE SMOOTH",
"959.976 512.721 LINE SMOOTH",
"924.979 512.721 OFFCURVE",
"895.982 541.716 OFFCURVE",
"895.982 576.709 CURVE SMOOTH"
);
}
);
width = 2048;
}
);
unicode = E0A9;
},
{
glyphname = uniE0AA;
lastChange = "2013-10-19 03:27:16 +0000";
layers = (
{
layerId = "1371701D-5D17-46B8-86D4-7A7B37AF85DD";
name = Regular;
paths = (
{
closed = 1;
nodes = (
"1453.28 1919.02 OFFCURVE",
"1832.76 1601.7 OFFCURVE",
"1906.54 1178.63 CURVE SMOOTH",
"1980.61 753.846 OFFCURVE",
"1732.23 324.754 OFFCURVE",
"1325.78 179.455 CURVE SMOOTH",
"918.606 33.8991 OFFCURVE",
"453.265 208.954 OFFCURVE",
"241.995 585.698 CURVE SMOOTH",
"30.309 963.184 OFFCURVE",
"126.638 1452.03 OFFCURVE",
"463.769 1722.43 CURVE SMOOTH",
"622.053 1849.38 OFFCURVE",
"821.422 1919.07 OFFCURVE",
"1024.29 1919.02 CURVE SMOOTH"
);
},
{
closed = 1;
nodes = (
"368.339 2046.99 OFFCURVE",
"-128 1412.2 OFFCURVE",
"30.3095 775.391 CURVE SMOOTH",
"189.286 135.901 OFFCURVE",
"935.228 -192 OFFCURVE",
"1514.02 124.069 CURVE SMOOTH",
"1918.66 345.031 OFFCURVE",
"2129 823.634 OFFCURVE",
"2017.7 1271.23 CURVE SMOOTH",
"1905.63 1721.93 OFFCURVE",
"1488.39 2047 OFFCURVE",
"1024.27 2046.99 CURVE SMOOTH"
);
},
{
closed = 1;
nodes = (
"1471.93 1152.61 LINE SMOOTH",
"1506.92 1152.61 OFFCURVE",
"1535.92 1123.61 OFFCURVE",
"1535.92 1088.62 CURVE SMOOTH",
"1535.92 960.641 LINE SMOOTH",
"1535.92 925.648 OFFCURVE",
"1506.92 896.653 OFFCURVE",
"1471.93 896.653 CURVE SMOOTH",
"576.012 896.653 LINE SMOOTH",
"541.015 896.653 OFFCURVE",
"512.018 925.648 OFFCURVE",
"512.018 960.641 CURVE SMOOTH",
"512.018 1088.62 LINE SMOOTH",
"512.018 1123.61 OFFCURVE",
"541.015 1152.61 OFFCURVE",
"576.012 1152.61 CURVE SMOOTH"
);
}
);
width = 2048;
}
);
unicode = E0AA;
},
{
glyphname = uniE0AB;
lastChange = "2013-10-19 08:13:43 +0000";
layers = (
{
layerId = "1371701D-5D17-46B8-86D4-7A7B37AF85DD";
name = Regular;
paths = (
{
closed = 1;
nodes = (
"511 971 OFFCURVE",
"511 999 OFFCURVE",
"528 1017 CURVE SMOOTH",
"640 1129 LINE SMOOTH",
"658 1146 OFFCURVE",
"686 1146 OFFCURVE",
"704 1129 CURVE SMOOTH",
"886 947 LINE SMOOTH",
"903 930 OFFCURVE",
"932 930 OFFCURVE",
"949 947 CURVE SMOOTH",
"1448 1448 LINE SMOOTH",
"1465 1465 OFFCURVE",
"1494 1465 OFFCURVE",
"1512 1448 CURVE SMOOTH",
"1623 1337 LINE SMOOTH",
"1641 1320 OFFCURVE",
"1641 1291 OFFCURVE",
"1623 1274 CURVE SMOOTH",
"1018 667 LINE SMOOTH",
"1001 650 OFFCURVE",
"966 635 OFFCURVE",
"942 635 CURVE SMOOTH",
"889 635 LINE SMOOTH",
"865 635 OFFCURVE",
"830 650 OFFCURVE",
"813 667 CURVE SMOOTH",
"528 953 LINE SMOOTH"
);
},
{
closed = 1;
nodes = (
"1518 1920 OFFCURVE",
"1920 1518 OFFCURVE",
"1920 1024 CURVE SMOOTH",
"1920 530 OFFCURVE",
"1518 128 OFFCURVE",
"1024 128 CURVE SMOOTH",
"530 128 OFFCURVE",
"128 530 OFFCURVE",
"128 1024 CURVE SMOOTH",
"128 1518 OFFCURVE",
"530 1920 OFFCURVE",
"1024 1920 CURVE SMOOTH"
);
},
{
closed = 1;
nodes = (
"458 2048 OFFCURVE",
"0 1590 OFFCURVE",
"0 1024 CURVE SMOOTH",
"0 458 OFFCURVE",
"458 0 OFFCURVE",
"1024 0 CURVE SMOOTH",
"1589 0 OFFCURVE",
"2048 458 OFFCURVE",
"2048 1024 CURVE SMOOTH",
"2048 1590 OFFCURVE",
"1590 2048 OFFCURVE",
"1024 2048 CURVE SMOOTH"
);
}
);
width = 2048;
}
);
unicode = E0AB;
},
{
glyphname = uniE0AC;
lastChange = "2013-10-19 03:08:09 +0000";
layers = (
{
layerId = "1371701D-5D17-46B8-86D4-7A7B37AF85DD";
name = Regular;
paths = (
{
closed = 1;
nodes = (
"1017.51 1204.17 LINE",
"791.529 1430.13 LINE SMOOTH",
"766.532 1455.13 OFFCURVE",
"725.536 1455.13 OFFCURVE",
"700.538 1430.13 CURVE SMOOTH",
"610.547 1340.15 LINE SMOOTH",
"585.549 1315.15 OFFCURVE",
"585.549 1274.16 OFFCURVE",
"610.547 1249.16 CURVE SMOOTH",
"836.525 1023.2 LINE",
"610.547 797.242 LINE SMOOTH",
"585.549 772.247 OFFCURVE",
"585.549 731.254 OFFCURVE",
"610.547 706.258 CURVE SMOOTH",
"700.538 616.274 LINE SMOOTH",
"725.536 591.279 OFFCURVE",
"766.532 591.279 OFFCURVE",
"791.529 616.274 CURVE SMOOTH",
"1017.51 842.234 LINE",
"1243.49 616.274 LINE SMOOTH",
"1268.48 591.279 OFFCURVE",
"1309.48 591.279 OFFCURVE",
"1334.48 616.274 CURVE SMOOTH",
"1424.47 706.258 LINE SMOOTH",
"1449.47 731.254 OFFCURVE",
"1449.47 772.247 OFFCURVE",
"1424.47 797.242 CURVE SMOOTH",
"1198.49 1023.2 LINE",
"1424.47 1249.16 LINE SMOOTH",
"1449.47 1274.16 OFFCURVE",
"1449.47 1315.15 OFFCURVE",
"1424.47 1340.15 CURVE SMOOTH",
"1334.48 1430.13 LINE SMOOTH",
"1309.48 1455.13 OFFCURVE",
"1268.48 1455.13 OFFCURVE",
"1243.49 1430.13 CURVE SMOOTH"
);
},
{
closed = 1;
nodes = (
"1453.28 1919.02 OFFCURVE",
"1832.76 1601.7 OFFCURVE",
"1906.54 1178.63 CURVE SMOOTH",
"1980.61 753.846 OFFCURVE",
"1732.23 324.754 OFFCURVE",
"1325.78 179.455 CURVE SMOOTH",
"918.606 33.8991 OFFCURVE",
"453.265 208.954 OFFCURVE",
"241.995 585.698 CURVE SMOOTH",
"30.3091 963.183 OFFCURVE",
"126.638 1452.03 OFFCURVE",
"463.769 1722.43 CURVE SMOOTH",
"622.053 1849.38 OFFCURVE",
"821.422 1919.07 OFFCURVE",
"1024.29 1919.02 CURVE SMOOTH"
);
},
{
closed = 1;
nodes = (
"368.34 2046.99 OFFCURVE",
"-128 1412.2 OFFCURVE",
"30.3096 775.39 CURVE SMOOTH",
"189.286 135.902 OFFCURVE",
"935.229 -192 OFFCURVE",
"1514.03 124.069 CURVE SMOOTH",
"1918.66 345.031 OFFCURVE",
"2129 823.635 OFFCURVE",
"2017.7 1271.23 CURVE SMOOTH",
"1905.63 1721.93 OFFCURVE",
"1488.39 2047 OFFCURVE",
"1024.27 2046.99 CURVE SMOOTH"
);
}
);
width = 2048;
}
);
unicode = E0AC;
},
{
glyphname = uniE0AD;
lastChange = "2013-11-17 21:17:06 +0000";
layers = (
{
layerId = "1371701D-5D17-46B8-86D4-7A7B37AF85DD";
name = Regular;
paths = (
{
closed = 1;
nodes = (
"1405 2150 LINE",
"2173 1510 LINE",
"1405 870 LINE",
"1405 1254 LINE",
"677 1182 OFFCURVE",
"509 870 OFFCURVE",
"509 870 CURVE SMOOTH",
"509 870 OFFCURVE",
"546 1433 OFFCURVE",
"1405 1766 CURVE"
);
},
{
closed = 1;
nodes = (
"1533 614 LINE",
"253 614 LINE",
"253 1510 LINE",
"692 1510 LINE",
"820 1766 LINE",
"-3 1766 LINE",
"-3 358 LINE",
"1789 358 LINE",
"1789 870 LINE",
"1533 742 LINE"
);
}
);
width = 2048;
}
);
unicode = E0AD;
},
{
glyphname = uniE0AE;
lastChange = "2014-02-01 03:49:53 +0000";
layers = (
{
layerId = "1371701D-5D17-46B8-86D4-7A7B37AF85DD";
name = Regular;
paths = (
{
closed = 1;
nodes = (
"1611.54 1935.04 OFFCURVE",
"1530.92 2048 OFFCURVE",
"1410.1 2048 CURVE SMOOTH",
"235.016 2048 LINE SMOOTH",
"114.186 2048 OFFCURVE",
"0.5133 1949.53 OFFCURVE",
"0.5133 1827.48 CURVE SMOOTH",
"0.5133 653.304 LINE SMOOTH",
"0.5133 531.81 OFFCURVE",
"80.6123 436.459 OFFCURVE",
"201.443 436.459 CURVE SMOOTH",
"436.459 436.459 LINE",
"436.213 369.247 LINE",
"535.913 369.247 LINE",
"537.031 603.961 LINE",
"436.21 603.961 LINE",
"436.459 537.18 LINE",
"268.59 537.18 LINE SMOOTH",
"167.708 537.18 OFFCURVE",
"100.721 570.929 OFFCURVE",
"100.721 671.475 CURVE SMOOTH",
"100.721 1779.41 LINE SMOOTH",
"100.721 1880.8 OFFCURVE",
"167.708 1947.28 OFFCURVE",
"268.59 1947.28 CURVE SMOOTH",
"1342.95 1947.28 LINE SMOOTH",
"1443.85 1947.28 OFFCURVE",
"1510.82 1880.8 OFFCURVE",
"1510.82 1779.41 CURVE SMOOTH",
"1510.82 1611.54 LINE",
"1443.96 1611.72 LINE",
"1443.96 1510.29 LINE",
"1645.11 1510.82 LINE",
"1645.11 1611.54 LINE",
"1611.54 1611.54 LINE",
"1611.54 1812.98 LINE SMOOTH"
);
},
{
closed = 1;
nodes = (
"617.288 1476.31 LINE",
"642.924 1499.82 OFFCURVE",
"672.917 1513.06 OFFCURVE",
"704.535 1513.06 CURVE SMOOTH",
"738.354 1513.06 LINE",
"738.354 1611.71 LINE",
"671.275 1611.71 LINE SMOOTH",
"630.379 1611.71 OFFCURVE",
"591.655 1593.06 OFFCURVE",
"560.021 1561.77 CURVE"
);
},
{
closed = 1;
nodes = (
"570.767 48.6575 LINE",
"603.812 17.7095 OFFCURVE",
"644.284 0 OFFCURVE",
"688.17 0 CURVE SMOOTH",
"738.355 0 LINE",
"738.355 100.192 LINE",
"722.931 93.9304 LINE",
"688.742 93.9304 OFFCURVE",
"657.395 107.139 OFFCURVE",
"630.605 129.477 CURVE"
);
},
{
closed = 1;
nodes = (
"1041.07 0 LINE",
"1041.07 100.192 LINE",
"839.749 100.192 LINE",
"839.749 0 LINE"
);
},
{
closed = 1;
nodes = (
"1040.64 1510.29 LINE",
"1040.64 1611.72 LINE",
"839.747 1611.72 LINE",
"839.747 1510.29 LINE"
);
},
{
closed = 1;
nodes = (
"436.213 302.476 LINE",
"436.213 224.314 LINE SMOOTH",
"436.213 178.784 OFFCURVE",
"454.445 136.354 OFFCURVE",
"484.85 100.69 CURVE",
"571.176 165.887 LINE",
"548.678 194.218 OFFCURVE",
"535.913 226.782 OFFCURVE",
"535.913 262.442 CURVE SMOOTH",
"535.913 302.476 LINE"
);
},
{
closed = 1;
nodes = (
"436.238 1275.39 LINE",
"525.67 1275.39 LINE",
"525.67 1315.1 LINE SMOOTH",
"525.67 1349.98 OFFCURVE",
"537.668 1383.07 OFFCURVE",
"558.396 1410.75 CURVE",
"481.508 1474.52 LINE",
"453.14 1439.02 OFFCURVE",
"436.238 1396.9 OFFCURVE",
"436.238 1351.81 CURVE SMOOTH"
);
},
{
closed = 1;
nodes = (
"537.031 671.312 LINE",
"537.031 872.982 LINE",
"436.21 872.982 LINE",
"436.21 671.312 LINE"
);
},
{
closed = 1;
nodes = (
"436.21 1175.53 LINE",
"436.21 973.403 LINE",
"537.031 973.403 LINE",
"537.031 1175.53 LINE"
);
},
{
closed = 1;
nodes = (
"1946.98 1562.97 LINE",
"1911.93 1593.65 OFFCURVE",
"1870.22 1611.71 OFFCURVE",
"1824.88 1611.71 CURVE SMOOTH",
"1746.25 1611.71 LINE",
"1746.25 1513.06 LINE",
"1787.99 1513.06 LINE SMOOTH",
"1823.05 1513.06 OFFCURVE",
"1855.71 1500.41 OFFCURVE",
"1883.53 1477.56 CURVE"
);
},
{
closed = 1;
nodes = (
"2047.45 671.379 LINE",
"2047.45 873.047 LINE",
"1947.77 873.047 LINE",
"1947.77 671.379 LINE"
);
},
{
closed = 1;
nodes = (
"2047.45 369.387 LINE",
"2047.45 604.038 LINE",
"1947.77 604.038 LINE",
"1947.77 369.387 LINE"
);
},
{
closed = 1;
nodes = (
"2047.45 940.392 LINE",
"2047.45 1175.08 LINE",
"1947.77 1175.08 LINE",
"1947.77 940.392 LINE"
);
},
{
closed = 1;
nodes = (
"1342.91 0 LINE",
"1342.91 100.192 LINE",
"1141.48 100.192 LINE",
"1141.48 0 LINE"
);
},
{
closed = 1;
nodes = (
"1913.41 1413.3 LINE",
"1936.55 1384.88 OFFCURVE",
"1950.21 1350.98 OFFCURVE",
"1950.21 1315.31 CURVE SMOOTH",
"1950.21 1275.97 LINE",
"2047.47 1275.97 LINE",
"2047.47 1352.23 LINE SMOOTH",
"2047.47 1398.19 OFFCURVE",
"2029.08 1441.16 OFFCURVE",
"1997.04 1476.83 CURVE"
);
},
{
closed = 1;
nodes = (
"1949.41 226.782 OFFCURVE",
"1936.25 193.139 OFFCURVE",
"1913.51 165.034 CURVE",
"1997.82 100.203 LINE",
"2028.92 135.669 OFFCURVE",
"2047.46 178.491 OFFCURVE",
"2047.46 224.331 CURVE SMOOTH",
"2047.46 302.059 LINE",
"1949.41 302.059 LINE",
"1949.41 262.319 LINE SMOOTH"
);
},
{
closed = 1;
nodes = (
"1645.19 0 LINE",
"1645.19 100.192 LINE",
"1443.32 100.192 LINE",
"1443.32 0 LINE"
);
},
{
closed = 1;
nodes = (
"1343 1510.29 LINE",
"1343 1611.72 LINE",
"1141.57 1611.72 LINE",
"1141.57 1510.29 LINE"
);
},
{
closed = 1;
nodes = (
"1745.61 100.192 LINE",
"1745.61 0 LINE",
"1801.84 0 LINE SMOOTH",
"1845.17 0 OFFCURVE",
"1885.07 17.7095 OFFCURVE",
"1918.11 47.4732 CURVE",
"1858.26 128.952 LINE",
"1831.49 106.547 OFFCURVE",
"1800.69 93.9304 OFFCURVE",
"1767.06 93.9304 CURVE"
);
}
);
width = 2048;
}
);
unicode = E0AE;
},
{
glyphname = uniE0AF;
lastChange = "2014-03-09 23:52:53 +0000";
layers = (
{
layerId = "1371701D-5D17-46B8-86D4-7A7B37AF85DD";
name = Regular;
paths = (
{
closed = 1;
nodes = (
"829.806 1587.84 OFFCURVE",
"645.792 1403.29 OFFCURVE",
"645.792 1176.47 CURVE SMOOTH",
"645.792 949.73 OFFCURVE",
"829.806 765.257 OFFCURVE",
"1056.01 765.257 CURVE SMOOTH",
"1282.14 765.257 OFFCURVE",
"1466.09 949.73 OFFCURVE",
"1466.09 1176.47 CURVE SMOOTH",
"1466.09 1403.29 OFFCURVE",
"1282.14 1587.84 OFFCURVE",
"1056.01 1587.84 CURVE SMOOTH"
);
},
{
closed = 1;
nodes = (
"746.294 613.378 OFFCURVE",
"494.338 865.965 OFFCURVE",
"494.338 1176.47 CURVE SMOOTH",
"494.338 1487.06 OFFCURVE",
"746.294 1739.72 OFFCURVE",
"1056.01 1739.72 CURVE SMOOTH",
"1365.65 1739.72 OFFCURVE",
"1617.55 1487.06 OFFCURVE",
"1617.55 1176.47 CURVE SMOOTH",
"1617.55 865.965 OFFCURVE",
"1365.65 613.378 OFFCURVE",
"1056.01 613.378 CURVE SMOOTH"
);
},
{
closed = 1;
nodes = (
"1033.8 2048.07 OFFCURVE",
"1011.6 2041.94 OFFCURVE",
"994.759 2029.65 CURVE SMOOTH",
"870.775 1939.32 LINE SMOOTH",
"837.072 1914.74 OFFCURVE",
"777.654 1888 OFFCURVE",
"736 1888 CURVE SMOOTH",
"608 1888 LINE SMOOTH",
"566.346 1888 OFFCURVE",
"519.244 1862.16 OFFCURVE",
"506.374 1822.44 CURVE SMOOTH",
"466.773 1700.15 LINE SMOOTH",
"453.907 1660.4 OFFCURVE",
"415.801 1607.82 OFFCURVE",
"382.098 1583.28 CURVE SMOOTH",
"265.807 1498.62 LINE SMOOTH",
"232.105 1474.08 OFFCURVE",
"215.078 1421.5 OFFCURVE",
"227.944 1381.79 CURVE SMOOTH",
"272.388 1244.7 LINE SMOOTH",
"285.258 1204.99 OFFCURVE",
"285.258 1139.99 OFFCURVE",
"272.388 1100.27 CURVE SMOOTH",
"227.944 963.19 LINE SMOOTH",
"215.078 923.478 OFFCURVE",
"232.124 870.897 OFFCURVE",
"265.826 846.35 CURVE SMOOTH",
"382.079 761.696 LINE SMOOTH",
"415.782 737.186 OFFCURVE",
"453.888 684.609 OFFCURVE",
"466.754 644.859 CURVE SMOOTH",
"506.393 522.459 LINE SMOOTH",
"510.812 508.813 OFFCURVE",
"519.15 496.169 OFFCURVE",
"529.634 485.267 CURVE",
"350.187 108.754 LINE",
"610.132 195.929 LINE",
"708.858 0 LINE",
"894.11 388.634 LINE",
"994.759 315.329 LINE SMOOTH",
"1011.62 303.054 OFFCURVE",
"1033.82 296.918 OFFCURVE",
"1056.03 296.918 CURVE SMOOTH",
"1078.23 296.918 OFFCURVE",
"1100.44 303.054 OFFCURVE",
"1117.3 315.329 CURVE SMOOTH",
"1217.3 388.19 LINE",
"1402.42 0 LINE",
"1501.07 195.929 LINE",
"1761.09 108.754 LINE",
"1581.89 484.671 LINE",
"1592.65 495.724 OFFCURVE",
"1601.17 508.589 OFFCURVE",
"1605.66 522.459 CURVE SMOOTH",
"1645.3 644.859 LINE SMOOTH",
"1658.17 684.609 OFFCURVE",
"1696.25 737.186 OFFCURVE",
"1729.95 761.734 CURVE SMOOTH",
"1846.17 846.35 LINE SMOOTH",
"1879.88 870.897 OFFCURVE",
"1896.9 923.478 OFFCURVE",
"1884.04 963.19 CURVE SMOOTH",
"1839.59 1100.27 LINE SMOOTH",
"1826.72 1139.99 OFFCURVE",
"1826.72 1204.99 OFFCURVE",
"1839.59 1244.7 CURVE SMOOTH",
"1884.04 1381.79 LINE SMOOTH",
"1896.9 1421.5 OFFCURVE",
"1879.88 1474.08 OFFCURVE",
"1846.17 1498.62 CURVE SMOOTH",
"1729.95 1583.28 LINE SMOOTH",
"1696.25 1607.82 OFFCURVE",
"1658.15 1660.4 OFFCURVE",
"1645.28 1700.15 CURVE SMOOTH",
"1605.68 1822.44 LINE SMOOTH",
"1592.81 1862.16 OFFCURVE",
"1545.65 1888 OFFCURVE",
"1504 1888 CURVE SMOOTH",
"1376 1888 LINE SMOOTH",
"1334.35 1888 OFFCURVE",
"1274.87 1914.77 OFFCURVE",
"1241.19 1939.32 CURVE SMOOTH",
"1117.28 2029.65 LINE SMOOTH",
"1100.44 2041.92 OFFCURVE",
"1078.21 2048.07 OFFCURVE",
"1056.01 2048.07 CURVE SMOOTH"
);
}
);
width = 2048;
}
);
unicode = E0AF;
},
{
glyphname = uniE0B1;
lastChange = "2013-11-17 21:43:19 +0000";
layers = (
{
layerId = "1371701D-5D17-46B8-86D4-7A7B37AF85DD";
name = Regular;
paths = (
{
closed = 1;
nodes = (
"11 2047 LINE SMOOTH",
"-92 2047 OFFCURVE",
"-180 1956 OFFCURVE",
"-180 1846 CURVE SMOOTH",
"-180 199 LINE SMOOTH",
"-180 90 OFFCURVE",
"-92 -2 OFFCURVE",
"11 -2 CURVE SMOOTH",
"2054 -2 LINE SMOOTH",
"2157 -2 OFFCURVE",
"2246 90 OFFCURVE",
"2246 199 CURVE SMOOTH",
"2246 1846 LINE SMOOTH",
"2246 1956 OFFCURVE",
"2157 2047 OFFCURVE",
"2054 2047 CURVE SMOOTH"
);
},
{
closed = 1;
nodes = (
"1938 255 LINE",
"143 255 LINE",
"-51 255 LINE",
"-51 1341 LINE",
"144 1341 LINE",
"1938 1341 LINE",
"2117 1341 LINE",
"2117 255 LINE"
);
}
);
width = 2048;
}
);
unicode = E0B1;
},
{
glyphname = uniE0B2;
lastChange = "2013-11-28 03:28:06 +0000";
layers = (
{
layerId = "1371701D-5D17-46B8-86D4-7A7B37AF85DD";
name = Regular;
paths = (
{
closed = 1;
nodes = (
"602 1086 LINE",
"412 1086 LINE",
"412 1279 LINE",
"602 1279 LINE"
);
},
{
closed = 1;
nodes = (
"603 767 LINE",
"412 767 LINE",
"412 958 LINE",
"603 958 LINE"
);
},
{
closed = 1;
nodes = (
"602 446 LINE",
"412 446 LINE",
"412 640 LINE",
"602 640 LINE"
);
},
{
closed = 1;
nodes = (
"922 1086 LINE",
"730 1086 LINE",
"730 1279 LINE",
"922 1279 LINE"
);
},
{
closed = 1;
nodes = (
"922 767 LINE",
"731 767 LINE",
"731 958 LINE",
"922 958 LINE"
);
},
{
closed = 1;
nodes = (
"922 446 LINE",
"730 446 LINE",
"730 640 LINE",
"922 640 LINE"
);
},
{
closed = 1;
nodes = (
"1243 1086 LINE",
"1049 1086 LINE",
"1049 1279 LINE",
"1243 1279 LINE"
);
},
{
closed = 1;
nodes = (
"1244 767 LINE",
"1049 767 LINE",
"1049 958 LINE",
"1244 958 LINE"
);
},
{
closed = 1;
nodes = (
"1243 446 LINE",
"1049 446 LINE",
"1049 640 LINE",
"1243 640 LINE"
);
},
{
closed = 1;
nodes = (
"1562 1086 LINE",
"1370 1086 LINE",
"1370 1279 LINE",
"1562 1279 LINE"
);
},
{
closed = 1;
nodes = (
"1562 767 LINE",
"1371 767 LINE",
"1371 958 LINE",
"1562 958 LINE"
);
},
{
closed = 1;
nodes = (
"1562 2047 LINE",
"1560 2211 LINE SMOOTH",
"1559 2273 OFFCURVE",
"1548 2298 OFFCURVE",
"1439 2298 CURVE SMOOTH",
"1330 2298 OFFCURVE",
"1306 2273 OFFCURVE",
"1306 2211 CURVE SMOOTH",
"1307 2047 LINE",
"667 2047 LINE",
"668 2211 LINE SMOOTH",
"668 2273 OFFCURVE",
"654 2298 OFFCURVE",
"547 2298 CURVE SMOOTH",
"438 2298 OFFCURVE",
"415 2273 OFFCURVE",
"414 2211 CURVE SMOOTH",
"412 2047 LINE",
"104 2047 LINE SMOOTH",
"62 2047 OFFCURVE",
"26 2027 OFFCURVE",
"26 1985 CURVE SMOOTH",
"26 -1 LINE",
"2011 -1 LINE",
"2011 1985 LINE SMOOTH",
"2011 2027 OFFCURVE",
"1976 2047 OFFCURVE",
"1933 2047 CURVE SMOOTH"
);
},
{
closed = 1;
nodes = (
"155 126 LINE",
"155 1599 LINE",
"1883 1599 LINE",
"1883 126 LINE"
);
}
);
width = 2048;
}
);
unicode = E0B2;
},
{
glyphname = uniE0B3;
lastChange = "2013-11-28 03:28:24 +0000";
layers = (
{
layerId = "1371701D-5D17-46B8-86D4-7A7B37AF85DD";
name = Regular;
paths = (
{
closed = 1;
nodes = (
"2184 1394 OFFCURVE",
"1457 1583 OFFCURVE",
"1214 1689 CURVE SMOOTH",
"1208 1692 LINE",
"1205 1698 LINE",
"1060 1995 LINE SMOOTH",
"1052 2011 OFFCURVE",
"1038 2023 OFFCURVE",
"1020 2028 CURVE SMOOTH",
"893 2063 OFFCURVE",
"736 2081 OFFCURVE",
"553 2082 CURVE SMOOTH",
"335 2084 OFFCURVE",
"137 2061 OFFCURVE",
"38 2048 CURVE SMOOTH",
"25 2046 LINE",
"12 2072 LINE",
"8 2081 LINE",
"13 2090 LINE SMOOTH",
"25 2109 OFFCURVE",
"32 2130 OFFCURVE",
"32 2151 CURVE SMOOTH",
"32 2183 OFFCURVE",
"20 2213 OFFCURVE",
"-3 2235 CURVE SMOOTH",
"-26 2258 OFFCURVE",
"-56 2271 OFFCURVE",
"-88 2271 CURVE SMOOTH",
"-107 2271 OFFCURVE",
"-125 2267 OFFCURVE",
"-142 2259 CURVE SMOOTH",
"-162 2249 OFFCURVE",
"-179 2235 OFFCURVE",
"-191 2216 CURVE SMOOTH",
"-203 2197 OFFCURVE",
"-210 2175 OFFCURVE",
"-210 2153 CURVE SMOOTH",
"-210 2126 OFFCURVE",
"-201 2100 OFFCURVE",
"-184 2079 CURVE SMOOTH",
"-167 2058 OFFCURVE",
"-144 2043 OFFCURVE",
"-118 2037 CURVE SMOOTH",
"-110 2035 LINE",
"-106 2027 LINE",
"764 224 LINE",
"774 202 LINE",
"750 198 LINE SMOOTH",
"675 187 OFFCURVE",
"604 167 OFFCURVE",
"541 136 CURVE SMOOTH",
"494 114 OFFCURVE",
"464 92 OFFCURVE",
"452 82 CURVE",
"452 6 LINE",
"1297 1 LINE",
"1298 77 LINE",
"1286 86 OFFCURVE",
"1256 109 OFFCURVE",
"1209 132 CURVE SMOOTH",
"1173 150 OFFCURVE",
"1133 165 OFFCURVE",
"1092 177 CURVE SMOOTH",
"1040 192 OFFCURVE",
"985 201 OFFCURVE",
"929 205 CURVE SMOOTH",
"918 206 LINE",
"914 215 LINE",
"462 1141 LINE",
"452 1162 LINE",
"474 1167 LINE SMOOTH",
"520 1176 OFFCURVE",
"575 1184 OFFCURVE",
"638 1188 CURVE SMOOTH",
"700 1193 OFFCURVE",
"771 1195 OFFCURVE",
"848 1194 CURVE SMOOTH",
"881 1194 OFFCURVE",
"917 1193 OFFCURVE",
"957 1192 CURVE SMOOTH",
"972 1191 LINE",
"974 1177 LINE SMOOTH",
"992 1070 OFFCURVE",
"1029 878 OFFCURVE",
"1078 791 CURVE SMOOTH",
"1079 790 LINE",
"1079 789 LINE SMOOTH",
"1085 774 OFFCURVE",
"1094 762 OFFCURVE",
"1106 752 CURVE SMOOTH",
"1116 744 OFFCURVE",
"1134 734 OFFCURVE",
"1162 734 CURVE SMOOTH",
"1189 733 OFFCURVE",
"1251 748 OFFCURVE",
"1399 819 CURVE SMOOTH",
"1653 941 OFFCURVE",
"2015 1159 OFFCURVE",
"2208 1279 CURVE SMOOTH",
"2230 1292 OFFCURVE",
"2241 1316 OFFCURVE",
"2237 1341 CURVE SMOOTH",
"2233 1365 OFFCURVE",
"2215 1385 OFFCURVE",
"2191 1392 CURVE SMOOTH"
);
},
{
closed = 1;
nodes = (
"762 1319 OFFCURVE",
"680 1316 OFFCURVE",
"605 1309 CURVE SMOOTH",
"534 1302 OFFCURVE",
"471 1293 OFFCURVE",
"418 1280 CURVE SMOOTH",
"404 1277 LINE",
"398 1290 LINE",
"97 1906 LINE",
"86 1929 LINE",
"111 1932 LINE SMOOTH",
"217 1944 OFFCURVE",
"380 1959 OFFCURVE",
"552 1958 CURVE SMOOTH",
"707 1957 OFFCURVE",
"841 1943 OFFCURVE",
"950 1918 CURVE SMOOTH",
"959 1916 LINE",
"962 1908 LINE",
"1166 1489 LINE",
"1241 1326 LINE",
"1254 1298 LINE",
"1223 1300 LINE SMOOTH",
"1132 1308 OFFCURVE",
"992 1318 OFFCURVE",
"848 1319 CURVE SMOOTH"
);
},
{
closed = 1;
nodes = (
"1715 1127 OFFCURVE",
"1466 989 OFFCURVE",
"1315 916 CURVE SMOOTH",
"1293 905 OFFCURVE",
"1273 896 OFFCURVE",
"1256 889 CURVE SMOOTH",
"1207 867 LINE",
"1233 914 LINE SMOOTH",
"1274 987 OFFCURVE",
"1344 1087 OFFCURVE",
"1417 1175 CURVE SMOOTH",
"1432 1193 OFFCURVE",
"1435 1218 OFFCURVE",
"1426 1239 CURVE SMOOTH",
"1425 1240 LINE",
"1425 1242 LINE SMOOTH",
"1424 1243 OFFCURVE",
"1424 1244 OFFCURVE",
"1424 1245 CURVE SMOOTH",
"1423 1247 OFFCURVE",
"1422 1249 OFFCURVE",
"1422 1251 CURVE SMOOTH",
"1309 1483 LINE",
"1291 1521 LINE",
"1331 1508 LINE SMOOTH",
"1536 1441 OFFCURVE",
"1795 1369 OFFCURVE",
"1977 1320 CURVE SMOOTH",
"2018 1309 LINE",
"1981 1287 LINE SMOOTH"
);
}
);
width = 2048;
}
);
unicode = E0B3;
},
{
glyphname = uniE0B4;
lastChange = "2013-11-28 02:24:49 +0000";
layers = (
{
layerId = "1371701D-5D17-46B8-86D4-7A7B37AF85DD";
name = Regular;
paths = (
{
closed = 1;
nodes = (
"2116 1920 LINE",
"2115 130 LINE",
"-60 130 LINE",
"-59 1920 LINE",
"2115 1920 LINE"
);
},
{
closed = 1;
nodes = (
"-36 2049 LINE SMOOTH",
"-120 2049 OFFCURVE",
"-188 1985 OFFCURVE",
"-188 1905 CURVE SMOOTH",
"-188 145 LINE SMOOTH",
"-188 65 OFFCURVE",
"-120 1 OFFCURVE",
"-36 1 CURVE SMOOTH",
"2092 1 LINE SMOOTH",
"2176 1 OFFCURVE",
"2244 65 OFFCURVE",
"2244 145 CURVE SMOOTH",
"2244 1905 LINE SMOOTH",
"2244 1985 OFFCURVE",
"2176 2049 OFFCURVE",
"2092 2049 CURVE SMOOTH"
);
},
{
closed = 1;
nodes = (
"131 1473 LINE",
"131 578 LINE",
"964 578 LINE",
"964 1473 LINE"
);
},
{
closed = 1;
nodes = (
"1092 1344 LINE",
"1092 1473 LINE",
"1848 1473 LINE SMOOTH",
"1890 1473 OFFCURVE",
"1923 1445 OFFCURVE",
"1923 1409 CURVE SMOOTH",
"1923 1373 OFFCURVE",
"1890 1344 OFFCURVE",
"1848 1344 CURVE SMOOTH"
);
},
{
closed = 1;
nodes = (
"1091 1089 LINE",
"1091 1217 LINE",
"1658 1217 LINE SMOOTH",
"1698 1217 OFFCURVE",
"1731 1188 OFFCURVE",
"1731 1152 CURVE SMOOTH",
"1731 1118 OFFCURVE",
"1698 1089 OFFCURVE",
"1658 1089 CURVE SMOOTH"
);
},
{
closed = 1;
nodes = (
"1092 833 LINE",
"1092 962 LINE",
"1848 962 LINE SMOOTH",
"1890 962 OFFCURVE",
"1923 932 OFFCURVE",
"1923 898 CURVE SMOOTH",
"1923 862 OFFCURVE",
"1890 833 OFFCURVE",
"1848 833 CURVE SMOOTH"
);
}
);
width = 2048;
}
);
unicode = E0B4;
},
{
glyphname = uniE0B5;
lastChange = "2014-03-13 17:28:28 +0000";
layers = (
{
layerId = "1371701D-5D17-46B8-86D4-7A7B37AF85DD";
name = Regular;
paths = (
{
closed = 1;
nodes = (
"1946.91 1138.5 OFFCURVE",
"1755.24 994.167 OFFCURVE",
"1637.18 1244.33 CURVE SMOOTH",
"1356.93 1831.25 OFFCURVE",
"1214.17 2057.34 OFFCURVE",
"756.99 2047.71 CURVE SMOOTH",
"589.819 2042.87 OFFCURVE",
"491.436 2009.21 OFFCURVE",
"363.569 1903.38 CURVE SMOOTH",
"4.6122 1619.54 OFFCURVE",
"39.0669 1354.96 OFFCURVE",
"201.301 720 CURVE SMOOTH",
"275.069 455.415 OFFCURVE",
"34.1298 441.003 OFFCURVE",
"127.576 186.001 CURVE SMOOTH",
"196.398 -2 OFFCURVE",
"702.944 -83 OFFCURVE",
"1238.87 113.92 CURVE SMOOTH",
"1774.84 306.253 OFFCURVE",
"2109.26 691.081 OFFCURVE",
"2040.44 878.754 CURVE SMOOTH"
);
},
{
closed = 1;
nodes = (
"702.944 99.4133 OFFCURVE",
"309.523 200.414 OFFCURVE",
"294.791 243.746 CURVE",
"265.229 320.666 OFFCURVE",
"447.22 585.336 OFFCURVE",
"992.992 782.498 CURVE SMOOTH",
"1538.89 979.746 OFFCURVE",
"1843.67 907.58 OFFCURVE",
"1878.08 816.171 CURVE SMOOTH",
"1897.84 768.085 OFFCURVE",
"1656.77 445.747 OFFCURVE",
"1179.92 272.58 CURVE SMOOTH"
);
},
{
closed = 1;
nodes = (
"789.531 564.956 OFFCURVE",
"997.416 655.623 OFFCURVE",
"1085.87 683.131 CURVE",
"1110.22 651.695 OFFCURVE",
"1107.94 591.438 OFFCURVE",
"1107.94 549.894 CURVE SMOOTH",
"1107.94 443.043 OFFCURVE",
"996.617 342.641 OFFCURVE",
"880.32 342.641 CURVE SMOOTH",
"785.004 342.641 OFFCURVE",
"709.41 390.452 OFFCURVE",
"683.407 470.178 CURVE"
);
}
);
width = 2048;
}
);
unicode = E0B5;
},
{
glyphname = uniE0C1;
lastChange = "2013-02-08 03:25:18 +0000";
layers = (
{
layerId = "1371701D-5D17-46B8-86D4-7A7B37AF85DD";
name = Regular;
paths = (
{
closed = 1;
nodes = (
"840 1256 LINE",
"840 1256 OFFCURVE",
"1155 1652 OFFCURVE",
"1155 1693 CURVE SMOOTH",
"1155 1824 OFFCURVE",
"1155 2046 OFFCURVE",
"1155 2046 CURVE SMOOTH",
"1155 2046 OFFCURVE",
"1199 2082 OFFCURVE",
"1253 2085 CURVE SMOOTH",
"1306 2088 OFFCURVE",
"1353 2048 OFFCURVE",
"1353 2048 CURVE SMOOTH",
"1353 2048 OFFCURVE",
"1461 1849 OFFCURVE",
"1465 1694 CURVE SMOOTH",
"1469 1538 OFFCURVE",
"1421 1471 OFFCURVE",
"1421 1471 CURVE SMOOTH",
"1421 1471 OFFCURVE",
"1923 1373 OFFCURVE",
"2077 1340 CURVE SMOOTH",
"2146 1325 OFFCURVE",
"2216 1286 OFFCURVE",
"2208 1209 CURVE SMOOTH",
"2199 1132 OFFCURVE",
"2131 1097 OFFCURVE",
"2125 1074 CURVE SMOOTH",
"2116 1039 OFFCURVE",
"2180 993 OFFCURVE",
"2167 923 CURVE SMOOTH",
"2149 823 OFFCURVE",
"2051 784 OFFCURVE",
"2043 757 CURVE SMOOTH",
"2035 730 OFFCURVE",
"2076 692 OFFCURVE",
"2065 626 CURVE SMOOTH",
"2053 559 OFFCURVE",
"1974 485 OFFCURVE",
"1969 461 CURVE SMOOTH",
"1964 438 OFFCURVE",
"1990 396 OFFCURVE",
"1975 323 CURVE SMOOTH",
"1960 251 OFFCURVE",
"1855 223 OFFCURVE",
"1834 212 CURVE SMOOTH",
"1815 201 OFFCURVE",
"1685 157 OFFCURVE",
"1496 163 CURVE SMOOTH",
"1241 170 OFFCURVE",
"840 292 OFFCURVE",
"840 292 CURVE SMOOTH",
"643 292 LINE",
"643 1142 LINE"
);
},
{
closed = 1;
nodes = (
"131 1186 LINE SMOOTH",
"61 1186 OFFCURVE",
"4 1129 OFFCURVE",
"4 1058 CURVE SMOOTH",
"4 290 LINE SMOOTH",
"4 219 OFFCURVE",
"4 290 OFFCURVE",
"4 162 CURVE",
"387 162 LINE SMOOTH",
"458 162 OFFCURVE",
"516 219 OFFCURVE",
"516 290 CURVE SMOOTH",
"516 1058 LINE SMOOTH",
"516 1129 OFFCURVE",
"458 1186 OFFCURVE",
"387 1186 CURVE SMOOTH"
);
},
{
closed = 1;
nodes = (
"288 290 OFFCURVE",
"259 319 OFFCURVE",
"259 354 CURVE SMOOTH",
"259 389 OFFCURVE",
"288 418 OFFCURVE",
"323 418 CURVE SMOOTH",
"359 418 OFFCURVE",
"387 389 OFFCURVE",
"387 354 CURVE SMOOTH",
"387 319 OFFCURVE",
"359 290 OFFCURVE",
"323 290 CURVE SMOOTH"
);
}
);
width = 2432;
}
);
unicode = E0C1;
},
{
glyphname = uniE0C3;
lastChange = "2013-02-13 06:58:39 +0000";
layers = (
{
layerId = "1371701D-5D17-46B8-86D4-7A7B37AF85DD";
name = Regular;
paths = (
{
closed = 1;
nodes = (
"997 2156 OFFCURVE",
"1051 2156 OFFCURVE",
"1083 2094 CURVE SMOOTH",
"1315 1651 LINE SMOOTH",
"1348 1589 OFFCURVE",
"1432 1528 OFFCURVE",
"1501 1516 CURVE SMOOTH",
"1993 1433 LINE SMOOTH",
"2063 1421 OFFCURVE",
"2079 1370 OFFCURVE",
"2030 1320 CURVE SMOOTH",
"1681 962 LINE SMOOTH",
"1632 912 OFFCURVE",
"1600 814 OFFCURVE",
"1610 744 CURVE SMOOTH",
"1683 250 LINE SMOOTH",
"1693 179 OFFCURVE",
"1649 148 OFFCURVE",
"1586 179 CURVE SMOOTH",
"1139 402 LINE SMOOTH",
"1076 433 OFFCURVE",
"972 433 OFFCURVE",
"909 402 CURVE SMOOTH",
"462 179 LINE SMOOTH",
"399 148 OFFCURVE",
"355 179 OFFCURVE",
"366 250 CURVE SMOOTH",
"438 744 LINE SMOOTH",
"448 814 OFFCURVE",
"417 912 OFFCURVE",
"367 962 CURVE SMOOTH",
"18 1320 LINE SMOOTH",
"-31 1370 OFFCURVE",
"-15 1421 OFFCURVE",
"55 1433 CURVE SMOOTH",
"547 1516 LINE SMOOTH",
"617 1528 OFFCURVE",
"700 1589 OFFCURVE",
"733 1651 CURVE SMOOTH",
"965 2094 LINE SMOOTH"
);
}
);
width = 2048;
}
);
unicode = E0C3;
},
{
glyphname = uniE0C4;
lastChange = "2013-02-13 06:58:47 +0000";
layers = (
{
layerId = "1371701D-5D17-46B8-86D4-7A7B37AF85DD";
name = Regular;
paths = (
{
closed = 1;
nodes = (
"1202 1590 LINE SMOOTH",
"1253 1492 OFFCURVE",
"1370 1407 OFFCURVE",
"1479 1388 CURVE SMOOTH",
"1857 1324 LINE",
"1589 1050 LINE SMOOTH",
"1512 971 OFFCURVE",
"1467 833 OFFCURVE",
"1483 724 CURVE SMOOTH",
"1539 345 LINE",
"1196 515 LINE SMOOTH",
"1148 539 OFFCURVE",
"1087 552 OFFCURVE",
"1024 552 CURVE SMOOTH",
"979 552 OFFCURVE",
"914 545 OFFCURVE",
"852 515 CURVE SMOOTH",
"509 345 LINE",
"565 724 LINE SMOOTH",
"581 834 OFFCURVE",
"536 971 OFFCURVE",
"459 1050 CURVE SMOOTH",
"191 1324 LINE",
"569 1388 LINE SMOOTH",
"678 1407 OFFCURVE",
"795 1492 OFFCURVE",
"846 1590 CURVE SMOOTH",
"1024 1929 LINE"
);
},
{
closed = 1;
nodes = (
"1003 2139 OFFCURVE",
"981 2123 OFFCURVE",
"965 2092 CURVE SMOOTH",
"733 1649 LINE SMOOTH",
"700 1587 OFFCURVE",
"617 1526 OFFCURVE",
"547 1514 CURVE SMOOTH",
"55 1431 LINE SMOOTH",
"-15 1419 OFFCURVE",
"-31 1368 OFFCURVE",
"18 1318 CURVE SMOOTH",
"367 961 LINE SMOOTH",
"417 910 OFFCURVE",
"448 812 OFFCURVE",
"438 742 CURVE SMOOTH",
"366 248 LINE SMOOTH",
"358 197 OFFCURVE",
"380 166 OFFCURVE",
"417 166 CURVE SMOOTH",
"430 166 OFFCURVE",
"445 170 OFFCURVE",
"462 178 CURVE SMOOTH",
"909 400 LINE SMOOTH",
"941 416 OFFCURVE",
"982 424 OFFCURVE",
"1024 424 CURVE SMOOTH",
"1065 424 OFFCURVE",
"1107 416 OFFCURVE",
"1139 400 CURVE SMOOTH",
"1586 178 LINE SMOOTH",
"1603 170 OFFCURVE",
"1618 166 OFFCURVE",
"1631 166 CURVE SMOOTH",
"1669 166 OFFCURVE",
"1690 197 OFFCURVE",
"1683 248 CURVE SMOOTH",
"1610 742 LINE SMOOTH",
"1600 812 OFFCURVE",
"1632 910 OFFCURVE",
"1681 961 CURVE SMOOTH",
"2030 1318 LINE SMOOTH",
"2079 1368 OFFCURVE",
"2063 1419 OFFCURVE",
"1993 1431 CURVE SMOOTH",
"1501 1514 LINE SMOOTH",
"1432 1526 OFFCURVE",
"1348 1587 OFFCURVE",
"1315 1649 CURVE SMOOTH",
"1083 2092 LINE SMOOTH",
"1067 2123 OFFCURVE",
"1046 2139 OFFCURVE",
"1024 2139 CURVE SMOOTH"
);
}
);
width = 2048;
}
);
unicode = E0C4;
},
{
glyphname = uniE0C5;
lastChange = "2013-02-13 06:59:32 +0000";
layers = (
{
layerId = "1371701D-5D17-46B8-86D4-7A7B37AF85DD";
name = Regular;
paths = (
{
closed = 1;
nodes = (
"2071 1368 OFFCURVE",
"2055 1419 OFFCURVE",
"1985 1431 CURVE SMOOTH",
"1493 1514 LINE SMOOTH",
"1423 1526 OFFCURVE",
"1340 1587 OFFCURVE",
"1307 1649 CURVE SMOOTH",
"1075 2092 LINE SMOOTH",
"1059 2123 OFFCURVE",
"1037 2139 OFFCURVE",
"1016 2139 CURVE SMOOTH",
"1012 2139 OFFCURVE",
"1009 2136 OFFCURVE",
"1006 2135 CURVE",
"1006 2137 LINE",
"1001 2136 OFFCURVE",
"997 2132 OFFCURVE",
"992 2130 CURVE",
"989 2128 OFFCURVE",
"986 2128 OFFCURVE",
"983 2125 CURVE SMOOTH",
"973 2118 OFFCURVE",
"964 2109 OFFCURVE",
"956 2094 CURVE SMOOTH",
"725 1651 LINE SMOOTH",
"692 1589 OFFCURVE",
"609 1528 OFFCURVE",
"539 1516 CURVE SMOOTH",
"46 1433 LINE SMOOTH",
"11 1427 OFFCURVE",
"-10 1410 OFFCURVE",
"-16 1389 CURVE",
"-23 1368 OFFCURVE",
"-15 1343 OFFCURVE",
"10 1318 CURVE SMOOTH",
"359 961 LINE SMOOTH",
"396 923 OFFCURVE",
"423 858 OFFCURVE",
"430 799 CURVE SMOOTH",
"432 780 OFFCURVE",
"437 761 OFFCURVE",
"434 744 CURVE SMOOTH",
"366 250 LINE",
"366 249 OFFCURVE",
"366 249 OFFCURVE",
"366 248 CURVE SMOOTH",
"366 248 LINE SMOOTH",
"366 232 OFFCURVE",
"360 219 OFFCURVE",
"363 208 CURVE",
"364 206 OFFCURVE",
"362 205 OFFCURVE",
"363 203 CURVE SMOOTH",
"370 180 OFFCURVE",
"385 166 OFFCURVE",
"409 166 CURVE SMOOTH",
"423 166 OFFCURVE",
"437 170 OFFCURVE",
"454 178 CURVE SMOOTH",
"901 400 LINE SMOOTH",
"933 416 OFFCURVE",
"974 424 OFFCURVE",
"1016 424 CURVE SMOOTH",
"1057 424 OFFCURVE",
"1099 416 OFFCURVE",
"1131 400 CURVE SMOOTH",
"1578 178 LINE SMOOTH",
"1595 170 OFFCURVE",
"1610 166 OFFCURVE",
"1623 166 CURVE SMOOTH",
"1660 166 OFFCURVE",
"1682 197 OFFCURVE",
"1674 248 CURVE SMOOTH",
"1602 742 LINE SMOOTH",
"1591 812 OFFCURVE",
"1623 910 OFFCURVE",
"1673 961 CURVE SMOOTH",
"2022 1318 LINE SMOOTH"
);
},
{
closed = 1;
nodes = (
"1503 971 OFFCURVE",
"1459 833 OFFCURVE",
"1475 724 CURVE SMOOTH",
"1531 345 LINE",
"1187 515 LINE SMOOTH",
"1139 539 OFFCURVE",
"1079 552 OFFCURVE",
"1016 552 CURVE SMOOTH",
"1016 552 OFFCURVE",
"1016 1929 OFFCURVE",
"1016 1929 CURVE",
"1194 1590 LINE SMOOTH",
"1245 1492 OFFCURVE",
"1362 1407 OFFCURVE",
"1471 1388 CURVE SMOOTH",
"1849 1324 LINE",
"1581 1050 LINE SMOOTH"
);
}
);
width = 2048;
}
);
unicode = E0C5;
},
{
glyphname = uniE0C6;
lastChange = "2013-02-08 06:35:28 +0000";
layers = (
{
layerId = "1371701D-5D17-46B8-86D4-7A7B37AF85DD";
name = Regular;
paths = (
{
closed = 1;
nodes = (
"480 2048 OFFCURVE",
"0 1600 OFFCURVE",
"0 1024 CURVE SMOOTH",
"0 480 OFFCURVE",
"480 0 OFFCURVE",
"1024 0 CURVE SMOOTH",
"1600 0 OFFCURVE",
"2048 480 OFFCURVE",
"2048 1024 CURVE SMOOTH",
"2048 1600 OFFCURVE",
"1600 2048 OFFCURVE",
"1024 2048 CURVE SMOOTH"
);
},
{
closed = 1;
nodes = (
"1088 1536 OFFCURVE",
"1024 1600 OFFCURVE",
"1024 1664 CURVE SMOOTH",
"1024 1760 OFFCURVE",
"1088 1792 OFFCURVE",
"1152 1792 CURVE SMOOTH",
"1248 1792 OFFCURVE",
"1280 1760 OFFCURVE",
"1280 1664 CURVE SMOOTH",
"1280 1600 OFFCURVE",
"1248 1536 OFFCURVE",
"1152 1536 CURVE SMOOTH"
);
},
{
closed = 1;
nodes = (
"704 1152 LINE",
"800 1248 OFFCURVE",
"960 1408 OFFCURVE",
"1120 1408 CURVE SMOOTH",
"1184 1408 OFFCURVE",
"1248 1344 OFFCURVE",
"1248 1280 CURVE SMOOTH",
"1248 1120 OFFCURVE",
"992 640 OFFCURVE",
"992 576 CURVE SMOOTH",
"992 544 OFFCURVE",
"1024 512 OFFCURVE",
"1024 512 CURVE SMOOTH",
"1120 512 OFFCURVE",
"1184 640 OFFCURVE",
"1248 704 CURVE",
"1312 640 LINE",
"1216 512 OFFCURVE",
"992 288 OFFCURVE",
"864 288 CURVE SMOOTH",
"768 288 OFFCURVE",
"736 352 OFFCURVE",
"736 448 CURVE SMOOTH",
"736 544 OFFCURVE",
"992 1088 OFFCURVE",
"992 1184 CURVE SMOOTH",
"992 1184 OFFCURVE",
"960 1216 OFFCURVE",
"928 1216 CURVE SMOOTH",
"864 1216 OFFCURVE",
"800 1120 OFFCURVE",
"768 1088 CURVE"
);
}
);
width = 2048;
}
);
unicode = E0C6;
},
{
glyphname = uniE0C7;
lastChange = "2013-02-09 08:02:52 +0000";
layers = (
{
layerId = "1371701D-5D17-46B8-86D4-7A7B37AF85DD";
name = Regular;
paths = (
{
closed = 1;
nodes = (
"1600 514 OFFCURVE",
"1342 256 OFFCURVE",
"1024 256 CURVE SMOOTH",
"706 256 OFFCURVE",
"448 514 OFFCURVE",
"448 832 CURVE SMOOTH",
"448 1150 OFFCURVE",
"706 1408 OFFCURVE",
"1024 1408 CURVE",
"1024 1024 LINE",
"1664 1600 LINE",
"1024 2176 LINE",
"1024 1792 LINE",
"494 1792 OFFCURVE",
"64 1362 OFFCURVE",
"64 832 CURVE SMOOTH",
"64 302 OFFCURVE",
"494 -128 OFFCURVE",
"1024 -128 CURVE SMOOTH",
"1554 -128 OFFCURVE",
"1984 302 OFFCURVE",
"1984 832 CURVE",
"1600 832 LINE"
);
}
);
width = 2048;
}
);
unicode = E0C7;
},
{
glyphname = uniE0CA;
lastChange = "2013-02-13 06:55:37 +0000";
layers = (
{
layerId = "1371701D-5D17-46B8-86D4-7A7B37AF85DD";
name = Regular;
paths = (
{
closed = 1;
nodes = (
"1664 1408 LINE SMOOTH",
"1664 1762 OFFCURVE",
"1378 2048 OFFCURVE",
"1024 2048 CURVE SMOOTH",
"671 2048 OFFCURVE",
"384 1762 OFFCURVE",
"384 1408 CURVE SMOOTH",
"384 1280 LINE",
"313 1280 OFFCURVE",
"256 1223 OFFCURVE",
"256 1152 CURVE SMOOTH",
"256 256 LINE SMOOTH",
"256 185 OFFCURVE",
"313 128 OFFCURVE",
"384 128 CURVE SMOOTH",
"1664 128 LINE SMOOTH",
"1735 128 OFFCURVE",
"1792 185 OFFCURVE",
"1792 256 CURVE SMOOTH",
"1792 1152 LINE SMOOTH",
"1792 1223 OFFCURVE",
"1735 1280 OFFCURVE",
"1664 1280 CURVE"
);
},
{
closed = 1;
nodes = (
"640 1620 OFFCURVE",
"812 1792 OFFCURVE",
"1024 1792 CURVE SMOOTH",
"1236 1792 OFFCURVE",
"1408 1620 OFFCURVE",
"1408 1408 CURVE SMOOTH",
"1408 1280 LINE",
"640 1280 LINE",
"640 1408 LINE SMOOTH"
);
},
{
closed = 1;
nodes = (
"1088 448 LINE SMOOTH",
"1088 413 OFFCURVE",
"1059 384 OFFCURVE",
"1024 384 CURVE SMOOTH",
"989 384 OFFCURVE",
"960 413 OFFCURVE",
"960 448 CURVE SMOOTH",
"960 658 LINE",
"922 680 OFFCURVE",
"896 721 OFFCURVE",
"896 768 CURVE SMOOTH",
"896 839 OFFCURVE",
"953 896 OFFCURVE",
"1024 896 CURVE SMOOTH",
"1095 896 OFFCURVE",
"1152 839 OFFCURVE",
"1152 768 CURVE SMOOTH",
"1152 721 OFFCURVE",
"1126 680 OFFCURVE",
"1088 658 CURVE"
);
}
);
width = 2048;
}
);
unicode = E0CA;
},
{
glyphname = uniE0CB;
lastChange = "2013-02-13 06:56:24 +0000";
layers = (
{
layerId = "1371701D-5D17-46B8-86D4-7A7B37AF85DD";
name = Regular;
paths = (
{
closed = 1;
nodes = (
"1664 1664 LINE SMOOTH",
"1664 2018 OFFCURVE",
"1378 2304 OFFCURVE",
"1024 2304 CURVE SMOOTH",
"671 2304 OFFCURVE",
"384 2018 OFFCURVE",
"384 1664 CURVE SMOOTH",
"384 1600 LINE",
"448 1536 LINE",
"576 1536 LINE",
"640 1600 LINE",
"640 1664 LINE SMOOTH",
"640 1876 OFFCURVE",
"812 2048 OFFCURVE",
"1024 2048 CURVE SMOOTH",
"1236 2048 OFFCURVE",
"1408 1876 OFFCURVE",
"1408 1664 CURVE SMOOTH",
"1408 1280 LINE",
"640 1280 LINE",
"384 1280 LINE SMOOTH",
"313 1280 OFFCURVE",
"256 1223 OFFCURVE",
"256 1152 CURVE SMOOTH",
"256 256 LINE SMOOTH",
"256 185 OFFCURVE",
"313 128 OFFCURVE",
"384 128 CURVE SMOOTH",
"1664 128 LINE SMOOTH",
"1735 128 OFFCURVE",
"1792 185 OFFCURVE",
"1792 256 CURVE SMOOTH",
"1792 1152 LINE SMOOTH",
"1792 1223 OFFCURVE",
"1735 1280 OFFCURVE",
"1664 1280 CURVE"
);
},
{
closed = 1;
nodes = (
"1088 448 LINE SMOOTH",
"1088 413 OFFCURVE",
"1059 384 OFFCURVE",
"1024 384 CURVE SMOOTH",
"989 384 OFFCURVE",
"960 413 OFFCURVE",
"960 448 CURVE SMOOTH",
"960 658 LINE",
"922 680 OFFCURVE",
"896 721 OFFCURVE",
"896 768 CURVE SMOOTH",
"896 839 OFFCURVE",
"953 896 OFFCURVE",
"1024 896 CURVE SMOOTH",
"1095 896 OFFCURVE",
"1152 839 OFFCURVE",
"1152 768 CURVE SMOOTH",
"1152 721 OFFCURVE",
"1126 680 OFFCURVE",
"1088 658 CURVE"
);
}
);
width = 2048;
}
);
unicode = E0CB;
},
{
glyphname = uniE0CC;
lastChange = "2013-02-12 07:21:08 +0000";
layers = (
{
layerId = "1371701D-5D17-46B8-86D4-7A7B37AF85DD";
name = Regular;
paths = (
{
closed = 1;
nodes = (
"1793 390 LINE",
"1793 358 LINE SMOOTH",
"1793 297 OFFCURVE",
"1743 247 OFFCURVE",
"1682 247 CURVE SMOOTH",
"1650 247 LINE",
"377 247 LINE",
"361 247 LINE SMOOTH",
"300 247 OFFCURVE",
"250 297 OFFCURVE",
"250 358 CURVE SMOOTH",
"250 390 LINE",
"250 1539 LINE",
"250 1555 LINE SMOOTH",
"250 1616 OFFCURVE",
"300 1666 OFFCURVE",
"361 1666 CURVE SMOOTH",
"377 1666 LINE",
"1564 1666 LINE",
"1765 1895 LINE",
"1725 1909 OFFCURVE",
"1682 1917 OFFCURVE",
"1638 1917 CURVE SMOOTH",
"349 1917 LINE SMOOTH",
"147 1917 OFFCURVE",
"-1 1769 OFFCURVE",
"-1 1567 CURVE SMOOTH",
"-1 366 LINE SMOOTH",
"-1 164 OFFCURVE",
"147 0 OFFCURVE",
"349 0 CURVE SMOOTH",
"1682 0 LINE SMOOTH",
"1883 0 OFFCURVE",
"2048 164 OFFCURVE",
"2048 366 CURVE SMOOTH",
"2048 1119 LINE",
"1793 897 LINE"
);
},
{
closed = 1;
nodes = (
"1035 960 LINE",
"1997 1921 LINE",
"2303 1616 LINE",
"1341 654 LINE"
);
},
{
closed = 1;
nodes = (
"1226 553 OFFCURVE",
"1231 579 OFFCURVE",
"1210 600 CURVE SMOOTH",
"981 829 LINE SMOOTH",
"960 850 OFFCURVE",
"934 845 OFFCURVE",
"924 817 CURVE SMOOTH",
"771 421 LINE SMOOTH",
"761 393 OFFCURVE",
"775 379 OFFCURVE",
"802 390 CURVE SMOOTH",
"1198 542 LINE SMOOTH"
);
},
{
closed = 1;
nodes = (
"2319 2166 LINE SMOOTH",
"2298 2187 OFFCURVE",
"2263 2187 OFFCURVE",
"2242 2166 CURVE SMOOTH",
"2204 2128 LINE",
"2127 2052 LINE",
"2089 2014 LINE",
"2127 1975 LINE",
"2357 1746 LINE",
"2395 1708 LINE",
"2433 1746 LINE",
"2510 1822 LINE",
"2548 1861 LINE SMOOTH",
"2569 1882 OFFCURVE",
"2569 1916 OFFCURVE",
"2548 1937 CURVE SMOOTH"
);
}
);
width = 2560;
}
);
unicode = E0CC;
},
{
glyphname = uniE0CD;
lastChange = "2013-02-12 07:14:18 +0000";
layers = (
{
layerId = "1371701D-5D17-46B8-86D4-7A7B37AF85DD";
name = Regular;
paths = (
{
closed = 1;
nodes = (
"395 636 LINE",
"1356 1598 LINE",
"1662 1292 LINE",
"700 330 LINE"
);
},
{
closed = 1;
nodes = (
"585 229 OFFCURVE",
"591 255 OFFCURVE",
"570 276 CURVE SMOOTH",
"341 506 LINE SMOOTH",
"320 527 OFFCURVE",
"294 521 OFFCURVE",
"283 493 CURVE SMOOTH",
"131 98 LINE SMOOTH",
"120 70 OFFCURVE",
"134 56 OFFCURVE",
"162 67 CURVE SMOOTH",
"558 219 LINE SMOOTH"
);
},
{
closed = 1;
nodes = (
"1678 1843 LINE SMOOTH",
"1657 1864 OFFCURVE",
"1622 1864 OFFCURVE",
"1601 1843 CURVE SMOOTH",
"1563 1805 LINE",
"1487 1728 LINE",
"1449 1690 LINE",
"1487 1652 LINE",
"1716 1423 LINE",
"1754 1384 LINE",
"1792 1423 LINE",
"1869 1499 LINE",
"1907 1537 LINE SMOOTH",
"1928 1558 OFFCURVE",
"1928 1593 OFFCURVE",
"1907 1614 CURVE SMOOTH"
);
}
);
width = 2048;
}
);
unicode = E0CD;
},
{
glyphname = uniE0CE;
lastChange = "2013-03-13 08:11:32 +0000";
layers = (
{
layerId = "1371701D-5D17-46B8-86D4-7A7B37AF85DD";
name = Regular;
paths = (
{
closed = 1;
nodes = (
"705 22 OFFCURVE",
"1301 16 OFFCURVE",
"1686 396 CURVE SMOOTH",
"1687 398 OFFCURVE",
"1690 401 OFFCURVE",
"1690 401 CURVE",
"1858 571 OFFCURVE",
"1962 804 OFFCURVE",
"1965 1062 CURVE SMOOTH",
"1965 1073 OFFCURVE",
"1965 1085 OFFCURVE",
"1965 1095 CURVE",
"1773 1096 LINE",
"1774 1085 OFFCURVE",
"1773 1075 OFFCURVE",
"1773 1064 CURVE SMOOTH",
"1771 855 OFFCURVE",
"1685 666 OFFCURVE",
"1548 529 CURVE SMOOTH",
"1542 524 OFFCURVE",
"1537 519 OFFCURVE",
"1532 515 CURVE SMOOTH",
"1523 506 OFFCURVE",
"1514 498 OFFCURVE",
"1505 491 CURVE SMOOTH",
"1493 480 OFFCURVE",
"1481 471 OFFCURVE",
"1469 461 CURVE SMOOTH",
"1461 456 OFFCURVE",
"1454 451 OFFCURVE",
"1447 446 CURVE SMOOTH",
"1436 438 OFFCURVE",
"1425 430 OFFCURVE",
"1413 423 CURVE SMOOTH",
"1398 413 OFFCURVE",
"1383 404 OFFCURVE",
"1367 396 CURVE SMOOTH",
"1366 395 OFFCURVE",
"1364 394 OFFCURVE",
"1363 393 CURVE SMOOTH",
"1200 306 OFFCURVE",
"1018 283 OFFCURVE",
"847 321 CURVE SMOOTH",
"842 322 OFFCURVE",
"838 323 OFFCURVE",
"833 325 CURVE SMOOTH",
"821 328 OFFCURVE",
"808 331 OFFCURVE",
"796 335 CURVE SMOOTH",
"675 370 OFFCURVE",
"561 437 OFFCURVE",
"465 533 CURVE SMOOTH",
"165 833 OFFCURVE",
"167 1314 OFFCURVE",
"467 1614 CURVE SMOOTH",
"549 1696 OFFCURVE",
"643 1756 OFFCURVE",
"744 1794 CURVE SMOOTH",
"754 1798 OFFCURVE",
"764 1802 OFFCURVE",
"775 1805 CURVE SMOOTH",
"779 1806 OFFCURVE",
"783 1808 OFFCURVE",
"787 1809 CURVE SMOOTH",
"861 1832 OFFCURVE",
"937 1843 OFFCURVE",
"1014 1843 CURVE SMOOTH",
"1206 1841 OFFCURVE",
"1399 1765 OFFCURVE",
"1555 1609 CURVE",
"1396 1450 LINE",
"1912 1378 LINE",
"1844 1898 LINE",
"1690 1745 LINE",
"1501 1935 OFFCURVE",
"1258 2029 OFFCURVE",
"1016 2031 CURVE SMOOTH",
"767 2033 OFFCURVE",
"519 1938 OFFCURVE",
"330 1748 CURVE SMOOTH",
"-45 1373 OFFCURVE",
"-44 771 OFFCURVE",
"331 396 CURVE SMOOTH"
);
},
{
closed = 1;
nodes = (
"475 1073 LINE",
"1018 1616 LINE",
"1561 1073 LINE",
"1018 530 LINE"
);
}
);
width = 2048;
}
);
unicode = E0CE;
},
{
glyphname = uniE0CF;
lastChange = "2013-03-13 08:11:56 +0000";
layers = (
{
layerId = "1371701D-5D17-46B8-86D4-7A7B37AF85DD";
name = Regular;
paths = (
{
closed = 1;
nodes = (
"1343 22 OFFCURVE",
"747 16 OFFCURVE",
"362 396 CURVE SMOOTH",
"361 398 OFFCURVE",
"358 401 OFFCURVE",
"358 401 CURVE",
"190 571 OFFCURVE",
"86 804 OFFCURVE",
"83 1062 CURVE SMOOTH",
"83 1073 OFFCURVE",
"83 1085 OFFCURVE",
"83 1095 CURVE",
"275 1096 LINE",
"274 1085 OFFCURVE",
"275 1075 OFFCURVE",
"275 1064 CURVE SMOOTH",
"277 855 OFFCURVE",
"363 666 OFFCURVE",
"501 529 CURVE SMOOTH",
"506 524 OFFCURVE",
"511 519 OFFCURVE",
"516 515 CURVE SMOOTH",
"525 506 OFFCURVE",
"534 498 OFFCURVE",
"543 491 CURVE SMOOTH",
"555 480 OFFCURVE",
"567 471 OFFCURVE",
"579 461 CURVE SMOOTH",
"587 456 OFFCURVE",
"594 451 OFFCURVE",
"601 446 CURVE SMOOTH",
"612 438 OFFCURVE",
"623 430 OFFCURVE",
"635 423 CURVE SMOOTH",
"650 413 OFFCURVE",
"665 404 OFFCURVE",
"681 396 CURVE SMOOTH",
"682 395 OFFCURVE",
"684 394 OFFCURVE",
"685 393 CURVE SMOOTH",
"848 306 OFFCURVE",
"1030 283 OFFCURVE",
"1201 321 CURVE SMOOTH",
"1206 322 OFFCURVE",
"1210 323 OFFCURVE",
"1215 325 CURVE SMOOTH",
"1228 328 OFFCURVE",
"1240 331 OFFCURVE",
"1252 335 CURVE SMOOTH",
"1373 370 OFFCURVE",
"1487 437 OFFCURVE",
"1583 533 CURVE SMOOTH",
"1883 833 OFFCURVE",
"1881 1314 OFFCURVE",
"1581 1614 CURVE SMOOTH",
"1499 1696 OFFCURVE",
"1405 1756 OFFCURVE",
"1304 1794 CURVE SMOOTH",
"1294 1798 OFFCURVE",
"1284 1802 OFFCURVE",
"1273 1805 CURVE SMOOTH",
"1269 1806 OFFCURVE",
"1265 1808 OFFCURVE",
"1261 1809 CURVE SMOOTH",
"1187 1832 OFFCURVE",
"1111 1843 OFFCURVE",
"1034 1843 CURVE SMOOTH",
"842 1841 OFFCURVE",
"649 1765 OFFCURVE",
"493 1609 CURVE",
"652 1450 LINE",
"136 1378 LINE",
"204 1898 LINE",
"358 1745 LINE",
"547 1935 OFFCURVE",
"790 2029 OFFCURVE",
"1032 2031 CURVE SMOOTH",
"1281 2033 OFFCURVE",
"1529 1938 OFFCURVE",
"1718 1748 CURVE SMOOTH",
"2093 1373 OFFCURVE",
"2092 771 OFFCURVE",
"1717 396 CURVE SMOOTH"
);
},
{
closed = 1;
nodes = (
"1573 1073 LINE",
"1030 1616 LINE",
"487 1073 LINE",
"1030 530 LINE"
);
}
);
width = 2048;
}
);
unicode = E0CF;
},
{
glyphname = uniE0D0;
lastChange = "2013-10-08 07:35:02 +0000";
layers = (
{
layerId = "1371701D-5D17-46B8-86D4-7A7B37AF85DD";
name = Regular;
paths = (
{
closed = 1;
nodes = (
"630 2433 OFFCURVE",
"0 1802 OFFCURVE",
"0 1024 CURVE SMOOTH",
"0 247 OFFCURVE",
"630 -385 OFFCURVE",
"1408 -385 CURVE SMOOTH",
"2186 -385 OFFCURVE",
"2816 247 OFFCURVE",
"2816 1024 CURVE SMOOTH",
"2816 1802 OFFCURVE",
"2186 2433 OFFCURVE",
"1408 2433 CURVE"
);
},
{
closed = 1;
nodes = (
"701 -257 OFFCURVE",
"128 318 OFFCURVE",
"128 1024 CURVE SMOOTH",
"128 1731 OFFCURVE",
"701 2305 OFFCURVE",
"1408 2305 CURVE SMOOTH",
"2115 2305 OFFCURVE",
"2688 1731 OFFCURVE",
"2688 1024 CURVE SMOOTH",
"2688 318 OFFCURVE",
"2115 -257 OFFCURVE",
"1408 -257 CURVE"
);
}
);
width = 2816;
}
);
unicode = E0D0;
},
{
glyphname = uniE0D1;
lastChange = "2013-10-08 07:49:19 +0000";
layers = (
{
layerId = "1371701D-5D17-46B8-86D4-7A7B37AF85DD";
name = Regular;
paths = (
{
closed = 1;
nodes = (
"630 2433 OFFCURVE",
"0 1802 OFFCURVE",
"0 1024 CURVE SMOOTH",
"0 247 OFFCURVE",
"630 -385 OFFCURVE",
"1408 -385 CURVE SMOOTH",
"2186 -385 OFFCURVE",
"2816 247 OFFCURVE",
"2816 1024 CURVE SMOOTH",
"2816 1802 OFFCURVE",
"2186 2433 OFFCURVE",
"1408 2433 CURVE"
);
},
{
closed = 1;
nodes = (
"701 -257 OFFCURVE",
"128 318 OFFCURVE",
"128 1025 CURVE SMOOTH",
"128 1731 OFFCURVE",
"701 2305 OFFCURVE",
"1408 2305 CURVE SMOOTH",
"2115 2305 OFFCURVE",
"2688 1731 OFFCURVE",
"2688 1025 CURVE SMOOTH",
"2688 318 OFFCURVE",
"2115 -257 OFFCURVE",
"1408 -257 CURVE"
);
},
{
closed = 1;
nodes = (
"1877 766 OFFCURVE",
"1667 556 OFFCURVE",
"1408 556 CURVE SMOOTH",
"1149 556 OFFCURVE",
"939 766 OFFCURVE",
"939 1024 CURVE SMOOTH",
"939 1283 OFFCURVE",
"1149 1493 OFFCURVE",
"1408 1493 CURVE SMOOTH",
"1667 1493 OFFCURVE",
"1877 1283 OFFCURVE",
"1877 1024 CURVE"
);
}
);
width = 2816;
}
);
unicode = E0D1;
},
{
glyphname = uniE0D2;
lastChange = "2013-10-12 06:06:33 +0000";
layers = (
{
layerId = "1371701D-5D17-46B8-86D4-7A7B37AF85DD";
name = Regular;
paths = (
{
closed = 1;
nodes = (
"384 2433 LINE SMOOTH",
"172 2433 OFFCURVE",
"0 2261 OFFCURVE",
"0 2048 CURVE SMOOTH",
"0 -1 LINE SMOOTH",
"0 -213 OFFCURVE",
"172 -385 OFFCURVE",
"384 -385 CURVE SMOOTH",
"2432 -385 LINE SMOOTH",
"2644 -385 OFFCURVE",
"2816 -213 OFFCURVE",
"2816 -1 CURVE SMOOTH",
"2816 2048 LINE SMOOTH",
"2816 2261 OFFCURVE",
"2644 2433 OFFCURVE",
"2432 2433 CURVE"
);
},
{
closed = 1;
nodes = (
"2688 -113 OFFCURVE",
"2545 -257 OFFCURVE",
"2368 -257 CURVE SMOOTH",
"448 -257 LINE SMOOTH",
"271 -257 OFFCURVE",
"128 -113 OFFCURVE",
"128 64 CURVE SMOOTH",
"128 1984 LINE SMOOTH",
"128 2161 OFFCURVE",
"271 2305 OFFCURVE",
"448 2305 CURVE SMOOTH",
"2368 2305 LINE SMOOTH",
"2545 2305 OFFCURVE",
"2688 2161 OFFCURVE",
"2688 1984 CURVE SMOOTH",
"2688 64 LINE"
);
}
);
width = 2816;
}
);
unicode = E0D2;
},
{
glyphname = uniE0D3;
lastChange = "2013-11-16 22:52:51 +0000";
layers = (
{
layerId = "1371701D-5D17-46B8-86D4-7A7B37AF85DD";
name = Regular;
paths = (
{
closed = 1;
nodes = (
"384 2433 LINE SMOOTH",
"172 2433 OFFCURVE",
"0 2261 OFFCURVE",
"0 2048 CURVE SMOOTH",
"0 -1 LINE SMOOTH",
"0 -213 OFFCURVE",
"172 -385 OFFCURVE",
"384 -385 CURVE SMOOTH",
"2432 -385 LINE SMOOTH",
"2644 -385 OFFCURVE",
"2816 -213 OFFCURVE",
"2816 -1 CURVE SMOOTH",
"2816 2048 LINE SMOOTH",
"2816 2261 OFFCURVE",
"2644 2433 OFFCURVE",
"2432 2433 CURVE SMOOTH"
);
},
{
closed = 1;
nodes = (
"2688 -113 OFFCURVE",
"2545 -257 OFFCURVE",
"2368 -257 CURVE SMOOTH",
"448 -257 LINE SMOOTH",
"271 -257 OFFCURVE",
"128 -113 OFFCURVE",
"128 64 CURVE SMOOTH",
"128 1984 LINE SMOOTH",
"128 2161 OFFCURVE",
"271 2305 OFFCURVE",
"448 2305 CURVE SMOOTH",
"2368 2305 LINE SMOOTH",
"2545 2305 OFFCURVE",
"2688 2161 OFFCURVE",
"2688 1984 CURVE SMOOTH",
"2688 64 LINE SMOOTH"
);
},
{
closed = 1;
nodes = (
"2089 1674 OFFCURVE",
"2047 1674 OFFCURVE",
"2021 1647 CURVE SMOOTH",
"1282 869 LINE SMOOTH",
"1256 842 OFFCURVE",
"1214 842 OFFCURVE",
"1188 869 CURVE SMOOTH",
"919 1151 LINE SMOOTH",
"893 1179 OFFCURVE",
"851 1179 OFFCURVE",
"825 1151 CURVE SMOOTH",
"659 977 LINE SMOOTH",
"633 950 OFFCURVE",
"633 905 OFFCURVE",
"659 879 CURVE SMOOTH",
"1080 433 LINE SMOOTH",
"1106 406 OFFCURVE",
"1157 384 OFFCURVE",
"1194 384 CURVE SMOOTH",
"1271 384 LINE SMOOTH",
"1308 384 OFFCURVE",
"1359 406 OFFCURVE",
"1384 433 CURVE SMOOTH",
"2280 1376 LINE SMOOTH",
"2306 1403 OFFCURVE",
"2306 1448 OFFCURVE",
"2280 1475 CURVE SMOOTH",
"2115 1647 LINE SMOOTH"
);
}
);
width = 2816;
}
);
unicode = E0D3;
},
{
glyphname = uniE0D4;
lastChange = "2013-11-16 22:53:56 +0000";
layers = (
{
layerId = "1371701D-5D17-46B8-86D4-7A7B37AF85DD";
name = Regular;
paths = (
{
closed = 1;
nodes = (
"1220 -221 LINE",
"1220 -385 LINE",
"1590 -385 LINE",
"1590 -221 LINE"
);
},
{
closed = 1;
nodes = (
"165 1207 LINE",
"1 1207 LINE",
"1 837 LINE",
"165 837 LINE"
);
},
{
closed = 1;
nodes = (
"165 694 LINE",
"1 694 LINE",
"1 314 LINE",
"165 314 LINE"
);
},
{
closed = 1;
nodes = (
"1078 2269 LINE",
"1078 2433 LINE",
"698 2433 LINE",
"698 2269 LINE"
);
},
{
closed = 1;
nodes = (
"1077 -221 LINE",
"698 -221 LINE",
"698 -385 LINE",
"1077 -385 LINE"
);
},
{
closed = 1;
nodes = (
"1222 2269 LINE",
"1592 2269 LINE",
"1592 2433 LINE",
"1222 2433 LINE"
);
},
{
closed = 1;
nodes = (
"165 170 LINE",
"1 170 LINE",
"1 43 LINE SMOOTH",
"1 -31 OFFCURVE",
"31 -100 OFFCURVE",
"81 -158 CURVE",
"223 -52 LINE",
"186 -6 OFFCURVE",
"165 47 OFFCURVE",
"165 105 CURVE SMOOTH"
);
},
{
closed = 1;
nodes = (
"2653 173 LINE",
"2653 108 LINE SMOOTH",
"2653 50 OFFCURVE",
"2631 -5 OFFCURVE",
"2593 -51 CURVE",
"2734 -157 LINE",
"2786 -99 OFFCURVE",
"2817 -29 OFFCURVE",
"2817 46 CURVE SMOOTH",
"2817 173 LINE"
);
},
{
closed = 1;
nodes = (
"165 1731 LINE",
"1 1731 LINE",
"1 1351 LINE",
"165 1351 LINE"
);
},
{
closed = 1;
nodes = (
"165 1940 LINE SMOOTH",
"165 1998 OFFCURVE",
"187 2053 OFFCURVE",
"225 2099 CURVE",
"84 2205 LINE",
"32 2146 OFFCURVE",
"1 2076 OFFCURVE",
"1 2001 CURVE SMOOTH",
"1 1874 LINE",
"165 1874 LINE"
);
},
{
closed = 1;
nodes = (
"380 2247 OFFCURVE",
"435 2269 OFFCURVE",
"493 2269 CURVE SMOOTH",
"555 2269 LINE",
"555 2433 LINE",
"432 2433 LINE SMOOTH",
"357 2433 OFFCURVE",
"286 2402 OFFCURVE",
"228 2350 CURVE",
"333 2208 LINE"
);
},
{
closed = 1;
nodes = (
"2328 2269 LINE SMOOTH",
"2386 2269 OFFCURVE",
"2440 2248 OFFCURVE",
"2486 2210 CURVE",
"2591 2352 LINE",
"2533 2403 OFFCURVE",
"2464 2433 OFFCURVE",
"2389 2433 CURVE SMOOTH",
"2259 2433 LINE",
"2259 2269 LINE"
);
},
{
closed = 1;
nodes = (
"493 -221 LINE SMOOTH",
"433 -221 OFFCURVE",
"378 -198 OFFCURVE",
"331 -159 CURVE",
"226 -300 LINE",
"284 -354 OFFCURVE",
"355 -385 OFFCURVE",
"432 -385 CURVE SMOOTH",
"555 -385 LINE",
"555 -221 LINE"
);
},
{
closed = 1;
nodes = (
"2817 1352 LINE",
"2817 1732 LINE",
"2653 1732 LINE",
"2653 1352 LINE"
);
},
{
closed = 1;
nodes = (
"1733 -221 LINE",
"1733 -385 LINE",
"2113 -385 LINE",
"2113 -221 LINE"
);
},
{
closed = 1;
nodes = (
"2438 -199 OFFCURVE",
"2384 -221 OFFCURVE",
"2325 -221 CURVE SMOOTH",
"2256 -221 LINE",
"2256 -385 LINE",
"2386 -385 LINE SMOOTH",
"2462 -385 OFFCURVE",
"2532 -354 OFFCURVE",
"2590 -302 CURVE",
"2485 -160 LINE"
);
},
{
closed = 1;
nodes = (
"1736 2269 LINE",
"2116 2269 LINE",
"2116 2433 LINE",
"1736 2433 LINE"
);
},
{
closed = 1;
nodes = (
"2817 839 LINE",
"2817 1209 LINE",
"2653 1209 LINE",
"2653 839 LINE"
);
},
{
closed = 1;
nodes = (
"2653 1875 LINE",
"2817 1875 LINE",
"2817 2001 LINE SMOOTH",
"2817 2077 OFFCURVE",
"2786 2148 OFFCURVE",
"2732 2207 CURVE",
"2591 2102 LINE",
"2630 2055 OFFCURVE",
"2653 1999 OFFCURVE",
"2653 1940 CURVE SMOOTH"
);
},
{
closed = 1;
nodes = (
"2817 316 LINE",
"2817 696 LINE",
"2653 696 LINE",
"2653 316 LINE"
);
},
{
closed = 1;
nodes = (
"1535 1642 LINE SMOOTH",
"1558 1642 OFFCURVE",
"1577 1620 OFFCURVE",
"1577 1594 CURVE SMOOTH",
"1577 452 LINE SMOOTH",
"1577 427 OFFCURVE",
"1558 406 OFFCURVE",
"1535 406 CURVE SMOOTH",
"1283 406 LINE SMOOTH",
"1260 406 OFFCURVE",
"1241 427 OFFCURVE",
"1241 452 CURVE SMOOTH",
"1241 1594 LINE SMOOTH",
"1241 1620 OFFCURVE",
"1260 1642 OFFCURVE",
"1283 1642 CURVE SMOOTH"
);
},
{
closed = 1;
nodes = (
"791 1150 LINE SMOOTH",
"791 1173 OFFCURVE",
"812 1192 OFFCURVE",
"839 1192 CURVE SMOOTH",
"1981 1192 LINE SMOOTH",
"2006 1192 OFFCURVE",
"2027 1173 OFFCURVE",
"2027 1150 CURVE SMOOTH",
"2027 898 LINE SMOOTH",
"2027 875 OFFCURVE",
"2006 856 OFFCURVE",
"1981 856 CURVE SMOOTH",
"839 856 LINE SMOOTH",
"812 856 OFFCURVE",
"791 875 OFFCURVE",
"791 898 CURVE SMOOTH"
);
}
);
width = 2816;
}
);
unicode = E0D4;
},
{
glyphname = uniE0D5;
lastChange = "2013-11-16 22:53:10 +0000";
layers = (
{
layerId = "1371701D-5D17-46B8-86D4-7A7B37AF85DD";
name = Regular;
paths = (
{
closed = 1;
nodes = (
"381 2433 LINE SMOOTH",
"169 2433 OFFCURVE",
"-3 2261 OFFCURVE",
"-3 2048 CURVE SMOOTH",
"-3 -1 LINE SMOOTH",
"-3 -213 OFFCURVE",
"169 -385 OFFCURVE",
"381 -385 CURVE SMOOTH",
"2430 -385 LINE SMOOTH",
"2642 -385 OFFCURVE",
"2814 -213 OFFCURVE",
"2814 -1 CURVE SMOOTH",
"2814 2048 LINE SMOOTH",
"2814 2261 OFFCURVE",
"2642 2433 OFFCURVE",
"2430 2433 CURVE"
);
},
{
closed = 1;
nodes = (
"1381 433 LINE SMOOTH",
"1356 406 OFFCURVE",
"1305 384 OFFCURVE",
"1268 384 CURVE SMOOTH",
"1191 384 LINE SMOOTH",
"1154 384 OFFCURVE",
"1103 406 OFFCURVE",
"1077 433 CURVE SMOOTH",
"656 879 LINE SMOOTH",
"630 905 OFFCURVE",
"630 950 OFFCURVE",
"656 977 CURVE SMOOTH",
"822 1151 LINE SMOOTH",
"848 1179 OFFCURVE",
"890 1179 OFFCURVE",
"916 1151 CURVE SMOOTH",
"1185 869 LINE SMOOTH",
"1211 842 OFFCURVE",
"1253 842 OFFCURVE",
"1279 869 CURVE SMOOTH",
"2019 1647 LINE SMOOTH",
"2045 1674 OFFCURVE",
"2087 1674 OFFCURVE",
"2113 1647 CURVE SMOOTH",
"2278 1475 LINE SMOOTH",
"2304 1448 OFFCURVE",
"2304 1403 OFFCURVE",
"2278 1376 CURVE"
);
}
);
width = 2818;
}
);
unicode = E0D5;
},
{
glyphname = uniE0D6;
lastChange = "2014-08-15 16:17:15 +0000";
layers = (
{
layerId = "1371701D-5D17-46B8-86D4-7A7B37AF85DD";
name = Regular;
paths = (
{
closed = 0;
nodes = (
"2261 564 LINE"
);
},
{
closed = 1;
nodes = (
"1321 2044 LINE SMOOTH",
"1321 2044 OFFCURVE",
"1307 2156 OFFCURVE",
"1248 2156 CURVE SMOOTH",
"801 2156 LINE SMOOTH",
"737 2156 OFFCURVE",
"726 2044 OFFCURVE",
"726 2044 CURVE SMOOTH",
"188 2044 LINE SMOOTH",
"158 2044 OFFCURVE",
"133 2018 OFFCURVE",
"133 1986 CURVE SMOOTH",
"133 1822 LINE",
"1916 1822 LINE",
"1916 1965 LINE SMOOTH",
"1916 1990 OFFCURVE",
"1873 2044 OFFCURVE",
"1842 2044 CURVE SMOOTH"
);
},
{
closed = 1;
nodes = (
"282 112 LINE SMOOTH",
"282 56 OFFCURVE",
"345 1 OFFCURVE",
"403 1 CURVE SMOOTH",
"1656 1 LINE SMOOTH",
"1712 1 OFFCURVE",
"1768 57 OFFCURVE",
"1768 112 CURVE SMOOTH",
"1768 1723 LINE",
"284 1722 LINE"
);
},
{
closed = 1;
nodes = (
"726 262 OFFCURVE",
"693 225 OFFCURVE",
"653 225 CURVE SMOOTH",
"612 225 OFFCURVE",
"578 262 OFFCURVE",
"578 298 CURVE SMOOTH",
"579 1575 LINE",
"726 1574 LINE",
"726 298 LINE SMOOTH"
);
},
{
closed = 1;
nodes = (
"1100 262 OFFCURVE",
"1061 224 OFFCURVE",
"1025 224 CURVE SMOOTH",
"989 224 OFFCURVE",
"950 262 OFFCURVE",
"950 298 CURVE SMOOTH",
"950 1575 LINE",
"1100 1575 LINE",
"1100 298 LINE SMOOTH"
);
},
{
closed = 1;
nodes = (
"1470 262 OFFCURVE",
"1432 224 OFFCURVE",
"1396 224 CURVE SMOOTH",
"1360 224 OFFCURVE",
"1321 262 OFFCURVE",
"1321 298 CURVE SMOOTH",
"1321 1574 LINE",
"1470 1574 LINE",
"1470 298 LINE SMOOTH"
);
}
);
width = 2048;
}
);
unicode = E0D6;
},
{
glyphname = uniE0D7;
lastChange = "2014-08-15 16:19:23 +0000";
layers = (
{
layerId = "1371701D-5D17-46B8-86D4-7A7B37AF85DD";
name = Regular;
paths = (
{
closed = 1;
nodes = (
"794 209 LINE SMOOTH",
"751 209 OFFCURVE",
"716 244 OFFCURVE",
"716 286 CURVE SMOOTH",
"716 329 OFFCURVE",
"751 363 OFFCURVE",
"794 363 CURVE SMOOTH",
"1254 363 LINE SMOOTH",
"1297 363 OFFCURVE",
"1332 329 OFFCURVE",
"1332 286 CURVE SMOOTH",
"1332 244 OFFCURVE",
"1297 209 OFFCURVE",
"1254 209 CURVE SMOOTH"
);
},
{
closed = 1;
nodes = (
"800 3 LINE SMOOTH",
"754 3 OFFCURVE",
"716 38 OFFCURVE",
"716 80 CURVE SMOOTH",
"716 123 OFFCURVE",
"754 157 OFFCURVE",
"800 157 CURVE SMOOTH",
"1248 157 LINE SMOOTH",
"1294 157 OFFCURVE",
"1332 123 OFFCURVE",
"1332 80 CURVE SMOOTH",
"1332 38 OFFCURVE",
"1294 3 OFFCURVE",
"1248 3 CURVE SMOOTH"
);
},
{
closed = 1;
nodes = (
"622 2206 OFFCURVE",
"295 1880 OFFCURVE",
"295 1477 CURVE SMOOTH",
"295 1292 OFFCURVE",
"367 1124 OFFCURVE",
"483 999 CURVE",
"611 843 OFFCURVE",
"703 492 OFFCURVE",
"717 465 CURVE SMOOTH",
"730 438 OFFCURVE",
"746 414 OFFCURVE",
"819 414 CURVE SMOOTH",
"1229 414 LINE SMOOTH",
"1312 414 OFFCURVE",
"1322 435 OFFCURVE",
"1331 468 CURVE",
"1331 468 OFFCURVE",
"1445 855 OFFCURVE",
"1563 998 CURVE",
"1680 1124 OFFCURVE",
"1751 1292 OFFCURVE",
"1751 1477 CURVE",
"1753 1477 LINE",
"1753 1880 OFFCURVE",
"1426 2206 OFFCURVE",
"1024 2206 CURVE SMOOTH"
);
},
{
closed = 1;
nodes = (
"786 1890 OFFCURVE",
"628 1733 OFFCURVE",
"628 1539 CURVE SMOOTH",
"628 1497 OFFCURVE",
"594 1463 OFFCURVE",
"552 1463 CURVE SMOOTH",
"510 1463 OFFCURVE",
"476 1497 OFFCURVE",
"476 1539 CURVE SMOOTH",
"476 1817 OFFCURVE",
"702 2043 OFFCURVE",
"979 2043 CURVE SMOOTH",
"1021 2043 OFFCURVE",
"1055 2008 OFFCURVE",
"1055 1966 CURVE SMOOTH",
"1055 1924 OFFCURVE",
"1021 1890 OFFCURVE",
"979 1890 CURVE SMOOTH"
);
},
{
closed = 1;
nodes = (
"926 -201 LINE SMOOTH",
"922 -201 OFFCURVE",
"819 -201 OFFCURVE",
"819 -125 CURVE SMOOTH",
"819 -47 OFFCURVE",
"922 -48 OFFCURVE",
"926 -48 CURVE SMOOTH",
"1126 -47 LINE",
"1126 -47 OFFCURVE",
"1228 -47 OFFCURVE",
"1228 -125 CURVE SMOOTH",
"1228 -201 OFFCURVE",
"1126 -201 OFFCURVE",
"1126 -201 CURVE SMOOTH"
);
},
{
closed = 0;
nodes = (
"-2005 4051 LINE"
);
}
);
width = 2048;
}
);
unicode = E0D7;
},
{
glyphname = uniE121;
lastChange = "2013-11-16 23:16:20 +0000";
layers = (
{
layerId = "1371701D-5D17-46B8-86D4-7A7B37AF85DD";
name = Regular;
paths = (
{
closed = 1;
nodes = (
"1916.34 1257.09 OFFCURVE",
"1887.57 1304.61 OFFCURVE",
"1850.71 1344.92 CURVE SMOOTH",
"1813.24 1385.03 OFFCURVE",
"1768.71 1416.54 OFFCURVE",
"1717.07 1439.45 CURVE SMOOTH",
"1665.36 1462.25 OFFCURVE",
"1607.71 1473.69 OFFCURVE",
"1544.11 1473.69 CURVE SMOOTH",
"1489.7 1473.69 OFFCURVE",
"1438.37 1464.17 OFFCURVE",
"1390.34 1445.04 CURVE SMOOTH",
"1342.2 1425.81 OFFCURVE",
"1296.81 1401.15 OFFCURVE",
"1254.12 1370.85 CURVE SMOOTH",
"1211.56 1340.8 OFFCURVE",
"1171.57 1306.97 OFFCURVE",
"1134.46 1269.5 CURVE SMOOTH",
"1097.11 1232.01 OFFCURVE",
"1061.29 1194.02 OFFCURVE",
"1026.82 1155.74 CURVE",
"893.359 1018.66 LINE",
"882.38 1007.35 LINE",
"860.455 984.678 LINE SMOOTH",
"845.457 970.133 OFFCURVE",
"829.881 955.397 OFFCURVE",
"813.106 940.541 CURVE SMOOTH",
"783.022 914.278 OFFCURVE",
"751.249 889.031 OFFCURVE",
"717.642 865.212 CURVE SMOOTH",
"683.966 841.394 OFFCURVE",
"649.04 822.289 OFFCURVE",
"612.883 807.655 CURVE SMOOTH",
"576.512 793.135 OFFCURVE",
"540.204 785.571 OFFCURVE",
"503.984 785.571 CURVE SMOOTH",
"434.955 785.571 OFFCURVE",
"380.553 807.655 OFFCURVE",
"340.621 851.442 CURVE SMOOTH",
"300.665 895.172 OFFCURVE",
"280.642 952.05 OFFCURVE",
"280.642 1021.4 CURVE SMOOTH",
"280.642 1083.58 OFFCURVE",
"299.654 1139.34 OFFCURVE",
"337.864 1188.62 CURVE SMOOTH",
"375.981 1237.99 OFFCURVE",
"428.486 1262.68 OFFCURVE",
"495.795 1262.68 CURVE SMOOTH",
"531.983 1262.68 OFFCURVE",
"568.416 1254.49 OFFCURVE",
"604.787 1237.99 CURVE SMOOTH",
"640.944 1221.46 OFFCURVE",
"676.36 1201.4 OFFCURVE",
"710.865 1177.7 CURVE SMOOTH",
"745.333 1153.88 OFFCURVE",
"777.929 1127.34 OFFCURVE",
"808.967 1098.06 CURVE SMOOTH",
"815.744 1091.58 LINE",
"950.888 1232.91 LINE",
"914.982 1269.5 LINE SMOOTH",
"876.922 1306.97 OFFCURVE",
"836.011 1340.8 OFFCURVE",
"792.437 1370.85 CURVE SMOOTH",
"748.982 1401.15 OFFCURVE",
"702.493 1425.81 OFFCURVE",
"653.58 1445.04 CURVE SMOOTH",
"604.724 1464.17 OFFCURVE",
"551.886 1473.69 OFFCURVE",
"495.675 1473.69 CURVE SMOOTH",
"430.295 1473.69 OFFCURVE",
"372.212 1461.75 OFFCURVE",
"321.516 1438.06 CURVE SMOOTH",
"270.518 1414.24 OFFCURVE",
"227.553 1381.83 OFFCURVE",
"192.012 1340.8 CURVE SMOOTH",
"156.652 1299.65 OFFCURVE",
"129.451 1251.64 OFFCURVE",
"110.377 1196.74 CURVE SMOOTH",
"91.46 1141.94 OFFCURVE",
"81.92 1083.45 OFFCURVE",
"81.92 1021.27 CURVE SMOOTH",
"81.92 957.385 OFFCURVE",
"91.919 898.151 OFFCURVE",
"111.884 843.071 CURVE SMOOTH",
"131.781 788.423 OFFCURVE",
"160 741.225 OFFCURVE",
"196.276 701.896 CURVE SMOOTH",
"232.584 662.447 OFFCURVE",
"276.497 631.432 OFFCURVE",
"328.356 608.612 CURVE SMOOTH",
"380.12 585.784 OFFCURVE",
"438.541 574.37 OFFCURVE",
"503.984 574.37 CURVE SMOOTH",
"560.258 574.37 OFFCURVE",
"612.424 583.053 OFFCURVE",
"660.477 600.424 CURVE SMOOTH",
"708.535 617.789 OFFCURVE",
"754.012 641.112 OFFCURVE",
"796.638 670.266 CURVE SMOOTH",
"839.359 699.54 OFFCURVE",
"879.158 732.04 OFFCURVE",
"916.546 767.768 CURVE SMOOTH",
"955.8 806.226 LINE",
"1155.07 1015.5 LINE",
"1170.34 1031.38 LINE",
"1171.57 1032.62 LINE",
"1235.11 1095.14 LINE SMOOTH",
"1264.98 1124.42 OFFCURVE",
"1296.69 1151.34 OFFCURVE",
"1330.36 1176 CURVE SMOOTH",
"1364.03 1200.84 OFFCURVE",
"1398.99 1221.15 OFFCURVE",
"1435.18 1237.8 CURVE SMOOTH",
"1471.49 1254.31 OFFCURVE",
"1507.8 1262.61 OFFCURVE",
"1544.11 1262.61 CURVE SMOOTH",
"1616.72 1262.61 OFFCURVE",
"1671.92 1239.32 OFFCURVE",
"1710.14 1192.44 CURVE SMOOTH",
"1748.23 1145.94 OFFCURVE",
"1767.48 1087.95 OFFCURVE",
"1767.48 1018.42 CURVE SMOOTH",
"1767.48 952.673 OFFCURVE",
"1748.77 897.465 OFFCURVE",
"1711.67 852.56 CURVE SMOOTH",
"1674.38 807.839 OFFCURVE",
"1621.2 785.444 OFFCURVE",
"1552.33 785.444 CURVE SMOOTH",
"1512.34 785.444 OFFCURVE",
"1474.19 792.831 OFFCURVE",
"1437.94 807.407 CURVE SMOOTH",
"1401.69 821.978 OFFCURVE",
"1367.16 840.467 OFFCURVE",
"1334.47 862.234 CURVE SMOOTH",
"1301.84 884.191 OFFCURVE",
"1270.38 908.815 OFFCURVE",
"1240.57 936.171 CURVE SMOOTH",
"1235.23 940.979 LINE",
"1101.4 799.093 LINE",
"1113.24 787.495 OFFCURVE",
"1124.83 776.202 OFFCURVE",
"1137.04 764.979 CURVE SMOOTH",
"1175.98 729.315 OFFCURVE",
"1216.47 697.31 OFFCURVE",
"1258.17 668.964 CURVE SMOOTH",
"1300 640.553 OFFCURVE",
"1344.9 617.542 OFFCURVE",
"1392.98 600.234 CURVE SMOOTH",
"1441.07 583.053 OFFCURVE",
"1492.28 574.307 OFFCURVE",
"1546.87 574.307 CURVE SMOOTH",
"1612.18 574.307 OFFCURVE",
"1670.64 586.28 OFFCURVE",
"1722.34 609.977 CURVE SMOOTH",
"1774.11 633.795 OFFCURVE",
"1818.27 665.8 OFFCURVE",
"1854.58 705.993 CURVE SMOOTH",
"1890.83 746.306 OFFCURVE",
"1918.36 793.821 OFFCURVE",
"1937.38 848.654 CURVE SMOOTH",
"1956.39 903.48 OFFCURVE",
"1966.08 962.721 OFFCURVE",
"1966.08 1026.73 CURVE SMOOTH",
"1966.39 1088.85 OFFCURVE",
"1956.21 1147.4 OFFCURVE",
"1936.27 1202.29 CURVE SMOOTH"
);
}
);
width = 2048;
}
);
unicode = E121;
},
{
glyphname = uniE122;
lastChange = "2013-10-18 07:11:40 +0000";
layers = (
{
layerId = "1371701D-5D17-46B8-86D4-7A7B37AF85DD";
name = Regular;
paths = (
{
closed = 1;
nodes = (
"1477 528 OFFCURVE",
"1257 587 OFFCURVE",
"1229 696 CURVE SMOOTH",
"1211 767 OFFCURVE",
"1214 877 OFFCURVE",
"1214 877 CURVE",
"1213 878 LINE",
"1247 942 OFFCURVE",
"1316 970 OFFCURVE",
"1346 1095 CURVE SMOOTH",
"1365 1142 OFFCURVE",
"1371 1198 OFFCURVE",
"1371 1198 CURVE",
"1373 1198 LINE",
"1380 1195 OFFCURVE",
"1387 1193 OFFCURVE",
"1394 1193 CURVE SMOOTH",
"1433 1193 OFFCURVE",
"1465 1227 OFFCURVE",
"1465 1268 CURVE SMOOTH",
"1465 1386 LINE SMOOTH",
"1465 1421 OFFCURVE",
"1442 1449 OFFCURVE",
"1412 1458 CURVE",
"1424 1537 LINE",
"1426 1537 LINE",
"1428 1582 LINE",
"1429 1594 LINE",
"1429 1595 OFFCURVE",
"1429 1596 OFFCURVE",
"1429 1598 CURVE",
"1429 1602 LINE SMOOTH",
"1431 1631 OFFCURVE",
"1427 1640 OFFCURVE",
"1425 1674 CURVE SMOOTH",
"1410 1841 OFFCURVE",
"1311 1958 OFFCURVE",
"1253 1922 CURVE",
"1233 2005 OFFCURVE",
"1118 2049 OFFCURVE",
"988 2039 CURVE SMOOTH",
"797 2022 OFFCURVE",
"644 1828 OFFCURVE",
"641 1613 CURVE",
"639 1607 OFFCURVE",
"638 1600 OFFCURVE",
"639 1592 CURVE SMOOTH",
"643 1563 LINE",
"645 1534 OFFCURVE",
"648 1506 OFFCURVE",
"654 1476 CURVE",
"660 1460 LINE",
"628 1451 OFFCURVE",
"604 1423 OFFCURVE",
"604 1386 CURVE SMOOTH",
"604 1268 LINE SMOOTH",
"604 1227 OFFCURVE",
"635 1193 OFFCURVE",
"675 1193 CURVE SMOOTH",
"682 1193 OFFCURVE",
"689 1195 OFFCURVE",
"696 1198 CURVE",
"696 1198 OFFCURVE",
"701 1142 OFFCURVE",
"720 1095 CURVE SMOOTH",
"751 970 OFFCURVE",
"827 940 OFFCURVE",
"854 878 CURVE",
"854 878 OFFCURVE",
"857 767 OFFCURVE",
"839 696 CURVE SMOOTH",
"811 587 OFFCURVE",
"583 528 OFFCURVE",
"410 471 CURVE SMOOTH",
"167 415 OFFCURVE",
"139 5 OFFCURVE",
"139 5 CURVE",
"1919 5 LINE",
"1919 5 OFFCURVE",
"1901 415 OFFCURVE",
"1648 471 CURVE"
);
}
);
width = 2048;
}
);
unicode = E122;
},
{
glyphname = uniE124;
lastChange = "2013-10-18 07:50:08 +0000";
layers = (
{
layerId = "1371701D-5D17-46B8-86D4-7A7B37AF85DD";
name = Regular;
paths = (
{
closed = 1;
nodes = (
"758 672 OFFCURVE",
"779 678 OFFCURVE",
"800 684 CURVE SMOOTH",
"816 688 OFFCURVE",
"835 694 OFFCURVE",
"855 700 CURVE",
"841 777 OFFCURVE",
"843 876 OFFCURVE",
"843 876 CURVE",
"842 876 LINE",
"858 918 OFFCURVE",
"888 945 OFFCURVE",
"917 975 CURVE",
"909 994 OFFCURVE",
"901 1014 OFFCURVE",
"896 1036 CURVE SMOOTH",
"894 1040 OFFCURVE",
"893 1045 OFFCURVE",
"892 1050 CURVE",
"832 1095 OFFCURVE",
"793 1170 OFFCURVE",
"793 1254 CURVE SMOOTH",
"793 1379 LINE SMOOTH",
"793 1427 OFFCURVE",
"806 1473 OFFCURVE",
"828 1511 CURVE",
"827 1518 OFFCURVE",
"827 1526 OFFCURVE",
"826 1533 CURVE",
"824 1551 LINE SMOOTH",
"821 1572 OFFCURVE",
"821 1594 OFFCURVE",
"824 1616 CURVE",
"828 1723 OFFCURVE",
"858 1823 OFFCURVE",
"903 1910 CURVE",
"894 1910 OFFCURVE",
"885 1908 OFFCURVE",
"876 1905 CURVE",
"859 2000 OFFCURVE",
"737 2037 OFFCURVE",
"629 2029 CURVE SMOOTH",
"444 2015 OFFCURVE",
"290 1827 OFFCURVE",
"287 1595 CURVE",
"285 1589 OFFCURVE",
"284 1583 OFFCURVE",
"285 1577 CURVE SMOOTH",
"288 1553 LINE",
"290 1529 OFFCURVE",
"292 1505 OFFCURVE",
"297 1481 CURVE",
"303 1439 LINE",
"276 1433 OFFCURVE",
"256 1409 OFFCURVE",
"256 1379 CURVE SMOOTH",
"256 1254 LINE SMOOTH",
"256 1220 OFFCURVE",
"282 1192 OFFCURVE",
"315 1192 CURVE SMOOTH",
"321 1192 OFFCURVE",
"326 1194 OFFCURVE",
"332 1196 CURVE",
"332 1196 OFFCURVE",
"337 1149 OFFCURVE",
"353 1083 CURVE SMOOTH",
"378 980 OFFCURVE",
"468 945 OFFCURVE",
"490 876 CURVE",
"490 876 OFFCURVE",
"493 775 OFFCURVE",
"478 698 CURVE SMOOTH",
"455 582 OFFCURVE",
"230 532 OFFCURVE",
"72 484 CURVE SMOOTH",
"-171 411 OFFCURVE",
"-185 17 OFFCURVE",
"-185 17 CURVE",
"352 17 LINE",
"352 25 LINE SMOOTH",
"359 222 OFFCURVE",
"449 579 OFFCURVE",
"739 666 CURVE"
);
},
{
closed = 1;
nodes = (
"1818 532 OFFCURVE",
"1593 581 OFFCURVE",
"1570 698 CURVE SMOOTH",
"1555 775 OFFCURVE",
"1558 876 OFFCURVE",
"1558 876 CURVE",
"1557 876 LINE",
"1585 956 OFFCURVE",
"1669 979 OFFCURVE",
"1694 1083 CURVE SMOOTH",
"1710 1149 OFFCURVE",
"1715 1196 OFFCURVE",
"1715 1196 CURVE",
"1716 1196 LINE",
"1722 1193 OFFCURVE",
"1728 1192 OFFCURVE",
"1734 1192 CURVE SMOOTH",
"1767 1192 OFFCURVE",
"1793 1220 OFFCURVE",
"1793 1254 CURVE SMOOTH",
"1793 1379 LINE SMOOTH",
"1793 1408 OFFCURVE",
"1774 1431 OFFCURVE",
"1749 1439 CURVE",
"1759 1531 LINE",
"1760 1531 LINE",
"1762 1568 LINE",
"1763 1578 LINE",
"1763 1579 OFFCURVE",
"1763 1580 OFFCURVE",
"1763 1582 CURVE",
"1763 1585 LINE SMOOTH",
"1765 1615 OFFCURVE",
"1761 1644 OFFCURVE",
"1760 1672 CURVE SMOOTH",
"1747 1837 OFFCURVE",
"1665 1935 OFFCURVE",
"1590 1905 CURVE",
"1573 2000 OFFCURVE",
"1451 2037 OFFCURVE",
"1343 2029 CURVE SMOOTH",
"1158 2015 OFFCURVE",
"1004 1827 OFFCURVE",
"1001 1595 CURVE",
"1000 1589 OFFCURVE",
"998 1583 OFFCURVE",
"999 1577 CURVE SMOOTH",
"1002 1553 LINE",
"1004 1529 OFFCURVE",
"1007 1505 OFFCURVE",
"1012 1481 CURVE",
"1017 1439 LINE",
"990 1433 OFFCURVE",
"970 1409 OFFCURVE",
"970 1379 CURVE SMOOTH",
"970 1254 LINE SMOOTH",
"970 1220 OFFCURVE",
"996 1192 OFFCURVE",
"1029 1192 CURVE SMOOTH",
"1035 1192 OFFCURVE",
"1041 1193 OFFCURVE",
"1047 1196 CURVE",
"1047 1196 OFFCURVE",
"1051 1149 OFFCURVE",
"1067 1083 CURVE SMOOTH",
"1092 979 OFFCURVE",
"1183 945 OFFCURVE",
"1205 876 CURVE",
"1205 876 OFFCURVE",
"1207 775 OFFCURVE",
"1192 698 CURVE SMOOTH",
"1169 581 OFFCURVE",
"944 532 OFFCURVE",
"787 484 CURVE SMOOTH",
"544 411 OFFCURVE",
"529 17 OFFCURVE",
"529 17 CURVE",
"2233 17 LINE",
"2233 17 OFFCURVE",
"2218 411 OFFCURVE",
"1976 484 CURVE"
);
}
);
width = 2048;
}
);
unicode = E124;
},
{
glyphname = uniE181;
lastChange = "2013-02-13 06:38:07 +0000";
layers = (
{
layerId = "1371701D-5D17-46B8-86D4-7A7B37AF85DD";
name = Regular;
paths = (
{
closed = 1;
nodes = (
"664 1152 LINE SMOOTH",
"1097 1593 LINE",
"1172 1668 OFFCURVE",
"1172 1790 OFFCURVE",
"1097 1865 CURVE",
"1022 1940 OFFCURVE",
"901 1940 OFFCURVE",
"826 1865 CURVE",
"192 1232 LINE",
"167 1207 OFFCURVE",
"0 1049 OFFCURVE",
"0 960 CURVE",
"0 871 OFFCURVE",
"167 713 OFFCURVE",
"192 689 CURVE",
"826 55 LINE",
"901 -20 OFFCURVE",
"1022 -20 OFFCURVE",
"1097 55 CURVE",
"1172 130 OFFCURVE",
"1172 251 OFFCURVE",
"1097 326 CURVE",
"664 768 LINE SMOOTH",
"1984 768 LINE",
"2090 768 OFFCURVE",
"2176 854 OFFCURVE",
"2176 960 CURVE",
"2176 1066 OFFCURVE",
"2090 1152 OFFCURVE",
"1984 1152 CURVE"
);
}
);
width = 2048;
}
);
unicode = E181;
},
{
glyphname = uniE182;
lastChange = "2013-02-13 06:39:09 +0000";
layers = (
{
layerId = "1371701D-5D17-46B8-86D4-7A7B37AF85DD";
name = Regular;
paths = (
{
closed = 1;
nodes = (
"1384 768 LINE",
"951 327 LINE SMOOTH",
"876 252 OFFCURVE",
"876 130 OFFCURVE",
"951 55 CURVE SMOOTH",
"1026 -20 OFFCURVE",
"1147 -20 OFFCURVE",
"1222 55 CURVE SMOOTH",
"1856 688 LINE SMOOTH",
"1881 713 OFFCURVE",
"2048 871 OFFCURVE",
"2048 960 CURVE SMOOTH",
"2048 1049 OFFCURVE",
"1881 1207 OFFCURVE",
"1856 1231 CURVE SMOOTH",
"1222 1865 LINE SMOOTH",
"1147 1940 OFFCURVE",
"1026 1940 OFFCURVE",
"951 1865 CURVE SMOOTH",
"876 1790 OFFCURVE",
"876 1669 OFFCURVE",
"951 1594 CURVE SMOOTH",
"1384 1152 LINE",
"64 1152 LINE SMOOTH",
"-42 1152 OFFCURVE",
"-128 1066 OFFCURVE",
"-128 960 CURVE SMOOTH",
"-128 854 OFFCURVE",
"-42 768 OFFCURVE",
"64 768 CURVE SMOOTH"
);
}
);
width = 2048;
}
);
unicode = E182;
},
{
glyphname = uniE183;
lastChange = "2013-02-07 03:46:05 +0000";
layers = (
{
layerId = "1371701D-5D17-46B8-86D4-7A7B37AF85DD";
name = Regular;
paths = (
{
closed = 1;
nodes = (
"1056 1025 LINE",
"480 449 LINE",
"736 191 LINE",
"1568 1025 LINE",
"736 1857 LINE",
"480 1601 LINE"
);
}
);
width = 2048;
}
);
unicode = E183;
},
{
glyphname = uniE184;
lastChange = "2013-02-07 03:46:48 +0000";
layers = (
{
layerId = "1371701D-5D17-46B8-86D4-7A7B37AF85DD";
name = Regular;
paths = (
{
closed = 1;
nodes = (
"992 1023 LINE",
"1568 1599 LINE",
"1312 1857 LINE",
"480 1023 LINE",
"1312 191 LINE",
"1568 447 LINE"
);
}
);
width = 2048;
}
);
unicode = E184;
},
{
glyphname = uniE185;
lastChange = "2013-02-13 09:20:01 +0000";
layers = (
{
layerId = "1371701D-5D17-46B8-86D4-7A7B37AF85DD";
name = Regular;
paths = (
{
closed = 1;
nodes = (
"1025 992 LINE",
"449 1568 LINE",
"191 1312 LINE",
"1025 480 LINE",
"1857 1312 LINE",
"1601 1568 LINE"
);
}
);
width = 2048;
}
);
unicode = E185;
},
{
glyphname = uniE186;
lastChange = "2013-03-15 03:35:30 +0000";
layers = (
{
layerId = "1371701D-5D17-46B8-86D4-7A7B37AF85DD";
name = Regular;
paths = (
{
closed = 1;
nodes = (
"1025 1568 LINE",
"191 736 LINE",
"449 480 LINE",
"1025 1056 LINE",
"1601 480 LINE",
"1857 736 LINE"
);
}
);
width = 2048;
}
);
unicode = E186;
},
{
glyphname = uniE187;
lastChange = "2013-03-15 03:33:10 +0000";
layers = (
{
layerId = "1371701D-5D17-46B8-86D4-7A7B37AF85DD";
name = Regular;
paths = (
{
closed = 1;
nodes = (
"256 1280 LINE",
"1792 1280 LINE",
"1024 512 LINE"
);
}
);
width = 2048;
}
);
unicode = E187;
},
{
glyphname = uniE188;
lastChange = "2013-03-15 03:33:12 +0000";
layers = (
{
layerId = "1371701D-5D17-46B8-86D4-7A7B37AF85DD";
name = Regular;
paths = (
{
closed = 1;
nodes = (
"1792 640 LINE",
"256 640 LINE",
"1024 1408 LINE"
);
}
);
width = 2048;
}
);
unicode = E188;
},
{
glyphname = uniE1A2;
lastChange = "2013-02-13 10:14:12 +0000";
layers = (
{
layerId = "1371701D-5D17-46B8-86D4-7A7B37AF85DD";
name = Regular;
paths = (
{
closed = 1;
nodes = (
"448 2430 LINE SMOOTH",
"342 2430 OFFCURVE",
"256 2344 OFFCURVE",
"256 2238 CURVE SMOOTH",
"256 1342 LINE",
"256 1214 LINE",
"256 766 LINE",
"256 446 LINE",
"256 -190 LINE SMOOTH",
"256 -296 OFFCURVE",
"342 -382 OFFCURVE",
"448 -382 CURVE SMOOTH",
"1600 -382 LINE SMOOTH",
"1706 -382 OFFCURVE",
"1792 -296 OFFCURVE",
"1792 -190 CURVE SMOOTH",
"1792 638 LINE",
"1792 766 LINE",
"1792 1214 LINE",
"1792 1598 LINE",
"1792 2238 LINE SMOOTH",
"1792 2344 OFFCURVE",
"1706 2430 OFFCURVE",
"1600 2430 CURVE SMOOTH"
);
},
{
closed = 1;
nodes = (
"1248 2174 LINE SMOOTH",
"1266 2174 OFFCURVE",
"1280 2160 OFFCURVE",
"1280 2142 CURVE SMOOTH",
"1280 2124 OFFCURVE",
"1266 2110 OFFCURVE",
"1248 2110 CURVE SMOOTH",
"796 2110 LINE SMOOTH",
"778 2110 OFFCURVE",
"764 2124 OFFCURVE",
"764 2142 CURVE SMOOTH",
"764 2160 OFFCURVE",
"778 2174 OFFCURVE",
"796 2174 CURVE SMOOTH"
);
},
{
closed = 1;
nodes = (
"954 -258 OFFCURVE",
"896 -200 OFFCURVE",
"896 -130 CURVE SMOOTH",
"896 -59 OFFCURVE",
"954 -2 OFFCURVE",
"1024 -2 CURVE SMOOTH",
"1095 -2 OFFCURVE",
"1152 -59 OFFCURVE",
"1152 -130 CURVE SMOOTH",
"1152 -200 OFFCURVE",
"1095 -258 OFFCURVE",
"1024 -258 CURVE SMOOTH"
);
},
{
closed = 1;
nodes = (
"1664 1214 LINE",
"1664 766 LINE",
"1664 638 LINE",
"1664 194 LINE",
"1664 162 LINE SMOOTH",
"1664 144 OFFCURVE",
"1650 130 OFFCURVE",
"1632 130 CURVE SMOOTH",
"1600 130 LINE",
"448 130 LINE",
"416 130 LINE SMOOTH",
"398 130 OFFCURVE",
"384 144 OFFCURVE",
"384 162 CURVE SMOOTH",
"384 194 LINE",
"384 446 LINE",
"384 766 LINE",
"384 1214 LINE",
"384 1342 LINE",
"384 1374 LINE",
"384 1858 LINE",
"384 1890 LINE SMOOTH",
"384 1908 OFFCURVE",
"398 1922 OFFCURVE",
"416 1922 CURVE SMOOTH",
"1632 1922 LINE SMOOTH",
"1650 1922 OFFCURVE",
"1664 1908 OFFCURVE",
"1664 1890 CURVE SMOOTH",
"1664 1858 LINE",
"1664 1598 LINE",
"1664 1374 LINE"
);
}
);
width = 2048;
}
);
unicode = E1A2;
},
{
glyphname = uniE1A5;
lastChange = "2013-02-13 06:03:23 +0000";
layers = (
{
layerId = "1371701D-5D17-46B8-86D4-7A7B37AF85DD";
name = Regular;
paths = (
{
closed = 1;
nodes = (
"1470 1664 LINE",
"1470 1819 LINE SMOOTH",
"1470 1881 OFFCURVE",
"1430 1921 OFFCURVE",
"1369 1921 CURVE SMOOTH",
"677 1921 LINE SMOOTH",
"616 1921 OFFCURVE",
"576 1881 OFFCURVE",
"576 1819 CURVE SMOOTH",
"576 1664 LINE",
"202 1664 LINE SMOOTH",
"101 1664 OFFCURVE",
"0 1561 OFFCURVE",
"0 1460 CURVE SMOOTH",
"0 330 LINE SMOOTH",
"0 230 OFFCURVE",
"101 127 OFFCURVE",
"202 127 CURVE SMOOTH",
"1846 127 LINE SMOOTH",
"1947 127 OFFCURVE",
"2048 230 OFFCURVE",
"2048 330 CURVE SMOOTH",
"2048 1460 LINE SMOOTH",
"2048 1561 OFFCURVE",
"1947 1664 OFFCURVE",
"1846 1664 CURVE SMOOTH"
);
},
{
closed = 1;
nodes = (
"706 319 OFFCURVE",
"448 577 OFFCURVE",
"448 895 CURVE SMOOTH",
"448 1213 OFFCURVE",
"706 1471 OFFCURVE",
"1024 1471 CURVE SMOOTH",
"1342 1471 OFFCURVE",
"1600 1213 OFFCURVE",
"1600 895 CURVE SMOOTH",
"1600 577 OFFCURVE",
"1342 319 OFFCURVE",
"1024 319 CURVE SMOOTH"
);
},
{
closed = 1;
nodes = (
"1201 1215 OFFCURVE",
"1345 1072 OFFCURVE",
"1345 895 CURVE SMOOTH",
"1345 719 OFFCURVE",
"1201 575 OFFCURVE",
"1024 575 CURVE SMOOTH",
"847 575 OFFCURVE",
"704 719 OFFCURVE",
"704 895 CURVE SMOOTH",
"704 1072 OFFCURVE",
"847 1215 OFFCURVE",
"1024 1215 CURVE SMOOTH"
);
}
);
width = 2048;
}
);
unicode = E1A5;
},
{
glyphname = uniE1A6;
lastChange = "2013-02-13 02:56:12 +0000";
layers = (
{
layerId = "1371701D-5D17-46B8-86D4-7A7B37AF85DD";
name = Regular;
paths = (
{
closed = 1;
nodes = (
"1785 1790 LINE SMOOTH",
"1860 1790 OFFCURVE",
"1920 1730 OFFCURVE",
"1920 1655 CURVE SMOOTH",
"1920 391 LINE SMOOTH",
"1920 316 OFFCURVE",
"1859 256 OFFCURVE",
"1784 256 CURVE SMOOTH",
"890 256 LINE SMOOTH",
"890 256 OFFCURVE",
"527 -82 OFFCURVE",
"484 -82 CURVE SMOOTH",
"442 -82 OFFCURVE",
"417 -57 OFFCURVE",
"417 -14 CURVE SMOOTH",
"417 30 OFFCURVE",
"416 257 OFFCURVE",
"416 257 CURVE SMOOTH",
"135 257 LINE SMOOTH",
"60 257 OFFCURVE",
"0 318 OFFCURVE",
"0 392 CURVE SMOOTH",
"0 1657 LINE SMOOTH",
"0 1732 OFFCURVE",
"61 1792 OFFCURVE",
"136 1792 CURVE SMOOTH"
);
}
);
width = 2048;
}
);
unicode = E1A6;
},
{
glyphname = uniE1A8;
lastChange = "2013-02-13 02:58:26 +0000";
layers = (
{
layerId = "1371701D-5D17-46B8-86D4-7A7B37AF85DD";
name = Regular;
paths = (
{
closed = 1;
nodes = (
"2214 1663 LINE",
"2208 1664 OFFCURVE",
"2203 1666 OFFCURVE",
"2197 1666 CURVE SMOOTH",
"114 1666 LINE SMOOTH",
"109 1666 OFFCURVE",
"103 1664 OFFCURVE",
"97 1663 CURVE",
"1154 767 LINE"
);
},
{
closed = 1;
nodes = (
"2308 1550 OFFCURVE",
"2305 1559 OFFCURVE",
"2302 1569 CURVE",
"1540 964 LINE",
"2303 224 LINE",
"2305 232 OFFCURVE",
"2308 240 OFFCURVE",
"2308 248 CURVE SMOOTH",
"2308 1540 LINE SMOOTH"
);
},
{
closed = 1;
nodes = (
"3 1559 OFFCURVE",
"0 1550 OFFCURVE",
"0 1540 CURVE SMOOTH",
"0 245 LINE SMOOTH",
"0 237 OFFCURVE",
"3 229 OFFCURVE",
"5 221 CURVE",
"768 964 LINE",
"6 1569 LINE"
);
},
{
closed = 1;
nodes = (
"1185 668 LINE SMOOTH",
"1176 660 OFFCURVE",
"1165 657 OFFCURVE",
"1154 657 CURVE SMOOTH",
"1143 657 OFFCURVE",
"1132 660 OFFCURVE",
"1123 668 CURVE SMOOTH",
"842 902 LINE",
"97 132 LINE",
"105 130 OFFCURVE",
"112 128 OFFCURVE",
"120 128 CURVE SMOOTH",
"2191 128 LINE SMOOTH",
"2199 128 OFFCURVE",
"2207 130 OFFCURVE",
"2214 132 CURVE",
"1466 902 LINE"
);
}
);
width = 2432;
}
);
unicode = E1A8;
},
{
glyphname = uniE1A9;
lastChange = "2013-10-12 06:02:56 +0000";
layers = (
{
layerId = "1371701D-5D17-46B8-86D4-7A7B37AF85DD";
name = Regular;
paths = (
{
closed = 1;
nodes = (
"1542 1925 OFFCURVE",
"1229.79 1925.4 OFFCURVE",
"1037.68 1733.21 CURVE SMOOTH",
"861.723 1557.15 LINE",
"969.441 1560.14 OFFCURVE",
"1077.51 1537.77 OFFCURVE",
"1176.19 1489.43 CURVE",
"1228.3 1541.63 LINE SMOOTH",
"1314.7 1627.94 OFFCURVE",
"1455.58 1627.94 OFFCURVE",
"1541.98 1541.63 CURVE SMOOTH",
"1628.47 1455.14 OFFCURVE",
"1628.47 1314.18 OFFCURVE",
"1541.98 1227.69 CURVE SMOOTH",
"1289.79 975.405 LINE SMOOTH",
"1203.65 888.913 OFFCURVE",
"1062.51 889.083 OFFCURVE",
"976.106 975.495 CURVE SMOOTH",
"923.558 1027.77 OFFCURVE",
"837.686 1027.77 OFFCURVE",
"784.878 975.405 CURVE SMOOTH",
"732.331 922.768 OFFCURVE",
"732.331 836.545 OFFCURVE",
"784.878 784.258 CURVE SMOOTH",
"976.986 591.89 OFFCURVE",
"1288.91 591.89 OFFCURVE",
"1481.19 784.258 CURVE SMOOTH",
"1733.3 1036.54 LINE SMOOTH",
"1925.23 1229.09 OFFCURVE",
"1925.23 1541.63 OFFCURVE",
"1733.65 1733.21 CURVE"
);
},
{
closed = 1;
nodes = (
"733.301 419.705 OFFCURVE",
"592.6 419.705 OFFCURVE",
"506.108 505.838 CURVE SMOOTH",
"419.526 592.249 OFFCURVE",
"419.526 733.301 OFFCURVE",
"506.108 819.793 CURVE SMOOTH",
"758.389 1071.89 LINE SMOOTH",
"844.701 1158.39 OFFCURVE",
"985.753 1158.39 OFFCURVE",
"1072.07 1071.89 CURVE SMOOTH",
"1124.79 1019.18 OFFCURVE",
"1211.01 1019.18 OFFCURVE",
"1263.21 1071.89 CURVE SMOOTH",
"1316.02 1124.44 OFFCURVE",
"1316.02 1210.4 OFFCURVE",
"1263.21 1263.21 CURVE SMOOTH",
"1071.19 1455.31 OFFCURVE",
"759.79 1455.31 OFFCURVE",
"567.161 1263.21 CURVE SMOOTH",
"314.88 1010.93 LINE SMOOTH",
"122.593 818.652 OFFCURVE",
"122.593 506.808 OFFCURVE",
"314.88 314.7 CURVE SMOOTH",
"506.808 122.682 OFFCURVE",
"818.383 122.682 OFFCURVE",
"1010.93 314.7 CURVE SMOOTH",
"1186.81 490.927 LINE",
"1079.18 487.595 OFFCURVE",
"971.021 510.051 OFFCURVE",
"872.161 558.565 CURVE",
"819.613 505.838 LINE"
);
}
);
width = 2048;
}
);
unicode = E1A9;
},
{
glyphname = uniE1B0;
lastChange = "2015-04-17 22:31:50 +0000";
layers = (
{
layerId = "1371701D-5D17-46B8-86D4-7A7B37AF85DD";
name = Regular;
paths = (
{
closed = 1;
nodes = (
"1872 1608 OFFCURVE",
"1817 1645 OFFCURVE",
"1760 1645 CURVE SMOOTH",
"1063 1645 LINE SMOOTH",
"1007 1645 OFFCURVE",
"927 1678 OFFCURVE",
"887 1717 CURVE SMOOTH",
"827 1777 LINE SMOOTH",
"787 1817 OFFCURVE",
"707 1849 OFFCURVE",
"651 1849 CURVE SMOOTH",
"318 1849 LINE SMOOTH",
"261 1849 OFFCURVE",
"209 1803 OFFCURVE",
"203 1747 CURVE SMOOTH",
"173 1440 LINE",
"1903 1440 LINE",
"1883 1563 LINE"
);
},
{
closed = 1;
nodes = (
"63 1338 LINE SMOOTH",
"28 1338 OFFCURVE",
"0 1308 OFFCURVE",
"4 1274 CURVE SMOOTH",
"98 286 LINE SMOOTH",
"102 245 OFFCURVE",
"136 214 OFFCURVE",
"176 214 CURVE SMOOTH",
"1873 214 LINE SMOOTH",
"1913 214 OFFCURVE",
"1947 245 OFFCURVE",
"1951 286 CURVE SMOOTH",
"2045 1274 LINE SMOOTH",
"2048 1308 OFFCURVE",
"2021 1338 OFFCURVE",
"1986 1338 CURVE SMOOTH"
);
}
);
width = 2048;
}
);
unicode = E1B0;
},
{
glyphname = uniE1E1;
lastChange = "2013-02-13 02:47:03 +0000";
layers = (
{
layerId = "1371701D-5D17-46B8-86D4-7A7B37AF85DD";
name = Regular;
paths = (
{
closed = 1;
nodes = (
"1120 1808 LINE SMOOTH",
"1069 1900 OFFCURVE",
"978 1899 OFFCURVE",
"928 1808 CURVE SMOOTH",
"20 166 LINE SMOOTH",
"-31 74 OFFCURVE",
"10 0 OFFCURVE",
"116 0 CURVE SMOOTH",
"1928 0 LINE SMOOTH",
"2034 0 OFFCURVE",
"2075 74 OFFCURVE",
"2024 166 CURVE SMOOTH"
);
},
{
closed = 1;
nodes = (
"965 1337 OFFCURVE",
"992 1348 OFFCURVE",
"1022 1348 CURVE SMOOTH",
"1057 1348 OFFCURVE",
"1085 1337 OFFCURVE",
"1108 1315 CURVE SMOOTH",
"1131 1294 OFFCURVE",
"1142 1261 OFFCURVE",
"1142 1216 CURVE SMOOTH",
"1142 1198 OFFCURVE",
"1141 1181 OFFCURVE",
"1140 1166 CURVE SMOOTH",
"1139 1152 OFFCURVE",
"1137 1128 OFFCURVE",
"1133 1096 CURVE SMOOTH",
"1064 578 LINE",
"984 578 LINE",
"915 1096 LINE SMOOTH",
"909 1148 OFFCURVE",
"906 1188 OFFCURVE",
"906 1216 CURVE SMOOTH",
"906 1261 OFFCURVE",
"918 1294 OFFCURVE",
"941 1316 CURVE SMOOTH"
);
},
{
closed = 1;
nodes = (
"1095 226 OFFCURVE",
"1062 213 OFFCURVE",
"1024 213 CURVE SMOOTH",
"986 213 OFFCURVE",
"954 226 OFFCURVE",
"926 253 CURVE SMOOTH",
"899 280 OFFCURVE",
"885 312 OFFCURVE",
"885 351 CURVE SMOOTH",
"885 391 OFFCURVE",
"899 424 OFFCURVE",
"925 451 CURVE SMOOTH",
"952 478 OFFCURVE",
"985 492 OFFCURVE",
"1024 492 CURVE SMOOTH",
"1063 492 OFFCURVE",
"1096 478 OFFCURVE",
"1123 451 CURVE SMOOTH",
"1150 424 OFFCURVE",
"1163 391 OFFCURVE",
"1163 351 CURVE SMOOTH",
"1163 312 OFFCURVE",
"1150 280 OFFCURVE",
"1123 253 CURVE SMOOTH"
);
}
);
width = 2048;
}
);
unicode = E1E1;
},
{
glyphname = uniE1E2;
lastChange = "2014-03-13 01:56:12 +0000";
layers = (
{
layerId = "1371701D-5D17-46B8-86D4-7A7B37AF85DD";
name = Regular;
paths = (
{
closed = 1;
nodes = (
"1518 1920 OFFCURVE",
"1920 1518 OFFCURVE",
"1920 1024 CURVE SMOOTH",
"1920 530 OFFCURVE",
"1518 128 OFFCURVE",
"1024 128 CURVE SMOOTH",
"530 128 OFFCURVE",
"128 530 OFFCURVE",
"128 1024 CURVE SMOOTH",
"128 1518 OFFCURVE",
"530 1920 OFFCURVE",
"1024 1920 CURVE SMOOTH"
);
},
{
closed = 1;
nodes = (
"458 2048 OFFCURVE",
"0 1590 OFFCURVE",
"0 1024 CURVE SMOOTH",
"0 458 OFFCURVE",
"458 0 OFFCURVE",
"1024 0 CURVE SMOOTH",
"1589 0 OFFCURVE",
"2048 458 OFFCURVE",
"2048 1024 CURVE SMOOTH",
"2048 1590 OFFCURVE",
"1590 2048 OFFCURVE",
"1024 2048 CURVE SMOOTH"
);
},
{
closed = 1;
nodes = (
"1401 1428 LINE",
"1401 1452 OFFCURVE",
"1377 1473 OFFCURVE",
"1352 1472 CURVE SMOOTH",
"1194 1472 LINE SMOOTH",
"1169 1472 OFFCURVE",
"1148 1452 OFFCURVE",
"1148 1427 CURVE SMOOTH",
"1148 620 LINE SMOOTH",
"1148 596 OFFCURVE",
"1168 575 OFFCURVE",
"1193 576 CURVE SMOOTH",
"1356 576 LINE SMOOTH",
"1381 576 OFFCURVE",
"1407 597 OFFCURVE",
"1407 621 CURVE SMOOTH",
"1407 1427 LINE"
);
},
{
closed = 1;
nodes = (
"895 1452 OFFCURVE",
"878 1473 OFFCURVE",
"853 1472 CURVE SMOOTH",
"690 1472 LINE SMOOTH",
"665 1472 OFFCURVE",
"639 1452 OFFCURVE",
"639 1427 CURVE SMOOTH",
"639 620 LINE SMOOTH",
"639 596 OFFCURVE",
"667 575 OFFCURVE",
"692 576 CURVE SMOOTH",
"850 576 LINE SMOOTH",
"874 576 OFFCURVE",
"895 597 OFFCURVE",
"895 621 CURVE SMOOTH",
"895 1427 LINE SMOOTH"
);
}
);
width = 2048;
}
);
unicode = E1E2;
},
{
glyphname = uniE1E3;
lastChange = "2014-03-13 01:55:50 +0000";
layers = (
{
layerId = "1371701D-5D17-46B8-86D4-7A7B37AF85DD";
name = Regular;
paths = (
{
closed = 1;
nodes = (
"459 2048 OFFCURVE",
"0 1590 OFFCURVE",
"0 1024 CURVE SMOOTH",
"0 458 OFFCURVE",
"459 0 OFFCURVE",
"1024 0 CURVE SMOOTH",
"1590 0 OFFCURVE",
"2048 458 OFFCURVE",
"2048 1024 CURVE SMOOTH",
"2048 1590 OFFCURVE",
"1590 2048 OFFCURVE",
"1024 2048 CURVE SMOOTH"
);
},
{
closed = 1;
nodes = (
"1248 1920 OFFCURVE",
"1453 1837 OFFCURVE",
"1610 1700 CURVE",
"348 438 LINE",
"211 595 OFFCURVE",
"128 800 OFFCURVE",
"128 1024 CURVE SMOOTH",
"128 1518 OFFCURVE",
"530 1920 OFFCURVE",
"1024 1920 CURVE SMOOTH"
);
},
{
closed = 1;
nodes = (
"800 128 OFFCURVE",
"595 211 OFFCURVE",
"438 348 CURVE",
"1700 1610 LINE",
"1837 1453 OFFCURVE",
"1920 1248 OFFCURVE",
"1920 1024 CURVE SMOOTH",
"1920 530 OFFCURVE",
"1518 128 OFFCURVE",
"1024 128 CURVE SMOOTH"
);
}
);
width = 2048;
}
);
unicode = E1E3;
},
{
glyphname = uniE1E4;
lastChange = "2013-04-03 00:50:55 +0000";
layers = (
{
layerId = "1371701D-5D17-46B8-86D4-7A7B37AF85DD";
name = Regular;
paths = (
{
closed = 1;
nodes = (
"1799 1595 OFFCURVE",
"1779 1525 OFFCURVE",
"1729 1471 CURVE SMOOTH",
"1670 1408 OFFCURVE",
"1583 1389 OFFCURVE",
"1506 1413 CURVE",
"1485 1394 LINE",
"1666 1166 OFFCURVE",
"1658 839 OFFCURVE",
"1457 622 CURVE SMOOTH",
"1234 381 OFFCURVE",
"860 366 OFFCURVE",
"620 589 CURVE SMOOTH",
"380 812 OFFCURVE",
"366 1187 OFFCURVE",
"589 1427 CURVE SMOOTH",
"735 1586 OFFCURVE",
"949 1645 OFFCURVE",
"1146 1603 CURVE",
"1146 1604 LINE",
"1146 1604 OFFCURVE",
"1147 1604 OFFCURVE",
"1147 1604 CURVE",
"1263 1579 OFFCURVE",
"1378 1653 OFFCURVE",
"1402 1770 CURVE SMOOTH",
"1427 1886 OFFCURVE",
"1354 2001 OFFCURVE",
"1238 2026 CURVE SMOOTH",
"1237 2026 OFFCURVE",
"1238 2026 OFFCURVE",
"1238 2026 CURVE SMOOTH",
"1238 2026 LINE",
"888 2098 OFFCURVE",
"528 1994 OFFCURVE",
"274 1720 CURVE SMOOTH",
"-110 1305 OFFCURVE",
"-87 658 OFFCURVE",
"327 273 CURVE SMOOTH",
"742 -112 OFFCURVE",
"1388 -87 OFFCURVE",
"1772 328 CURVE SMOOTH",
"2127 711 OFFCURVE",
"2142 1284 OFFCURVE",
"1805 1684 CURVE",
"1782 1663 LINE"
);
}
);
width = 2048;
}
);
unicode = E1E4;
},
{
glyphname = uniE1F1;
lastChange = "2014-03-04 00:15:24 +0000";
layers = (
{
layerId = "1371701D-5D17-46B8-86D4-7A7B37AF85DD";
name = Regular;
paths = (
{
closed = 1;
nodes = (
"113.04 2048 LINE SMOOTH",
"50.5957 2048 OFFCURVE",
"0.0059 1997.4 OFFCURVE",
"0.0059 1934.97 CURVE SMOOTH",
"0.0059 113.035 LINE SMOOTH",
"0.0059 50.6133 OFFCURVE",
"50.5957 0 OFFCURVE",
"113.04 0 CURVE SMOOTH",
"1093.9 0 LINE",
"1093.9 793.093 LINE",
"827.013 793.093 LINE",
"827.013 1102.18 LINE",
"1093.9 1102.18 LINE",
"1093.9 1330.12 LINE SMOOTH",
"1093.9 1594.64 OFFCURVE",
"1255.46 1738.68 OFFCURVE",
"1491.44 1738.68 CURVE SMOOTH",
"1604.47 1738.68 OFFCURVE",
"1701.62 1730.26 OFFCURVE",
"1729.93 1726.5 CURVE",
"1729.93 1450.06 LINE",
"1566.26 1449.98 LINE SMOOTH",
"1437.94 1449.98 OFFCURVE",
"1413.08 1389 OFFCURVE",
"1413.08 1299.51 CURVE SMOOTH",
"1413.08 1102.18 LINE",
"1719.15 1102.18 LINE",
"1679.3 793.093 LINE",
"1413.08 793.093 LINE",
"1413.08 0 LINE",
"1934.97 0 LINE SMOOTH",
"1997.38 0 OFFCURVE",
"2047.99 50.6133 OFFCURVE",
"2047.99 113.035 CURVE SMOOTH",
"2047.99 1934.97 LINE SMOOTH",
"2047.99 1997.4 OFFCURVE",
"1997.38 2048 OFFCURVE",
"1934.97 2048 CURVE SMOOTH"
);
}
);
width = 2048;
}
);
unicode = E1F1;
},
{
glyphname = uniE1F3;
lastChange = "2014-03-04 00:17:41 +0000";
layers = (
{
layerId = "1371701D-5D17-46B8-86D4-7A7B37AF85DD";
name = Regular;
paths = (
{
closed = 1;
nodes = (
"1771 1661 OFFCURVE",
"1696 1632 OFFCURVE",
"1615 1616 CURVE",
"1550 1685 OFFCURVE",
"1458 1728 OFFCURVE",
"1356 1728 CURVE SMOOTH",
"1160 1728 OFFCURVE",
"992 1557 OFFCURVE",
"992 1362 CURVE SMOOTH",
"992 1334 OFFCURVE",
"991 1307 OFFCURVE",
"997 1281 CURVE",
"703 1296 OFFCURVE",
"463 1449 OFFCURVE",
"289 1663 CURVE",
"258 1611 OFFCURVE",
"225 1550 OFFCURVE",
"225 1485 CURVE SMOOTH",
"225 1362 OFFCURVE",
"295 1253 OFFCURVE",
"390 1190 CURVE",
"332 1192 OFFCURVE",
"272 1208 OFFCURVE",
"224 1234 CURVE",
"224 1230 LINE SMOOTH",
"224 1058 OFFCURVE",
"352 915 OFFCURVE",
"514 882 CURVE",
"484 874 OFFCURVE",
"453 870 OFFCURVE",
"421 870 CURVE SMOOTH",
"398 870 OFFCURVE",
"376 872 OFFCURVE",
"354 876 CURVE",
"399 736 OFFCURVE",
"520 631 OFFCURVE",
"675 628 CURVE",
"554 533 OFFCURVE",
"411 479 OFFCURVE",
"245 479 CURVE SMOOTH",
"216 479 OFFCURVE",
"188 480 OFFCURVE",
"160 483 CURVE",
"317 383 OFFCURVE",
"504 320 OFFCURVE",
"704 320 CURVE SMOOTH",
"1355 320 OFFCURVE",
"1696 854 OFFCURVE",
"1696 1322 CURVE SMOOTH",
"1696 1338 OFFCURVE",
"1695 1341 OFFCURVE",
"1695 1356 CURVE",
"1764 1406 OFFCURVE",
"1840 1491 OFFCURVE",
"1888 1562 CURVE",
"1824 1534 OFFCURVE",
"1756 1514 OFFCURVE",
"1684 1506 CURVE",
"1757 1550 OFFCURVE",
"1813 1619 OFFCURVE",
"1840 1702 CURVE"
);
}
);
width = 2048;
}
);
unicode = E1F3;
},
{
glyphname = uniE1F4;
lastChange = "2014-03-06 00:47:40 +0000";
layers = (
{
layerId = "1371701D-5D17-46B8-86D4-7A7B37AF85DD";
name = Regular;
paths = (
{
closed = 1;
nodes = (
"113.035 2048.01 LINE SMOOTH",
"50.5898 2048.01 OFFCURVE",
"0 1997.41 OFFCURVE",
"0 1934.97 CURVE SMOOTH",
"0 113.029 LINE SMOOTH",
"0 50.6074 OFFCURVE",
"50.5898 0 OFFCURVE",
"113.035 0 CURVE SMOOTH",
"1934.97 0 LINE SMOOTH",
"1997.39 0 OFFCURVE",
"2048 50.6074 OFFCURVE",
"2048 113.029 CURVE SMOOTH",
"2048 1934.97 LINE SMOOTH",
"2048 1997.41 OFFCURVE",
"1997.39 2048.01 OFFCURVE",
"1934.97 2048.01 CURVE SMOOTH"
);
},
{
closed = 1;
nodes = (
"1586.06 1289.53 OFFCURVE",
"1586.9 1287.02 OFFCURVE",
"1586.9 1273.62 CURVE SMOOTH",
"1586.9 881.601 OFFCURVE",
"1301.26 434.297 OFFCURVE",
"755.953 434.297 CURVE SMOOTH",
"588.424 434.297 OFFCURVE",
"431.783 487.07 OFFCURVE",
"300.273 570.833 CURVE",
"323.728 568.321 OFFCURVE",
"347.182 567.483 OFFCURVE",
"371.475 567.483 CURVE SMOOTH",
"510.523 567.483 OFFCURVE",
"630.307 612.715 OFFCURVE",
"731.662 692.292 CURVE",
"601.826 694.806 OFFCURVE",
"500.471 782.758 OFFCURVE",
"462.777 900.028 CURVE",
"481.205 896.678 OFFCURVE",
"499.633 895.003 OFFCURVE",
"518.899 895.003 CURVE SMOOTH",
"545.704 895.003 OFFCURVE",
"571.671 898.353 OFFCURVE",
"596.801 905.054 CURVE",
"461.102 932.696 OFFCURVE",
"353.883 1052.48 OFFCURVE",
"353.883 1196.55 CURVE SMOOTH",
"353.883 1199.91 LINE",
"394.09 1178.13 OFFCURVE",
"444.35 1164.72 OFFCURVE",
"492.932 1163.05 CURVE",
"413.356 1215.82 OFFCURVE",
"354.721 1307.12 OFFCURVE",
"354.721 1410.15 CURVE SMOOTH",
"354.721 1464.6 OFFCURVE",
"382.363 1515.7 OFFCURVE",
"408.33 1559.26 CURVE",
"554.08 1380 OFFCURVE",
"755.115 1251.84 OFFCURVE",
"1001.38 1239.27 CURVE",
"996.357 1261.05 OFFCURVE",
"997.195 1283.67 OFFCURVE",
"997.195 1307.12 CURVE SMOOTH",
"997.195 1470.47 OFFCURVE",
"1137.92 1613.7 OFFCURVE",
"1302.1 1613.7 CURVE SMOOTH",
"1387.54 1613.7 OFFCURVE",
"1464.6 1577.68 OFFCURVE",
"1519.05 1519.89 CURVE",
"1586.9 1533.29 OFFCURVE",
"1649.72 1557.58 OFFCURVE",
"1707.52 1591.92 CURVE",
"1684.9 1522.4 OFFCURVE",
"1637.99 1464.6 OFFCURVE",
"1576.85 1427.74 CURVE",
"1637.16 1434.45 OFFCURVE",
"1694.12 1451.2 OFFCURVE",
"1747.73 1474.65 CURVE",
"1707.52 1415.18 OFFCURVE",
"1643.86 1343.98 OFFCURVE",
"1586.06 1302.1 CURVE"
);
}
);
width = 2048;
}
);
unicode = E1F4;
},
{
glyphname = uniE1F5;
lastChange = "2014-03-04 00:37:25 +0000";
layers = (
{
layerId = "1371701D-5D17-46B8-86D4-7A7B37AF85DD";
name = Regular;
paths = (
{
closed = 1;
nodes = (
"1496.63 1136.8 LINE",
"1496.63 1310.06 LINE",
"1397.13 1310.06 LINE",
"1397.13 1136.8 LINE",
"1226.09 1136.8 LINE",
"1226.09 1040.12 LINE",
"1227.16 1040.12 LINE",
"1227.16 1036.44 LINE",
"1397.13 1036.44 LINE",
"1397.13 866.466 LINE",
"1496.63 866.466 LINE",
"1496.63 1036.44 LINE",
"1670.75 1036.44 LINE",
"1670.75 1135.94 LINE",
"1666.61 1135.94 LINE"
);
},
{
closed = 1;
nodes = (
"839.217 1641.74 LINE SMOOTH",
"796.326 1641.74 OFFCURVE",
"750.371 1636.71 OFFCURVE",
"701.349 1626.7 CURVE SMOOTH",
"651.822 1615.09 OFFCURVE",
"604.084 1590.29 OFFCURVE",
"558.139 1552.31 CURVE",
"491.246 1487.4 OFFCURVE",
"457.801 1415.13 OFFCURVE",
"457.801 1335.46 CURVE SMOOTH",
"457.801 1269.51 OFFCURVE",
"481.402 1211.74 OFFCURVE",
"528.617 1162.15 CURVE",
"573.719 1108.85 OFFCURVE",
"639.295 1081.68 OFFCURVE",
"725.32 1080.63 CURVE SMOOTH",
"741.576 1080.63 OFFCURVE",
"758.881 1081.68 OFFCURVE",
"777.246 1083.8 CURVE",
"767.371 1055.96 LINE",
"763.314 1046.41 OFFCURVE",
"761.297 1034.46 OFFCURVE",
"761.297 1020.15 CURVE SMOOTH",
"761.297 996.265 OFFCURVE",
"766.607 975.833 OFFCURVE",
"777.246 958.862 CURVE",
"786.359 941.349 OFFCURVE",
"796.746 924.9 OFFCURVE",
"808.398 909.514 CURVE",
"770.691 908.457 OFFCURVE",
"723.31 903.732 OFFCURVE",
"666.258 895.293 CURVE SMOOTH",
"608.662 885.287 OFFCURVE",
"553.678 865.277 OFFCURVE",
"501.33 835.248 CURVE SMOOTH",
"454.723 807.353 OFFCURVE",
"422.525 774.958 OFFCURVE",
"404.738 738.083 CURVE SMOOTH",
"386.414 701.214 OFFCURVE",
"377.248 667.776 OFFCURVE",
"377.248 637.747 CURVE SMOOTH",
"377.248 576.129 OFFCURVE",
"405.43 523.201 OFFCURVE",
"461.767 478.951 CURVE",
"517.59 431.555 OFFCURVE",
"602.111 407.328 OFFCURVE",
"715.305 406.265 CURVE SMOOTH",
"850.521 408.379 OFFCURVE",
"953.998 440.83 OFFCURVE",
"1025.71 503.625 CURVE SMOOTH",
"1094.86 564.312 OFFCURVE",
"1129.43 633.965 OFFCURVE",
"1129.43 712.579 CURVE",
"1128.45 767.986 OFFCURVE",
"1115.85 812.84 OFFCURVE",
"1091.64 847.142 CURVE",
"1065.96 880.914 OFFCURVE",
"1036.08 911.767 OFFCURVE",
"1002.01 939.744 CURVE SMOOTH",
"947.187 984.857 LINE",
"939.279 992.773 OFFCURVE",
"931.125 1002 OFFCURVE",
"922.738 1012.56 CURVE",
"912.857 1023.64 OFFCURVE",
"907.92 1037.62 OFFCURVE",
"907.92 1054.51 CURVE SMOOTH",
"907.92 1071.92 OFFCURVE",
"912.738 1087.23 OFFCURVE",
"922.367 1100.42 CURVE",
"930.549 1113.09 OFFCURVE",
"939.451 1124.42 OFFCURVE",
"949.084 1134.45 CURVE",
"965.935 1149.22 OFFCURVE",
"981.824 1163.74 OFFCURVE",
"996.748 1177.98 CURVE",
"1010.23 1192.24 OFFCURVE",
"1022.99 1207.79 OFFCURVE",
"1035.03 1224.69 CURVE SMOOTH",
"1059.59 1259.51 OFFCURVE",
"1072.35 1305.94 OFFCURVE",
"1073.31 1363.99 CURVE SMOOTH",
"1073.31 1395.65 OFFCURVE",
"1069.76 1423.35 OFFCURVE",
"1062.66 1447.1 CURVE",
"1054.03 1470.84 OFFCURVE",
"1044.13 1491.42 OFFCURVE",
"1032.98 1508.83 CURVE SMOOTH",
"1021.3 1527.3 OFFCURVE",
"1009.37 1542.87 OFFCURVE",
"997.193 1555.54 CURVE",
"984.508 1567.67 OFFCURVE",
"973.09 1576.91 OFFCURVE",
"962.941 1583.24 CURVE",
"1062.6 1583.24 LINE",
"1162.42 1641.74 LINE"
);
},
{
closed = 1;
nodes = (
"1011.99 726.209 OFFCURVE",
"1025.37 690.316 OFFCURVE",
"1025.37 649.149 CURVE SMOOTH",
"1025.37 598.493 OFFCURVE",
"1005.82 557.062 OFFCURVE",
"966.711 524.857 CURVE SMOOTH",
"926.578 492.134 OFFCURVE",
"868.433 475.251 OFFCURVE",
"792.275 474.188 CURVE SMOOTH",
"707.371 475.251 OFFCURVE",
"640.474 494.248 OFFCURVE",
"591.594 531.187 CURVE SMOOTH",
"540.129 568.144 OFFCURVE",
"514.412 615.112 OFFCURVE",
"514.412 672.105 CURVE SMOOTH",
"514.412 701.139 OFFCURVE",
"520.324 725.939 OFFCURVE",
"532.162 746.522 CURVE",
"542.459 766.054 OFFCURVE",
"555.057 782.421 OFFCURVE",
"569.986 795.605 CURVE",
"585.422 808.265 OFFCURVE",
"600.594 818.037 OFFCURVE",
"615.523 824.891 CURVE SMOOTH",
"650.258 839.15 LINE",
"685.24 849.708 OFFCURVE",
"719.453 857.355 OFFCURVE",
"752.908 862.099 CURVE",
"786.869 865.264 OFFCURVE",
"807.967 866.327 OFFCURVE",
"816.209 865.264 CURVE",
"830.099 865.264 OFFCURVE",
"842.185 864.748 OFFCURVE",
"852.478 863.685 CURVE",
"912.687 821.461 OFFCURVE",
"956.932 785.845 OFFCURVE",
"985.238 756.804 CURVE"
);
},
{
closed = 1;
nodes = (
"928.873 1212.58 OFFCURVE",
"920.078 1191.43 OFFCURVE",
"906.404 1170.82 CURVE",
"878.039 1141.73 OFFCURVE",
"842.59 1126.39 OFFCURVE",
"800.047 1124.81 CURVE",
"766.373 1124.81 OFFCURVE",
"736.439 1135.11 OFFCURVE",
"710.256 1155.74 CURVE SMOOTH",
"684.068 1176.35 OFFCURVE",
"662.687 1201.47 OFFCURVE",
"646.133 1231.08 CURVE SMOOTH",
"611.914 1294.52 OFFCURVE",
"594.816 1355.61 OFFCURVE",
"594.816 1414.3 CURVE",
"593.762 1458.7 OFFCURVE",
"605.474 1498.89 OFFCURVE",
"629.957 1534.85 CURVE",
"658.978 1569.21 OFFCURVE",
"695.402 1586.93 OFFCURVE",
"739.197 1587.99 CURVE",
"772.307 1586.93 OFFCURVE",
"801.586 1577.14 OFFCURVE",
"827.058 1558.64 CURVE",
"852.016 1539.08 OFFCURVE",
"872.129 1513.7 OFFCURVE",
"887.41 1482.51 CURVE SMOOTH",
"920.004 1417.46 OFFCURVE",
"936.301 1352.96 OFFCURVE",
"936.301 1288.98 CURVE SMOOTH",
"936.301 1274.17 OFFCURVE",
"935.119 1255.93 OFFCURVE",
"932.777 1234.26 CURVE"
);
}
);
width = 2048;
}
);
unicode = E1F5;
},
{
glyphname = uniE1F6;
lastChange = "2014-03-06 00:51:12 +0000";
layers = (
{
layerId = "1371701D-5D17-46B8-86D4-7A7B37AF85DD";
name = Regular;
paths = (
{
closed = 1;
nodes = (
"807.967 866.327 OFFCURVE",
"786.869 865.263 OFFCURVE",
"752.908 862.098 CURVE",
"719.453 857.354 OFFCURVE",
"685.24 849.708 OFFCURVE",
"650.258 839.149 CURVE",
"615.523 824.89 LINE SMOOTH",
"600.594 818.036 OFFCURVE",
"585.422 808.265 OFFCURVE",
"569.986 795.604 CURVE",
"555.057 782.421 OFFCURVE",
"542.459 766.054 OFFCURVE",
"532.162 746.521 CURVE",
"520.324 725.938 OFFCURVE",
"514.412 701.138 OFFCURVE",
"514.412 672.104 CURVE SMOOTH",
"514.412 615.112 OFFCURVE",
"540.129 568.143 OFFCURVE",
"591.594 531.186 CURVE SMOOTH",
"640.475 494.248 OFFCURVE",
"707.371 475.251 OFFCURVE",
"792.275 474.187 CURVE SMOOTH",
"868.434 475.251 OFFCURVE",
"926.578 492.134 OFFCURVE",
"966.711 524.856 CURVE SMOOTH",
"1005.82 557.061 OFFCURVE",
"1025.38 598.493 OFFCURVE",
"1025.38 649.148 CURVE SMOOTH",
"1025.38 690.315 OFFCURVE",
"1011.99 726.209 OFFCURVE",
"985.238 756.804 CURVE",
"956.932 785.844 OFFCURVE",
"912.688 821.461 OFFCURVE",
"852.479 863.684 CURVE",
"842.185 864.748 OFFCURVE",
"830.1 865.263 OFFCURVE",
"816.209 865.263 CURVE"
);
},
{
closed = 1;
nodes = (
"801.586 1577.14 OFFCURVE",
"772.307 1586.93 OFFCURVE",
"739.197 1587.99 CURVE",
"695.402 1586.93 OFFCURVE",
"658.979 1569.21 OFFCURVE",
"629.957 1534.85 CURVE",
"605.475 1498.88 OFFCURVE",
"593.762 1458.7 OFFCURVE",
"594.816 1414.3 CURVE SMOOTH",
"594.816 1355.61 OFFCURVE",
"611.914 1294.52 OFFCURVE",
"646.133 1231.08 CURVE SMOOTH",
"662.688 1201.47 OFFCURVE",
"684.068 1176.35 OFFCURVE",
"710.256 1155.74 CURVE SMOOTH",
"736.439 1135.11 OFFCURVE",
"766.373 1124.81 OFFCURVE",
"800.047 1124.81 CURVE",
"842.59 1126.39 OFFCURVE",
"878.039 1141.73 OFFCURVE",
"906.404 1170.82 CURVE",
"920.078 1191.43 OFFCURVE",
"928.873 1212.57 OFFCURVE",
"932.777 1234.26 CURVE",
"935.119 1255.92 OFFCURVE",
"936.301 1274.17 OFFCURVE",
"936.301 1288.98 CURVE SMOOTH",
"936.301 1352.96 OFFCURVE",
"920.004 1417.46 OFFCURVE",
"887.41 1482.51 CURVE SMOOTH",
"872.129 1513.7 OFFCURVE",
"852.016 1539.08 OFFCURVE",
"827.059 1558.64 CURVE"
);
},
{
closed = 1;
nodes = (
"113.035 2048.01 LINE SMOOTH",
"50.5898 2048.01 OFFCURVE",
"0 1997.41 OFFCURVE",
"0 1934.97 CURVE SMOOTH",
"0 113.029 LINE SMOOTH",
"0 50.6077 OFFCURVE",
"50.5898 0 OFFCURVE",
"113.035 0 CURVE SMOOTH",
"1934.97 0 LINE SMOOTH",
"1997.39 0 OFFCURVE",
"2048 50.6077 OFFCURVE",
"2048 113.029 CURVE SMOOTH",
"2048 1934.97 LINE SMOOTH",
"2048 1997.41 OFFCURVE",
"1997.39 2048.01 OFFCURVE",
"1934.97 2048.01 CURVE SMOOTH"
);
},
{
closed = 1;
nodes = (
"1009.37 1542.87 OFFCURVE",
"1021.3 1527.3 OFFCURVE",
"1032.98 1508.83 CURVE SMOOTH",
"1044.13 1491.42 OFFCURVE",
"1054.03 1470.84 OFFCURVE",
"1062.66 1447.1 CURVE",
"1069.76 1423.35 OFFCURVE",
"1073.31 1395.65 OFFCURVE",
"1073.31 1363.99 CURVE SMOOTH",
"1072.35 1305.94 OFFCURVE",
"1059.59 1259.51 OFFCURVE",
"1035.03 1224.69 CURVE SMOOTH",
"1022.99 1207.79 OFFCURVE",
"1010.23 1192.24 OFFCURVE",
"996.748 1177.98 CURVE",
"981.824 1163.74 OFFCURVE",
"965.935 1149.22 OFFCURVE",
"949.084 1134.45 CURVE",
"939.451 1124.42 OFFCURVE",
"930.549 1113.09 OFFCURVE",
"922.367 1100.42 CURVE",
"912.738 1087.22 OFFCURVE",
"907.92 1071.92 OFFCURVE",
"907.92 1054.51 CURVE SMOOTH",
"907.92 1037.62 OFFCURVE",
"912.857 1023.64 OFFCURVE",
"922.738 1012.56 CURVE",
"931.125 1002 OFFCURVE",
"939.279 992.772 OFFCURVE",
"947.188 984.856 CURVE",
"1002.01 939.744 LINE SMOOTH",
"1036.08 911.766 OFFCURVE",
"1065.96 880.914 OFFCURVE",
"1091.64 847.141 CURVE",
"1115.85 812.84 OFFCURVE",
"1128.45 767.985 OFFCURVE",
"1129.43 712.579 CURVE SMOOTH",
"1129.43 633.965 OFFCURVE",
"1094.86 564.311 OFFCURVE",
"1025.71 503.625 CURVE SMOOTH",
"953.998 440.83 OFFCURVE",
"850.521 408.379 OFFCURVE",
"715.305 406.264 CURVE SMOOTH",
"602.111 407.328 OFFCURVE",
"517.59 431.554 OFFCURVE",
"461.767 478.951 CURVE",
"405.43 523.201 OFFCURVE",
"377.248 576.129 OFFCURVE",
"377.248 637.747 CURVE SMOOTH",
"377.248 667.775 OFFCURVE",
"386.414 701.214 OFFCURVE",
"404.738 738.083 CURVE SMOOTH",
"422.525 774.958 OFFCURVE",
"454.723 807.352 OFFCURVE",
"501.33 835.248 CURVE SMOOTH",
"553.678 865.276 OFFCURVE",
"608.662 885.287 OFFCURVE",
"666.258 895.293 CURVE SMOOTH",
"723.31 903.731 OFFCURVE",
"770.691 908.456 OFFCURVE",
"808.398 909.513 CURVE",
"796.746 924.899 OFFCURVE",
"786.359 941.348 OFFCURVE",
"777.246 958.861 CURVE",
"766.607 975.833 OFFCURVE",
"761.297 996.265 OFFCURVE",
"761.297 1020.15 CURVE SMOOTH",
"761.297 1034.46 OFFCURVE",
"763.314 1046.41 OFFCURVE",
"767.371 1055.96 CURVE",
"777.246 1083.8 LINE",
"758.881 1081.68 OFFCURVE",
"741.576 1080.63 OFFCURVE",
"725.32 1080.63 CURVE SMOOTH",
"639.295 1081.68 OFFCURVE",
"573.719 1108.85 OFFCURVE",
"528.617 1162.15 CURVE",
"481.402 1211.74 OFFCURVE",
"457.801 1269.51 OFFCURVE",
"457.801 1335.46 CURVE SMOOTH",
"457.801 1415.13 OFFCURVE",
"491.246 1487.4 OFFCURVE",
"558.139 1552.31 CURVE",
"604.084 1590.29 OFFCURVE",
"651.822 1615.09 OFFCURVE",
"701.35 1626.7 CURVE SMOOTH",
"750.371 1636.71 OFFCURVE",
"796.326 1641.74 OFFCURVE",
"839.217 1641.74 CURVE SMOOTH",
"1162.42 1641.74 LINE",
"1062.6 1583.24 LINE",
"962.941 1583.24 LINE",
"973.09 1576.91 OFFCURVE",
"984.508 1567.67 OFFCURVE",
"997.193 1555.54 CURVE"
);
},
{
closed = 1;
nodes = (
"1496.63 1036.44 LINE",
"1496.63 866.465 LINE",
"1397.13 866.465 LINE",
"1397.13 1036.44 LINE",
"1227.16 1036.44 LINE",
"1227.16 1040.12 LINE",
"1226.09 1040.12 LINE",
"1226.09 1136.8 LINE",
"1397.13 1136.8 LINE",
"1397.13 1310.06 LINE",
"1496.63 1310.06 LINE",
"1496.63 1136.8 LINE",
"1666.61 1136.8 LINE",
"1670.75 1135.94 LINE",
"1670.75 1036.44 LINE"
);
}
);
width = 2048;
}
);
unicode = E1F6;
},
{
glyphname = uniE1F7;
lastChange = "2014-03-04 00:26:50 +0000";
layers = (
{
layerId = "1371701D-5D17-46B8-86D4-7A7B37AF85DD";
name = Regular;
paths = (
{
closed = 1;
nodes = (
"937.172 769.734 OFFCURVE",
"765.57 598.132 OFFCURVE",
"553.97 598.132 CURVE SMOOTH",
"342.269 598.132 OFFCURVE",
"170.667 769.734 OFFCURVE",
"170.667 981.436 CURVE SMOOTH",
"170.667 1193.04 OFFCURVE",
"342.269 1364.53 OFFCURVE",
"553.97 1364.53 CURVE SMOOTH",
"765.57 1364.53 OFFCURVE",
"937.172 1193.04 OFFCURVE",
"937.172 981.436 CURVE"
);
},
{
closed = 1;
nodes = (
"1876 770 OFFCURVE",
"1704.24 598.132 OFFCURVE",
"1492.64 598.132 CURVE SMOOTH",
"1280.94 598.132 OFFCURVE",
"1109.33 769.734 OFFCURVE",
"1109.33 981.436 CURVE SMOOTH",
"1109.33 1193.04 OFFCURVE",
"1280.94 1364.53 OFFCURVE",
"1492.64 1364.53 CURVE SMOOTH",
"1704.24 1364.53 OFFCURVE",
"1875.84 1193.04 OFFCURVE",
"1875.84 981.436 CURVE"
);
}
);
width = 2048;
}
);
unicode = E1F7;
},
{
glyphname = uniE1F8;
lastChange = "2014-03-06 00:53:49 +0000";
layers = (
{
layerId = "1371701D-5D17-46B8-86D4-7A7B37AF85DD";
name = Regular;
paths = (
{
closed = 1;
nodes = (
"113.035 2048.01 LINE SMOOTH",
"50.5898 2048.01 OFFCURVE",
"0 1997.41 OFFCURVE",
"0 1934.97 CURVE SMOOTH",
"0 113.029 LINE SMOOTH",
"0 50.6079 OFFCURVE",
"50.5898 0 OFFCURVE",
"113.035 0 CURVE SMOOTH",
"1934.97 0 LINE SMOOTH",
"1997.39 0 OFFCURVE",
"2048 50.6079 OFFCURVE",
"2048 113.029 CURVE SMOOTH",
"2048 1934.97 LINE SMOOTH",
"2048 1997.41 OFFCURVE",
"1997.39 2048.01 OFFCURVE",
"1934.97 2048.01 CURVE SMOOTH"
);
},
{
closed = 1;
nodes = (
"343.016 640.8 OFFCURVE",
"171.415 812.4 OFFCURVE",
"171.415 1024.11 CURVE SMOOTH",
"171.415 1235.71 OFFCURVE",
"343.016 1407.2 OFFCURVE",
"554.715 1407.2 CURVE SMOOTH",
"766.315 1407.2 OFFCURVE",
"937.915 1235.71 OFFCURVE",
"937.915 1024.11 CURVE SMOOTH",
"937.915 812.4 OFFCURVE",
"766.315 640.8 OFFCURVE",
"554.715 640.8 CURVE SMOOTH"
);
},
{
closed = 1;
nodes = (
"1281.69 640.8 OFFCURVE",
"1110.08 812.4 OFFCURVE",
"1110.08 1024.11 CURVE SMOOTH",
"1110.08 1235.71 OFFCURVE",
"1281.69 1407.2 OFFCURVE",
"1493.38 1407.2 CURVE SMOOTH",
"1704.99 1407.2 OFFCURVE",
"1876.58 1235.71 OFFCURVE",
"1876.58 1024.11 CURVE SMOOTH",
"1876.75 812.67 OFFCURVE",
"1704.99 640.8 OFFCURVE",
"1493.38 640.8 CURVE SMOOTH"
);
}
);
width = 2048;
}
);
unicode = E1F8;
},
{
glyphname = uniE1F9;
lastChange = "2014-03-07 23:16:13 +0000";
layers = (
{
layerId = "1371701D-5D17-46B8-86D4-7A7B37AF85DD";
name = Regular;
paths = (
{
closed = 1;
nodes = (
"113.035 2048 LINE SMOOTH",
"50.5898 2048 OFFCURVE",
"0 1997.4 OFFCURVE",
"0 1934.97 CURVE SMOOTH",
"0 113.034 LINE SMOOTH",
"0 50.6133 OFFCURVE",
"50.5898 0 OFFCURVE",
"113.035 0 CURVE SMOOTH",
"1934.97 0 LINE SMOOTH",
"1997.39 0 OFFCURVE",
"2048 50.6133 OFFCURVE",
"2048 113.034 CURVE SMOOTH",
"2048 1934.97 LINE SMOOTH",
"2048 1997.4 OFFCURVE",
"1997.39 2048 OFFCURVE",
"1934.97 2048 CURVE SMOOTH"
);
},
{
closed = 1;
nodes = (
"389.63 413.79 LINE",
"389.63 1293.54 LINE",
"662.677 1293.54 LINE",
"662.677 413.79 LINE"
);
},
{
closed = 1;
nodes = (
"439.915 1391.81 OFFCURVE",
"363.109 1468.98 OFFCURVE",
"363.109 1564.06 CURVE SMOOTH",
"363.109 1659.04 OFFCURVE",
"439.915 1736.21 OFFCURVE",
"534.938 1736.21 CURVE SMOOTH",
"629.718 1736.21 OFFCURVE",
"706.743 1659.04 OFFCURVE",
"706.743 1564.06 CURVE SMOOTH",
"706.743 1468.98 OFFCURVE",
"629.718 1391.81 OFFCURVE",
"534.938 1391.81 CURVE SMOOTH"
);
},
{
closed = 1;
nodes = (
"1412.28 413.79 LINE",
"1412.28 841.601 LINE SMOOTH",
"1412.28 943.68 OFFCURVE",
"1410.28 1074.9 OFFCURVE",
"1270.41 1074.9 CURVE SMOOTH",
"1128.37 1074.9 OFFCURVE",
"1106.71 963.748 OFFCURVE",
"1106.71 848.996 CURVE SMOOTH",
"1106.71 413.79 LINE",
"833.857 413.79 LINE",
"833.857 1293.54 LINE",
"1095.7 1293.54 LINE",
"1095.7 1173.39 LINE",
"1114.52 1193.08 LINE",
"1158.26 1276.07 OFFCURVE",
"1224.92 1315.47 OFFCURVE",
"1357.7 1315.47 CURVE SMOOTH",
"1633.88 1315.47 OFFCURVE",
"1684.89 1133.31 OFFCURVE",
"1684.89 896.334 CURVE SMOOTH",
"1684.89 413.79 LINE"
);
}
);
width = 2048;
}
);
unicode = E1F9;
},
{
glyphname = uniE1FA;
lastChange = "2014-03-06 00:53:41 +0000";
layers = (
{
layerId = "1371701D-5D17-46B8-86D4-7A7B37AF85DD";
name = Regular;
paths = (
{
closed = 1;
nodes = (
"907.625 420.65 OFFCURVE",
"802.188 623.65 OFFCURVE",
"802.188 766.525 CURVE SMOOTH",
"802.188 1183.9 LINE",
"672.938 1183.9 LINE",
"672.938 1348.9 LINE",
"866.688 1418.74 OFFCURVE",
"913.313 1593.53 OFFCURVE",
"924.25 1693.12 CURVE SMOOTH",
"925 1699.96 OFFCURVE",
"930.375 1702.68 OFFCURVE",
"933.438 1702.68 CURVE SMOOTH",
"1120.56 1702.68 LINE",
"1120.56 1377.28 LINE",
"1376.12 1377.28 LINE",
"1376.12 1183.9 LINE",
"1119.62 1183.9 LINE",
"1119.62 786.275 LINE SMOOTH",
"1120.5 732.15 OFFCURVE",
"1140.31 657.588 OFFCURVE",
"1242.56 660.338 CURVE SMOOTH",
"1276.44 661.213 OFFCURVE",
"1321.88 671.088 OFFCURVE",
"1345.62 682.4 CURVE",
"1407.06 500.213 LINE",
"1384 466.338 OFFCURVE",
"1279.75 427.025 OFFCURVE",
"1185.88 425.4 CURVE SMOOTH"
);
}
);
width = 2048;
}
);
unicode = E1FA;
},
{
glyphname = uniE1FB;
lastChange = "2014-03-06 00:53:38 +0000";
layers = (
{
layerId = "1371701D-5D17-46B8-86D4-7A7B37AF85DD";
name = Regular;
paths = (
{
closed = 1;
nodes = (
"113.035 2048.01 LINE SMOOTH",
"50.5898 2048.01 OFFCURVE",
"0 1997.41 OFFCURVE",
"0 1934.97 CURVE SMOOTH",
"0 113.029 LINE SMOOTH",
"0 50.6074 OFFCURVE",
"50.5898 0 OFFCURVE",
"113.035 0 CURVE SMOOTH",
"1934.97 0 LINE SMOOTH",
"1997.39 0 OFFCURVE",
"2048 50.6074 OFFCURVE",
"2048 113.029 CURVE SMOOTH",
"2048 1934.97 LINE SMOOTH",
"2048 1997.41 OFFCURVE",
"1997.39 2048.01 OFFCURVE",
"1934.97 2048.01 CURVE SMOOTH"
);
},
{
closed = 1;
nodes = (
"908.562 420.913 OFFCURVE",
"803.125 623.913 OFFCURVE",
"803.125 766.788 CURVE SMOOTH",
"803.125 1184.16 LINE",
"673.875 1184.16 LINE",
"673.875 1349.16 LINE",
"867.625 1419.01 OFFCURVE",
"914.25 1593.79 OFFCURVE",
"925.188 1693.38 CURVE SMOOTH",
"925.938 1700.23 OFFCURVE",
"931.312 1702.94 OFFCURVE",
"934.375 1702.94 CURVE SMOOTH",
"1121.5 1702.94 LINE",
"1121.5 1377.54 LINE",
"1377.06 1377.54 LINE",
"1377.06 1184.16 LINE",
"1120.56 1184.16 LINE",
"1120.56 786.538 LINE SMOOTH",
"1121.44 732.413 OFFCURVE",
"1141.25 657.851 OFFCURVE",
"1243.5 660.601 CURVE SMOOTH",
"1277.37 661.476 OFFCURVE",
"1322.81 671.351 OFFCURVE",
"1346.56 682.663 CURVE",
"1408 500.476 LINE",
"1384.94 466.601 OFFCURVE",
"1280.69 427.288 OFFCURVE",
"1186.81 425.663 CURVE SMOOTH"
);
}
);
width = 2048;
}
);
unicode = E1FB;
},
{
glyphname = uniE1FC;
lastChange = "2014-03-06 05:53:34 +0000";
layers = (
{
layerId = "1371701D-5D17-46B8-86D4-7A7B37AF85DD";
name = Regular;
paths = (
{
closed = 1;
nodes = (
"528.946 1920.7 OFFCURVE",
"127.543 1509.08 OFFCURVE",
"127.543 1001.25 CURVE SMOOTH",
"127.543 595.086 OFFCURVE",
"384.38 250.485 OFFCURVE",
"740.64 128.895 CURVE",
"785.464 120.462 OFFCURVE",
"801.825 148.846 OFFCURVE",
"801.825 173.212 CURVE SMOOTH",
"801.825 195.038 OFFCURVE",
"801.049 252.856 OFFCURVE",
"800.614 329.582 CURVE",
"551.25 274.021 OFFCURVE",
"498.634 452.826 OFFCURVE",
"498.634 452.826 CURVE",
"457.871 559.037 OFFCURVE",
"399.102 587.314 OFFCURVE",
"399.102 587.314 CURVE",
"317.708 644.359 OFFCURVE",
"405.26 643.201 OFFCURVE",
"405.26 643.201 CURVE",
"495.222 636.699 OFFCURVE",
"542.572 548.454 OFFCURVE",
"542.572 548.454 CURVE",
"622.54 407.956 OFFCURVE",
"752.384 448.525 OFFCURVE",
"803.465 472.061 CURVE",
"811.61 531.477 OFFCURVE",
"834.768 571.99 OFFCURVE",
"860.38 594.973 CURVE",
"661.316 618.175 OFFCURVE",
"452.043 697.052 OFFCURVE",
"452.043 1049.37 CURVE SMOOTH",
"452.043 1149.74 OFFCURVE",
"486.972 1231.81 OFFCURVE",
"544.316 1296.08 CURVE",
"535.098 1319.34 OFFCURVE",
"504.335 1412.81 OFFCURVE",
"553.105 1539.39 CURVE",
"553.105 1539.39 OFFCURVE",
"628.373 1564.11 OFFCURVE",
"799.624 1445.14 CURVE",
"871.128 1465.53 OFFCURVE",
"947.816 1475.73 OFFCURVE",
"1024.05 1476.09 CURVE SMOOTH",
"1100.18 1475.73 OFFCURVE",
"1176.87 1465.53 OFFCURVE",
"1248.48 1445.14 CURVE",
"1419.63 1564.11 OFFCURVE",
"1494.76 1539.39 OFFCURVE",
"1494.76 1539.39 CURVE",
"1543.66 1412.81 OFFCURVE",
"1512.9 1319.34 OFFCURVE",
"1503.68 1296.08 CURVE",
"1561.13 1231.81 OFFCURVE",
"1595.82 1149.74 OFFCURVE",
"1595.82 1049.37 CURVE SMOOTH",
"1595.82 696.171 OFFCURVE",
"1386.23 618.452 OFFCURVE",
"1186.52 595.689 CURVE",
"1218.71 567.305 OFFCURVE",
"1247.38 511.192 OFFCURVE",
"1247.38 425.43 CURVE SMOOTH",
"1247.38 302.518 OFFCURVE",
"1246.28 203.357 OFFCURVE",
"1246.28 173.212 CURVE SMOOTH",
"1246.28 148.626 OFFCURVE",
"1262.43 120.022 OFFCURVE",
"1307.92 129.002 CURVE",
"1663.83 250.818 OFFCURVE",
"1920.46 595.193 OFFCURVE",
"1920.46 1001.25 CURVE SMOOTH",
"1920.46 1509.08 OFFCURVE",
"1519.05 1920.7 OFFCURVE",
"1023.94 1920.7 CURVE"
);
}
);
width = 2048;
}
);
unicode = E1FC;
},
{
glyphname = uniE2A2;
lastChange = "2013-10-18 07:44:25 +0000";
layers = (
{
layerId = "1371701D-5D17-46B8-86D4-7A7B37AF85DD";
name = Regular;
paths = (
{
closed = 1;
nodes = (
"894 862 LINE SMOOTH",
"790 862 OFFCURVE",
"706 945 OFFCURVE",
"706 1046 CURVE SMOOTH",
"706 1148 OFFCURVE",
"790 1230 OFFCURVE",
"894 1230 CURVE SMOOTH",
"2085 1230 LINE SMOOTH",
"2189 1230 OFFCURVE",
"2273 1148 OFFCURVE",
"2273 1046 CURVE SMOOTH",
"2273 945 OFFCURVE",
"2189 862 OFFCURVE",
"2085 862 CURVE"
);
},
{
closed = 1;
nodes = (
"505 936 OFFCURVE",
"414 847 OFFCURVE",
"302 847 CURVE SMOOTH",
"189 847 OFFCURVE",
"97 936 OFFCURVE",
"97 1046 CURVE SMOOTH",
"97 1157 OFFCURVE",
"189 1245 OFFCURVE",
"302 1245 CURVE SMOOTH",
"414 1245 OFFCURVE",
"505 1157 OFFCURVE",
"505 1046 CURVE"
);
},
{
closed = 1;
nodes = (
"894 1562 LINE SMOOTH",
"790 1562 OFFCURVE",
"706 1644 OFFCURVE",
"706 1745 CURVE SMOOTH",
"706 1846 OFFCURVE",
"790 1929 OFFCURVE",
"894 1929 CURVE SMOOTH",
"2085 1929 LINE SMOOTH",
"2189 1929 OFFCURVE",
"2273 1846 OFFCURVE",
"2273 1745 CURVE SMOOTH",
"2273 1644 OFFCURVE",
"2189 1562 OFFCURVE",
"2085 1562 CURVE"
);
},
{
closed = 1;
nodes = (
"505 1635 OFFCURVE",
"414 1546 OFFCURVE",
"302 1546 CURVE SMOOTH",
"189 1546 OFFCURVE",
"97 1635 OFFCURVE",
"97 1745 CURVE SMOOTH",
"97 1855 OFFCURVE",
"189 1945 OFFCURVE",
"302 1945 CURVE SMOOTH",
"414 1945 OFFCURVE",
"505 1855 OFFCURVE",
"505 1745 CURVE"
);
},
{
closed = 1;
nodes = (
"894 164 LINE SMOOTH",
"790 164 OFFCURVE",
"706 246 OFFCURVE",
"706 348 CURVE SMOOTH",
"706 448 OFFCURVE",
"790 531 OFFCURVE",
"894 531 CURVE SMOOTH",
"2085 531 LINE SMOOTH",
"2189 531 OFFCURVE",
"2273 448 OFFCURVE",
"2273 348 CURVE SMOOTH",
"2273 246 OFFCURVE",
"2189 164 OFFCURVE",
"2085 164 CURVE"
);
},
{
closed = 1;
nodes = (
"505 237 OFFCURVE",
"414 148 OFFCURVE",
"302 148 CURVE SMOOTH",
"189 148 OFFCURVE",
"97 237 OFFCURVE",
"97 348 CURVE SMOOTH",
"97 457 OFFCURVE",
"189 547 OFFCURVE",
"302 547 CURVE SMOOTH",
"414 547 OFFCURVE",
"505 457 OFFCURVE",
"505 348 CURVE"
);
}
);
width = 2432;
}
);
unicode = E2A2;
},
{
glyphname = uniE2A3;
lastChange = "2013-10-18 07:51:24 +0000";
layers = (
{
layerId = "1371701D-5D17-46B8-86D4-7A7B37AF85DD";
name = Regular;
paths = (
{
closed = 1;
nodes = (
"157 1792 LINE SMOOTH",
"70 1792 OFFCURVE",
"0 1719 OFFCURVE",
"0 1631 CURVE SMOOTH",
"0 502 LINE SMOOTH",
"0 413 OFFCURVE",
"70 342 OFFCURVE",
"157 342 CURVE SMOOTH",
"1891 342 LINE SMOOTH",
"1978 342 OFFCURVE",
"2048 413 OFFCURVE",
"2048 502 CURVE SMOOTH",
"2048 1631 LINE SMOOTH",
"2048 1719 OFFCURVE",
"1978 1792 OFFCURVE",
"1891 1792 CURVE"
);
},
{
closed = 1;
nodes = (
"1891 1654 LINE SMOOTH",
"1903 1654 OFFCURVE",
"1914 1643 OFFCURVE",
"1914 1631 CURVE SMOOTH",
"1914 1520 LINE",
"134 1520 LINE",
"134 1631 LINE SMOOTH",
"134 1643 OFFCURVE",
"145 1654 OFFCURVE",
"157 1654 CURVE"
);
},
{
closed = 1;
nodes = (
"157 479 LINE SMOOTH",
"145 479 OFFCURVE",
"134 489 OFFCURVE",
"134 502 CURVE SMOOTH",
"134 1152 LINE",
"1914 1152 LINE",
"1914 502 LINE SMOOTH",
"1914 489 OFFCURVE",
"1903 479 OFFCURVE",
"1891 479 CURVE"
);
},
{
closed = 1;
nodes = (
"289 800 LINE SMOOTH",
"252 800 OFFCURVE",
"222 769 OFFCURVE",
"222 732 CURVE SMOOTH",
"222 694 OFFCURVE",
"252 663 OFFCURVE",
"289 663 CURVE SMOOTH",
"931 663 LINE SMOOTH",
"969 663 OFFCURVE",
"999 694 OFFCURVE",
"999 732 CURVE SMOOTH",
"999 769 OFFCURVE",
"969 800 OFFCURVE",
"931 800 CURVE"
);
}
);
width = 2048;
}
);
unicode = E2A3;
},
{
glyphname = uniE2A4;
lastChange = "2013-10-18 07:27:07 +0000";
layers = (
{
layerId = "1371701D-5D17-46B8-86D4-7A7B37AF85DD";
name = Regular;
paths = (
{
closed = 1;
nodes = (
"30 557 LINE",
"30 813 LINE",
"628 813 LINE",
"628 557 LINE"
);
},
{
closed = 1;
nodes = (
"456 1854 LINE SMOOTH",
"456 1940 OFFCURVE",
"398 2009 OFFCURVE",
"328 2009 CURVE SMOOTH",
"257 2009 OFFCURVE",
"200 1940 OFFCURVE",
"200 1854 CURVE SMOOTH",
"200 983 LINE",
"456 983 LINE"
);
},
{
closed = 1;
nodes = (
"200 187 LINE SMOOTH",
"200 109 OFFCURVE",
"257 46 OFFCURVE",
"328 46 CURVE SMOOTH",
"398 46 OFFCURVE",
"456 109 OFFCURVE",
"456 187 CURVE SMOOTH",
"456 387 LINE",
"200 387 LINE"
);
},
{
closed = 1;
nodes = (
"713 1241 LINE",
"713 1496 LINE",
"1311 1496 LINE",
"1311 1241 LINE"
);
},
{
closed = 1;
nodes = (
"884 210 LINE SMOOTH",
"884 119 OFFCURVE",
"941 46 OFFCURVE",
"1012 46 CURVE SMOOTH",
"1083 46 OFFCURVE",
"1140 119 OFFCURVE",
"1140 210 CURVE SMOOTH",
"1140 1070 LINE",
"884 1070 LINE"
);
},
{
closed = 1;
nodes = (
"1140 1854 LINE SMOOTH",
"1140 1940 OFFCURVE",
"1083 2009 OFFCURVE",
"1012 2009 CURVE SMOOTH",
"941 2009 OFFCURVE",
"884 1940 OFFCURVE",
"884 1854 CURVE SMOOTH",
"884 1667 LINE",
"1140 1667 LINE"
);
},
{
closed = 1;
nodes = (
"1394 814 LINE",
"1394 1069 LINE",
"1992 1069 LINE",
"1992 814 LINE"
);
},
{
closed = 1;
nodes = (
"1823 1855 LINE SMOOTH",
"1823 1940 OFFCURVE",
"1765 2009 OFFCURVE",
"1694 2009 CURVE SMOOTH",
"1624 2009 OFFCURVE",
"1566 1940 OFFCURVE",
"1566 1855 CURVE SMOOTH",
"1566 1240 LINE",
"1823 1240 LINE"
);
},
{
closed = 1;
nodes = (
"1566 218 LINE SMOOTH",
"1566 123 OFFCURVE",
"1624 46 OFFCURVE",
"1694 46 CURVE SMOOTH",
"1765 46 OFFCURVE",
"1823 123 OFFCURVE",
"1823 218 CURVE SMOOTH",
"1823 643 LINE",
"1566 643 LINE"
);
}
);
width = 2048;
}
);
unicode = E2A4;
},
{
glyphname = uniE2A5;
lastChange = "2015-04-17 22:20:44 +0000";
layers = (
{
layerId = "1371701D-5D17-46B8-86D4-7A7B37AF85DD";
name = Regular;
paths = (
{
closed = 1;
nodes = (
"2037 1558 OFFCURVE",
"2034 1498 OFFCURVE",
"2003 1456 CURVE SMOOTH",
"1971 1415 OFFCURVE",
"1943 1402 OFFCURVE",
"1943 1402 CURVE SMOOTH",
"1943 1402 OFFCURVE",
"1955 1478 OFFCURVE",
"1892 1535 CURVE SMOOTH",
"1829 1592 OFFCURVE",
"1771 1572 OFFCURVE",
"1733 1537 CURVE SMOOTH",
"1695 1503 OFFCURVE",
"1702 1451 OFFCURVE",
"1725 1416 CURVE SMOOTH",
"1777 1339 OFFCURVE",
"1871 1355 OFFCURVE",
"1871 1355 CURVE SMOOTH",
"1871 1355 OFFCURVE",
"1831 1323 OFFCURVE",
"1798 1320 CURVE SMOOTH",
"1781 1318 OFFCURVE",
"1751 1320 OFFCURVE",
"1728 1323 CURVE",
"1636 1509 OFFCURVE",
"1439 1659 OFFCURVE",
"1215 1659 CURVE SMOOTH",
"769 1659 LINE SMOOTH",
"721 1659 OFFCURVE",
"635 1631 OFFCURVE",
"591 1620 CURVE",
"377 1786 LINE",
"352 1712 OFFCURVE",
"368 1580 OFFCURVE",
"378 1516 CURVE",
"291 1447 OFFCURVE",
"224 1353 OFFCURVE",
"190 1245 CURVE",
"190 1246 OFFCURVE",
"88 1180 OFFCURVE",
"4 1142 CURVE",
"31 872 LINE",
"31 872 OFFCURVE",
"115 847 OFFCURVE",
"258 748 CURVE",
"319 658 OFFCURVE",
"405 587 OFFCURVE",
"506 544 CURVE SMOOTH",
"523 537 LINE",
"470 302 LINE",
"604 340 LINE",
"701 256 LINE",
"769 511 LINE",
"1215 511 LINE",
"1215 256 LINE",
"1332 330 LINE",
"1471 256 LINE",
"1471 511 LINE",
"1670 597 OFFCURVE",
"1785 829 OFFCURVE",
"1785 1058 CURVE SMOOTH",
"1785 1077 LINE SMOOTH",
"1785 1123 OFFCURVE",
"1779 1168 OFFCURVE",
"1768 1211 CURVE",
"1797 1221 OFFCURVE",
"1854 1246 OFFCURVE",
"1890 1279 CURVE SMOOTH",
"1939 1324 OFFCURVE",
"1941 1354 OFFCURVE",
"1941 1354 CURVE SMOOTH",
"1941 1354 OFFCURVE",
"2029 1392 OFFCURVE",
"2040 1449 CURVE SMOOTH",
"2052 1506 OFFCURVE",
"2037 1558 OFFCURVE",
"2037 1558 CURVE SMOOTH"
);
},
{
closed = 1;
nodes = (
"508 1320 OFFCURVE",
"550 1278 OFFCURVE",
"550 1226 CURVE SMOOTH",
"550 1175 OFFCURVE",
"508 1133 OFFCURVE",
"456 1133 CURVE SMOOTH",
"404 1133 OFFCURVE",
"362 1175 OFFCURVE",
"362 1226 CURVE SMOOTH",
"362 1278 OFFCURVE",
"404 1320 OFFCURVE",
"456 1320 CURVE SMOOTH"
);
},
{
closed = 1;
nodes = (
"1893 1396 OFFCURVE",
"1829 1398 OFFCURVE",
"1785 1437 CURVE SMOOTH",
"1728 1487 OFFCURVE",
"1794 1557 OFFCURVE",
"1854 1500 CURVE SMOOTH",
"1915 1444 OFFCURVE",
"1893 1396 OFFCURVE",
"1893 1396 CURVE SMOOTH"
);
}
);
width = 2048;
}
);
unicode = E2A5;
},
